/* XPM */
static char *result[] = {
/* columns rows colors chars-per-pixel */
"81 98 86 1 ",
"  c black",
". c #010000",
"X c #010100",
"o c #040200",
"O c #050300",
"+ c #060300",
"@ c #0B0500",
"# c #0C0600",
"$ c #100800",
"% c #110900",
"& c #120900",
"* c #130A00",
"= c #150A00",
"- c #150B00",
"; c #160B00",
": c #281400",
"> c #2A1500",
", c #2B1500",
"< c #2E1700",
"1 c #2F1700",
"2 c #2F1800",
"3 c #311800",
"4 c #3A1D00",
"5 c #3E1F00",
"6 c #3F1F00",
"7 c #402000",
"8 c #492500",
"9 c #502800",
"0 c #522900",
"q c #552A00",
"w c #5E2F00",
"e c #623100",
"r c #653200",
"t c #7B3D00",
"y c #7B3E00",
"u c #7D3F00",
"i c #7E3F00",
"p c #7F4000",
"a c #804000",
"s c #944A00",
"d c #9C4E00",
"f c #AA5500",
"g c #AB5600",
"h c #AE5700",
"j c #B15800",
"k c #B95D00",
"l c #BA5D00",
"z c #BB5D00",
"x c #BB5E00",
"c c #BC5E00",
"v c #C06000",
"b c #C76300",
"n c #CA6500",
"m c #CB6600",
"M c #CC6600",
"N c #D96D00",
"B c #DA6D00",
"V c #DB6D00",
"C c #E07000",
"Z c #E37100",
"A c #E47200",
"S c #E57200",
"D c #E77300",
"F c #E87400",
"G c #E97400",
"H c #E97500",
"J c #EC7600",
"K c #F37A00",
"L c #F47A00",
"P c #F57A00",
"I c #F57B00",
"U c #F77C00",
"Y c #F97C00",
"T c #F97D00",
"R c #FA7D00",
"E c #FB7D00",
"W c #FB7E00",
"Q c #FC7E00",
"! c #FD7E00",
"~ c #FD7F00",
"^ c #FE7F00",
"/ c #FF7F00",
"( c #FF8000",
") c #FF8100",
"_ c #FF8300",
"` c None",
/* pixels */
"`````````````````````````````````````````````````````````````````````````````````",
"`````````````````````````````````````````````````````````````````````````````````",
"`````````````````````````````````````````````````````````````````````````````````",
"`````````````````````````````````````````````````````````````````````````````````",
"`````````````````````````````````````````````````````````````````````````````````",
"`````````````````````````````````````````````````````````````````````````````````",
"`````````````````````````````````````````````````````````````````````````````````",
"`````````````````````````````````````````````````````````````````````````````````",
"`````````````````````````````````````````````````````````````````````````````````",
"`````````````````````````````````````````````````````````````````````````````````",
"`````````````````````````````````````````````````````````````````````````````````",
"`````````````````````````````````````````````````````````````````````````````````",
"`````````````````````````````````````````````````````````````````````````````````",
"`````````````````````````````````````````````````````````````````````````````````",
"`````````````````````````````````````````````````````````````````````````````````",
"```````````````                                             `````````````````````",
"```````````````                                             `````````````````````",
"```````````````                                             `````````````````````",
"```````````````                                             `````````````````````",
"```````````````                                             `````````````````````",
"```````````````                                             `````````````````````",
"```````````````                                             `````````````````````",
"```````````````       3reeeeeeeeeeeeeeeeeeeeeeeeeeer3       `````````````````````",
"```````               p_///////////////////////////_p               `````````````",
"```````               u(RRRRRRRRRRRRRRRRRRRRRRRRRRR(u               `````````````",
"```````               u(RRRRRRRRRRRRRRRRRRRRRRRRRRR(u               `````````````",
"```````               u(RRRRRRRRRRRRRRRRRRRRRRRRRRR(u               `````````````",
"```````               u(RRRRRRRRRRRRRRRRRRRRRRRRRRR(u               `````````````",
"```````               u(RRRRRRRRRRRRRRRRRRRRRRRRRRR(u               `````````````",
"```````        O+++++ a(RRRRRRRRRRRRRRRRRRRRRRRRRRR(a +++++O        `````````````",
"```````       %lMmmmmnZWRRRRRRRRRRRRRRRRRRRRRRRRRRRWZnmmmmMl%              ``````",
"```````       -F^~~~~~QRRRRRRRRRRRRRRRRRRRRRRRRRRRRRQ~~~~~^F-              ``````",
"```````       -SERRRRRRRRRRRRRRRRRRRRRRRRRRRRRRRRRRRRRRRRRES-              ``````",
"```````       -SERRRRRRRRRRRRRRRRRRRRRRRRRRRRRRRRRRRRRRRRRES-              ``````",
"```````       -SERRRRRRRRRRRRRRRRRRRRRRRRRRRRRRRRRRRRRRRRRES-              ``````",
"```````       -SERRRRRRRRRRRRRRRRRRRRRRRRRRRRRRRRRRRRRRRRRES-              ``````",
"```````       -SERRRRRRRRRRRRR(((((((((((((((RRRRRRRRRRRRRES-              ``````",
"```````       -SERRRRRRRRRRRRKjfffffffffffffjKRRRRRRRRRRRRES-              ``````",
"```````       -SERRRRRRRRRRRES*             *SERRRRRRRRRRRES-              ``````",
"```````       -SERRRRRRRRRRRES-             -SERRRRRRRRRRRES-              ``````",
"```````       -SERRRRRRRRRRRES-             -SERRRRRRRRRRRES-              ``````",
"```````       -SERRRRRRRRRRRES-             -SERRRRRRRRRRRES-              ``````",
"```````       -SERRRRRRRRRRRES-             -SERRRRRRRRRRRES-              ``````",
"```````       -SERRRRRRRRRRRES-             -SERRRRRRRRRRRES-              ``````",
"```````       -SERRRRRRRRRRRES-      .XXXXX ;SERRRRRRRRRRRES-              ``````",
"```````       -SERRRRRRRRRRRES-      wvxxxxzvPRRRRRRRRRRRRES-              ``````",
"```````       -SERRRRRRRRRRRES-      p_/////^RRRRRRRRRRRRRES-              ``````",
"```````       -SERRRRRRRRRRRES-      u(RRRRRRRRRRRRRRRRRRRES-              ``````",
"```````       -SERRRRRRRRRRRES-      u(RRRRRRRRRRRRRRRRRRRES-              ``````",
"```````       -SERRRRRRRRRRRES-      u(RRRRRRRRRRRRRRRRRRRES-              ``````",
"```````       -SERRRRRRRRRRRES-      u(RRRRRRRRRRRRRRRRRRRES-              ``````",
"```````       ;H(///////////(G%      t(RRRRRRRRRRRRRQ/////(H;              ``````",
"```````       $gcxxxxxxxxxxxcj8566664d/RRRRRRRRRRRRQVkxxxxcg$              ``````",
"```````        .XXXXXXXXXXXX ;ARYYYYYTRRRRRRRRRRRRR(i XXXXX.               ``````",
"```````                      -SERRRRRRRRRRRRRRRRRRR(u                      ``````",
"```````                      -SERRRRRRRRRRRRRRRRRRR(u                      ``````",
"```````                      -SERRRRRRRRRRRRRRRRRRR(u                      ``````",
"```````                      -SERRRRRRRRRRRRRRRRRRR(u                      ``````",
"```````                      -SERRRRRRRRRRRRRRRRRRR(u                      ``````",
"```````                      *SERRRRRRRRRRRRRQQQQQQ)i                      ``````",
"```````               qhfffffjKRRRRRRRRRRRREJw999990:                      ``````",
"```````               a_((((((RRRRRRRRRRRRREA$                             ``````",
"```````               u(RRRRRRRRRRRRRRRRRRRES-                             ``````",
"```````               u(RRRRRRRRRRRRRRRRRRRES-                             ``````",
"```````               u(RRRRRRRRRRRRRRRRRRRES-                             ``````",
"```````               u(RRRRRRRRRRRRRRRRRRRES-                             ``````",
"```````               y(RRRRRRRRRRRRRRRRRRRES&                             ``````",
"```````       o,21111>s(RRRRRRRRRRRRRRRRRRREG7<111111111112,o              ``````",
"```````       =CILLLLLURRRRRRRRRRRRRRRRRRRRRRPLLLLLLLLLLLLIC=              ``````",
"```````       -SERRRRRRRRRRRRRRRRRRRRRRRRRRRRRRRRRRRRRRRRRES-              ``````",
"```````       -SERRRRRRRRRRRRRRRRRRRRRRRRRRRRRRRRRRRRRRRRRES-              ``````",
"```````       -SERRRRRRRRRRRRRRRRRRRRRRRRRRRRRRRRRRRRRRRRRES-              ``````",
"```````       -SERRRRRRRRRRRRRRRRRRRRRRRRRRRRRRRRRRRRRRRRRES-              ``````",
"```````       -SERRRRRRRRRRRRRRRRRRRRRRRRRRRRRRRRRRRRRRRRRES-              ``````",
"```````       -SERRRRRRRRRRRRRRRRRRRRRRRRRRRRRRRRRRRRRRRRRES-              ``````",
"```````       -SERRRRRRRRRRRRRRRRRRRRRRRRRRRRRRRRRRRRRRRRRES-              ``````",
"```````       -SERRRRRRRRRRRRRRRRRRRRRRRRRRRRRRRRRRRRRRRRRES-              ``````",
"```````       -SERRRRRRRRRRRRRRRRRRRRRRRRRRRRRRRRRRRRRRRRRES-              ``````",
"```````       -SERRRRRRRRRRRRRRRRRRRRRRRRRRRRRRRRRRRRRRRRRES-              ``````",
"```````       -SERRRRRRRRRRRRRRRRRRRRRRRRRRRRRRRRRRRRRRRRRES-              ``````",
"```````       -SERRRRRRRRRRRRRRRRRRRRRRRRRRRRRRRRRRRRRRRRRES-              ``````",
"```````       -D!QQQQQQQQQQQQQQQQQQQQQQQQQQQQQQQQQQQQQQQQQ!D-              ``````",
"```````       &bBNNNNNNNNNNNNNNNNNNNNNNNNNNNNNNNNNNNNNNNNNBb&              ``````",
"```````       X@###########################################@X              ``````",
"```````                                                                    ``````",
"```````                                                                    ``````",
"```````                                                                    ``````",
"```````                                                                    ``````",
"```````                                                                    ``````",
"```````                                                                    ``````",
"``````````````                                                             ``````",
"```````````````                                                            ``````",
"```````````````                                                            ``````",
"```````````````                                                            ``````",
"```````````````                                                            ``````",
"```````````````                                                            ``````",
"```````````````                                                            ``````",
"```````````````                                                            ``````"
};
