/* XPM */
static char *result[] = {
/* columns rows colors chars-per-pixel */
"81 98 72 1 ",
"  c black",
". c #010000",
"X c #010100",
"o c #040200",
"O c #050300",
"+ c #060300",
"@ c #070300",
"# c #080400",
"$ c #0B0500",
"% c #0C0600",
"& c #0E0700",
"* c #100800",
"= c #120900",
"- c #130A00",
"; c #150A00",
": c #150B00",
"> c #160B00",
", c #2B1500",
"< c #2E1700",
"1 c #2F1700",
"2 c #2F1800",
"3 c #3A1D00",
"4 c #3F1F00",
"5 c #3F2000",
"6 c #402000",
"7 c #492500",
"8 c #502800",
"9 c #5A2D00",
"0 c #5E2F00",
"q c #623100",
"w c #6D3600",
"e c #7A3D00",
"r c #7B3D00",
"t c #7D3F00",
"y c #7E3F00",
"u c #7F4000",
"i c #9C4E00",
"p c #AA5500",
"a c #AE5700",
"s c #B15800",
"d c #BB5D00",
"f c #BB5E00",
"g c #C06000",
"h c #C76300",
"j c #D96D00",
"k c #DA6D00",
"l c #DF6F00",
"z c #E07000",
"x c #E47200",
"c c #E57200",
"v c #E77300",
"b c #E97400",
"n c #E97500",
"m c #EA7500",
"M c #EC7600",
"N c #F37A00",
"B c #F47A00",
"V c #F57A00",
"C c #F57B00",
"Z c #F97C00",
"A c #F97D00",
"S c #FA7D00",
"D c #FB7D00",
"F c #FC7E00",
"G c #FD7E00",
"H c #FD7F00",
"J c #FE7F00",
"K c #FF7F00",
"L c #FF8000",
"P c #FF8100",
"I c #FF8300",
"U c None",
/* pixels */
"UUUUUUUUUUUUUUUUUUUUUUUUUUUUUUUUUUUUUUUUUUUUUUUUUUUUUUUUUUUUUUUUUUUUUUUUUUUUUUUUU",
"UUUUUUUUUUUUUUUUUUUUUUUUUUUUUUUUUUUUUUUUUUUUUUUUUUUUUUUUUUUUUUUUUUUUUUUUUUUUUUUUU",
"UUUUUUUUUUUUUUUUUUUUUUUUUUUUUUUUUUUUUUUUUUUUUUUUUUUUUUUUUUUUUUUUUUUUUUUUUUUUUUUUU",
"UUUUUUUUUUUUUUUUUUUUUUUUUUUUUUUUUUUUUUUUUUUUUUUUUUUUUUUUUUUUUUUUUUUUUUUUUUUUUUUUU",
"UUUUUUUUUUUUUUUUUUUUUUUUUUUUUUUUUUUUUUUUUUUUUUUUUUUUUUUUUUUUUUUUUUUUUUUUUUUUUUUUU",
"UUUUUUUUUUUUUUUUUUUUUUUUUUUUUUUUUUUUUUUUUUUUUUUUUUUUUUUUUUUUUUUUUUUUUUUUUUUUUUUUU",
"UUUUUUUUUUUUUUUUUUUUUUUUUUUUUUUUUUUUUUUUUUUUUUUUUUUUUUUUUUUUUUUUUUUUUUUUUUUUUUUUU",
"UUUUUUUUUUUUUUUUUUUUUUUUUUUUUUUUUUUUUUUUUUUUUUUUUUUUUUUUUUUUUUUUUUUUUUUUUUUUUUUUU",
"UUUUUUUUUUUUUUUUUUUUUUUUUUUUUUUUUUUUUUUUUUUUUUUUUUUUUUUUUUUUUUUUUUUUUUUUUUUUUUUUU",
"UUUUUUUUUUUUUUUUUUUUUUUUUUUUUUUUUUUUUUUUUUUUUUUUUUUUUUUUUUUUUUUUUUUUUUUUUUUUUUUUU",
"UUUUUUUUUUUUUUUUUUUUUUUUUUUUUUUUUUUUUUUUUUUUUUUUUUUUUUUUUUUUUUUUUUUUUUUUUUUUUUUUU",
"UUUUUUUUUUUUUUUUUUUUUUUUUUUUUUUUUUUUUUUUUUUUUUUUUUUUUUUUUUUUUUUUUUUUUUUUUUUUUUUUU",
"UUUUUUUUUUUUUUUUUUUUUUUUUUUUUUUUUUUUUUUUUUUUUUUUUUUUUUUUUUUUUUUUUUUUUUUUUUUUUUUUU",
"UUUUUUUUUUUUUUUUUUUUUUUUUUUUUUUUUUUUUUUUUUUUUUUUUUUUUUUUUUUUUUUUUUUUUUUUUUUUUUUUU",
"UUUUUUUUUUUUUUUUUUUUUUUUUUUUUUUUUUUUUUUUUUUUUUUUUUUUUUUUUUUUUUUUUUUUUUUUUUUUUUUUU",
"                                                       UUUUUUUUUUUUUUUUUUUUUUUUUU",
"                                                        UUUUUUUUUUUUUUUUUUUUUUUUU",
"                                                        UUUUUUUUUUUUUUUUUUUUUUUUU",
"                                                        UUUUUUUUUUUUUUUUUUUUUUUUU",
"                                                        UUUUUUUUUUUUUUUUUUUUUUUUU",
"                                                        UUUUUUUUUUUUUUUUUUUUUUUUU",
"                                                       UUUUUUUUUUUUUUUUUUUUUUUUUU",
"  #9qqqqqqqqqqqqqqqqqqqqqqqqqqqqqqqqqqqqqqqqqqq9#       UUUUUUUUUUUUUUUUUUUUUUUUU",
"  >nLKKKKKKKKKKKKKKKKKKKKKKKKKKKKKKKKKKKKKKKKKLn>              UUUUUUUUUUUUUUUUUU",
"  :cDSSSSSSSSSSSSSSSSSSSSSSSSSSSSSSSSSSSSSSSSSDc:              UUUUUUUUUUUUUUUUUU",
"  :cDSSSSSSSSSSSSSSSSSSSSSSSSSSSSSSSSSSSSSSSSSDc:              UUUUUUUUUUUUUUUUUU",
"  :cDSSSSSSSSSSSSSSSSSSSSSSSSSSSSSSSSSSSSSSSSSDc:              UUUUUUUUUUUUUUUUUU",
"  :cDSSSSSSSSSSSSSSSSSSSSSSSSSSSSSSSSSSSSSSSSSDc:              UUUUUUUUUUUUUUUUUU",
"  :cDSSSSSSSSSSSSSSSSSSSSSSSSSSSSSSSSSSSSSSSSSDc:              UUUUUUUUUUUUUUUUUU",
"  :cDSSSSSSSSSSSSSSSSSSSSSSSSSSSSSSSSSSSSSSSSSDc:              UUUUUUUUUUUUUUUUUU",
"  :cDSSSSSSSSSSSSSSSSSSSSSSSSSSSSSSSSSSSSSSSSSDc:              UUUUUUUUUUUUUUUUUU",
"  :cDSSSSSSSSSSSSSSSSSSSSSSSSSSSSSSSSSSSSSSSSSDc:              UUUUUUUUUUUUUUUUUU",
"  :cDSSSSSSSSSSSSSSSSSSSSSSSSSSSSSSSSSSSSSSSSSDc:              UUUUUUUUUUUUUUUUUU",
"  :cDSSSSSSSSSSSSSSSSSSSSSSSSSSSSSSSSSSSSSSSSSDc:              UUUUUUUUUUUUUUUUUU",
"  :cDSSSSSSSSSSSSSSSSSSSSSSSSSSSSSSSSSSSSSSSSSDc:              UUUUUUUUUUUUUUUUUU",
"  :cDSSSSSSSSSSSSSSSSSSSSSSSSSSSSSSSSSSSSSSSSSDc:              UUUUUUUUUUUUUUUUUU",
"  :cDSSSSSSSSSSSSSLLLLLLLLLLLLLLLLLLLLLLLLLLLLLm>              UUUUUUUUUUUUUUUUUU",
"  :cDSSSSSSSSSSSSNsppppppppppppppppppppppppppppi&              UUUUUUUUUUUUUUUUUU",
"  :cDSSSSSSSSSSSDc-                                            UUUUUUUUUUUUUUUUUU",
"  :cDSSSSSSSSSSSDc:                                            UUUUUUUUUUUUUUUUUU",
"  :cDSSSSSSSSSSSDc:                                            UUUUUUUUUUUUUUUUUU",
"  :cDSSSSSSSSSSSDc:                                            UUUUUUUUUUUUUUUUUU",
"  :cDSSSSSSSSSSSDc:                                            UUUUUUUUUUUUUUUUUU",
"  :cDSSSSSSSSSSSDc:                                            UUUUUUUUUUUUUUUUUU",
"  :cDSSSSSSSSSSSDc> XXXXXXXXXXXXXXXXXXXX.                      UUUUUUUUUUUUUUUUUU",
"  :cDSSSSSSSSSSSSVgdfffffffffffffffffffg0                      UUUUUUUUUUUUUUUUUU",
"  :cDSSSSSSSSSSSSSJKKKKKKKKKKKKKKKKKKKKIu                      UUUUUUUUUUUUUUUUUU",
"  :cDSSSSSSSSSSSSSSSSSSSSSSSSSSSSSSSSSSLt                      UUUUUUUUUUUUUUUUUU",
"  :cDSSSSSSSSSSSSSSSSSSSSSSSSSSSSSSSSSSLt                      UUUUUUUUUUUUUUUUUU",
"  :cDSSSSSSSSSSSSSSSSSSSSSSSSSSSSSSSSSSLt                      UUUUUUUUUUUUUUUUUU",
"  :cDSSSSSSSSSSSSSSSSSSSSSSSSSSSSSSSSSSLt                      UUUUUUUUUUUUUUUUUU",
"  :cDSSSSSSSSSSSSSSSSSSSSSSSSSSSSSSSSSSLr                      UUUUUUUUUUUUUUUUUU",
"  :cDSSSSSSSSSSSSSSSSSSSSSSSSSSSSSSSSSSKi3444453O              UUUUUUUUUUUUUUUUUU",
"  :cDSSSSSSSSSSSSSSSSSSSSSSSSSSSSSSSSSSSAZZZZZSx:              UUUUUUUUUUUUUUUUUU",
"  :cDSSSSSSSSSSSSSSSSSSSSSSSSSSSSSSSSSSSSSSSSSDc:              UUUUUUUUUUUUUUUUUU",
"  :cDSSSSSSSSSSSSSSSSSSSSSSSSSSSSSSSSSSSSSSSSSDc:              UUUUUUUUUUUUUUUUUU",
"  :cDSSSSSSSSSSSSSSSSSSSSSSSSSSSSSSSSSSSSSSSSSDc:              UUUUUUUUUUUUUUUUUU",
"  :cDSSSSSSSSSSSSSSSSSSSSSSSSSSSSSSSSSSSSSSSSSDc:              UUUUUUUUUUUUUUUUUU",
"  :cDSSSSSSSSSSSSSSSSSSSSSSSSSSSSSSSSSSSSSSSSSDc:              UUUUUUUUUUUUUUUUUU",
"  :vHFFFFFFFFFFFFFFFFFFFFFFFFFFFFSSSSSSSSSSSSSDc:              UUUUUUUUUUUUUUUUUU",
"  @788888888888888888888888888880MDSSSSSSSSSSSDc:              UUUUUUUUUUUUUUUUUU",
"                                *xDSSSSSSSSSSSDc:              UUUUUUUUUUUUUUUUUU",
"                                :cDSSSSSSSSSSSDc:              UUUUUUUUUUUUUUUUUU",
"                                :cDSSSSSSSSSSSDc:              UUUUUUUUUUUUUUUUUU",
"                                :cDSSSSSSSSSSSDc:              UUUUUUUUUUUUUUUUUU",
"                                :cDSSSSSSSSSSSDc:              UUUUUUUUUUUUUUUUUU",
"                                =cDSSSSSSSSSSSDc:              UUUUUUUUUUUUUUUUUU",
"  o,211111111111111111111111111<6bDSSSSSSSSSSSDc:              UUUUUUUUUUUUUUUUUU",
"  ;zCBBBBBBBBBBBBBBBBBBBBBBBBBBBVSSSSSSSSSSSSSDc:              UUUUUUUUUUUUUUUUUU",
"  :cDSSSSSSSSSSSSSSSSSSSSSSSSSSSSSSSSSSSSSSSSSDc:              UUUUUUUUUUUUUUUUUU",
"  :cDSSSSSSSSSSSSSSSSSSSSSSSSSSSSSSSSSSSSSSSSSDc:              UUUUUUUUUUUUUUUUUU",
"  :cDSSSSSSSSSSSSSSSSSSSSSSSSSSSSSSSSSSSSSSSSSDc:              UUUUUUUUUUUUUUUUUU",
"  :cDSSSSSSSSSSSSSSSSSSSSSSSSSSSSSSSSSSSSSSSSSDc:              UUUUUUUUUUUUUUUUUU",
"  :cDSSSSSSSSSSSSSSSSSSSSSSSSSSSSSSSSSSSSSSSSSDc:              UUUUUUUUUUUUUUUUUU",
"  :cDSSSSSSSSSSSSSSSSSSSSSSSSSSSSSSSSSSSFKKKKKLn>              UUUUUUUUUUUUUUUUUU",
"  :cDSSSSSSSSSSSSSSSSSSSSSSSSSSSSSSSSSSJa0qqqqq9#              UUUUUUUUUUUUUUUUUU",
"  :cDSSSSSSSSSSSSSSSSSSSSSSSSSSSSSSSSSSLe                      UUUUUUUUUUUUUUUUUU",
"  :cDSSSSSSSSSSSSSSSSSSSSSSSSSSSSSSSSSSLt                      UUUUUUUUUUUUUUUUUU",
"  :cDSSSSSSSSSSSSSSSSSSSSSSSSSSSSSSSSSSLt                      UUUUUUUUUUUUUUUUUU",
"  :cDSSSSSSSSSSSSSSSSSSSSSSSSSSSSSSSSSSLt                      UUUUUUUUUUUUUUUUUU",
"  :cDSSSSSSSSSSSSSSSSSSSSSSSSSSSSSSSSSSLt                      UUUUUUUUUUUUUUUUUU",
"  :vGFFFFFFFFFFFFFFFFFFFFFFFFFFFFFFFFFFPy                      UUUUUUUUUUUUUUUUUU",
"  =hkjjjjjjjjjjjjjjjjjjjjjjjjjjjjjjjjjjlw                      UUUUUUUUUUUUUUUUUU",
"  X$%%%%%%%%%%%%%%%%%%%%%%%%%%%%%%%%%%%%+                      UUUUUUUUUUUUUUUUUU",
"                                                               UUUUUUUUUUUUUUUUUU",
"                                                               UUUUUUUUUUUUUUUUUU",
"                                                               UUUUUUUUUUUUUUUUUU",
"                                                               UUUUUUUUUUUUUUUUUU",
"                                                               UUUUUUUUUUUUUUUUUU",
"                                                               UUUUUUUUUUUUUUUUUU",
"UU                                                      UUUUUUUUUUUUUUUUUUUUUUUUU",
"UUU                                                    UUUUUUUUUUUUUUUUUUUUUUUUUU",
"UUU                                                     UUUUUUUUUUUUUUUUUUUUUUUUU",
"UUU                                                     UUUUUUUUUUUUUUUUUUUUUUUUU",
"UUU                                                     UUUUUUUUUUUUUUUUUUUUUUUUU",
"UUU                                                     UUUUUUUUUUUUUUUUUUUUUUUUU",
"UUU                                                     UUUUUUUUUUUUUUUUUUUUUUUUU",
"UUU                                                     UUUUUUUUUUUUUUUUUUUUUUUUU"
};
