/* XPM */
static char *_b15bfeb190d4f90b710bac0befa26d20vkn1oCkgANp19aV[] = {
/* columns rows colors chars-per-pixel */
"100 100 75 1 ",
"  c None",
". c black",
"X c #010000",
"o c #000001",
"O c #020000",
"+ c #030000",
"@ c #000002",
"# c #000004",
"$ c #000005",
"% c #CB8900",
"& c #CB8901",
"* c #CB8B02",
"= c #CD8800",
"- c #CD8900",
"; c #CE8800",
": c #CE8900",
"> c #CF8900",
", c #CD8905",
"< c #CD8909",
"1 c #CD8911",
"2 c #CD8915",
"3 c #CD8917",
"4 c #E2BB0B",
"5 c #F0B800",
"6 c #F1B800",
"7 c #F0B900",
"8 c #F1B900",
"9 c #F3B800",
"0 c #F2B900",
"q c #F3B900",
"w c #F0BA00",
"e c #F0BB00",
"r c #F1BB00",
"t c #F2BA00",
"y c #F3BA00",
"u c #F2BB00",
"i c #F4B800",
"p c #F5B800",
"a c #F4B900",
"s c #F5B900",
"d c #F6B900",
"f c #F4BA00",
"g c #F5BA00",
"h c #F0BC01",
"j c #F7F5D9",
"k c #F7F7EE",
"l c #F6FAEE",
"z c #F6F7F2",
"x c #F6F9F1",
"c c #F0F2FB",
"v c #F2F3FB",
"b c #F0F5FB",
"n c #F6F4FB",
"m c #F6F5FB",
"M c #F6F7FB",
"N c #F2F5FC",
"B c #F8F6F9",
"V c #F7F8F8",
"C c #F6F9F8",
"Z c #F7F8F9",
"A c #F6F9F9",
"S c #F7F9F9",
"D c #F5F9FA",
"F c #F6F9FA",
"G c #F7F9FA",
"H c #F9F8F9",
"J c #F8F9F9",
"K c #F9F9F9",
"L c #F8FAF9",
"P c #F9FAF9",
"I c #F8F9FA",
"U c #F8FAFA",
"Y c #F9FAFA",
"T c #F8FAFB",
"R c #F9FAFB",
/* pixels */
"                                                                                                    ",
"                                                                                                    ",
"                                                                                                    ",
"                                                                                                    ",
"                                                                                                    ",
"                                                                                                    ",
"                                                                                                    ",
"                                                                                                    ",
"                                                                                                    ",
"                                                                                                    ",
"                                                                                                    ",
"                                                                                                    ",
"                                    @@@@@@@@@@+@@+++++++++++++                                      ",
"                                    @@@@@@@@@@+@@++@@++++@++++                                      ",
"                                    @@@@@@@@@@+@@+@@@+@+@@+@@@                                      ",
"                                    @@@@@@@@@@@@@@@+@+@@@+@@+@                                      ",
"                                    @@@@@@@@@@@@@@@@@@@@@@@@@@                                      ",
"                                    @@@@@@@@@@@@@@@@@@@@@@@@@@                                      ",
"                                    @@@@@@@@@@@@@@@@@@@@@@@@@@                                      ",
"                                    @@@@@@@d0d0000dd0d0h@@@@@@                                      ",
"                                    @@@@@@@0d000d000d000@@@@@@                                      ",
"                                    @@@@@@@d000d000d000h@@@@@@                                      ",
"                                    @@@@@@@0d0d0d0d0000h@@@@@@                                      ",
"                                    @@@@@@@0000000000000@@@@@@                                      ",
"                                    @@@@@@@d00d000000000@@@@@@                                      ",
"                                    @@@@@@@0d0000d0d0d0h@@@@@@                                      ",
"                                    @@@@@@@d0000d000d00h@@@@@@                                      ",
"                                    @@@@@@@d0d0d000d0000@@@@@@                                      ",
"                                    @@@@@@@hd0d0diii0d00@@@@@@                                      ",
"                                    @@@@@@@d0d0d9iii9dd0@@@@@@                                      ",
"                                    @@@@@@@dddddiiii9idh@@@@@@                                      ",
"                                    @@@@@@@d0dddiiiiddd0@@@@@@                                      ",
"                                    @@@@@@@NNcNbMMMnGlxj@@@@@@                                      ",
"                                    @@@@@@@JGGGGGGGGJCGG@@@@@@                                      ",
"                                    @@@@@@@LGGGGGGGGGGGT@@@@@@                                      ",
"                                    @@@@@@@RJJJJJJGGGTTT@@@@@@                                      ",
"                                    @@@@@@@PJJJJJJIIIITT@@@@@@                                      ",
"                                    @@@@@@@RRJJJJJJJIITR@@@@@@                                      ",
"                                    @@@@@@@RRRJJJJJJJIRR@@@@@@                                      ",
"                                    @@@@@@@RRJJJJJJJJJRR@@@@@@                                      ",
"                                    @@@@@@@PJJJJJJJJJJHP@@@@@@                                      ",
"                                    @@@@@@@PJJJJJJJJJVPH@@@@@@                                      ",
"                                    @@@@@@@PGCGCJGGCGCCP@@@@@@                                      ",
"                                    @@@@@@@PCGCGJCJCGBHH@@@@@@                                      ",
"                                    @@@@@@@CGCGGGCGCCCVM@@@@@@                                      ",
"                                    @@@@@@@GGGGGGDDGGGxk@@@@@@                                      ",
"                                    @@@@@@@000d0ii09d0d4@@@@@@                                      ",
"                                    @@@@@@@d0d0dd0d00d0h@@@@@@                                      ",
"                                    @@@@@@@uu0d000d00dhh@@@@@@                                      ",
"                                    @@@@@@@dddhd0dd0dhdh@@@@@@                                      ",
"                                    @@@@@@@uhd000000uddh@@@@@@                                      ",
"                                    @@@@@@@du0dhd0d0000h@@@@@@                                      ",
"                                    @@@@@@@dudhd000d000h@@@@@@                                      ",
"                                    @@@@@@@h0d0000000000@@@@@@                                      ",
"                                    @@@@@@@d0h000000000h@@@@@@                                      ",
"                                    @@@@@@@00h000000000e@@@@@@                                      ",
"                                    @@@@@@@00000000000ww@@@@@@                                      ",
"                                    @@@@@@@000000009ww0w@@@@@@                                      ",
"                                    @@@@@@@00000000w9www@@@@@@                                      ",
"                                    @@@@@@@00000w09w059w@@@@@@                                      ",
"                                    @@@@@@@0000090w90w0w@@@@@@                                      ",
"                                    @@@@@@@00000w55ww0ww@@@@@@                                      ",
"                                    @@@@@@@0000000900w00@@@@@@                                      ",
"                                    @@@@@@@000000000w000@@@@@@                                      ",
"                                    @@@@@@@0000000000000@@@@@@                                      ",
"                                    @@@@@@@0000000000005@@@@@@                                      ",
"                                    @@@@@@@h000000000005@@@@@@                                      ",
"                                    @@@@@@@>;;;;;;;;;;%%@@@@@@                                      ",
"                                    @@@@@@@:::;;;;;;;%,%@@@@@@                                      ",
"                                    @@@@@@@:::;:;;;;;:2%@@@@@@                                      ",
"                                    @@@@@@@::::::::%%:2%@@@@@@                                      ",
"                                    @@@@@@#:::::::::::3%@@@@@@                                      ",
"                                    @@@@@@@:::::;%;;:%3%@@@@@@                                      ",
"                                    @@@@@@@:::::;;;%:%1%@@@@@@                                      ",
"                                    @@@@@@@:::::%:::::3%@@@@@@                                      ",
"                                    @@@@@@@::::::::%%:3%@@@@@@                                      ",
"                                    @@@@@@@:::::::::::3%@@@@@@                                      ",
"                                    @@@@@@@::::::::::%<%@@@@@@                                      ",
"                                    @@@@@@@::::::::::::%@@@@@@                                      ",
"                                    @@@@@@@:::::::::%::%@@@@@@                                      ",
"                                    @@@@@@@@@@@@@@@@@@@@@@@@@@                                      ",
"                                    @@@@@@@@@@@@@@@@@@@@@@@@@@                                      ",
"                                    @@@@@@@@@@@@@@@@@@@@@@@@@@                                      ",
"                                    @@@@@@@@@@@@@@@@@@@@@@@@@@                                      ",
"                                    @@@@@@@@@@@@@@@@@@@@@@@@@@                                      ",
"                                    @@@@@@@@@@@@@@@@@@@@@@@@@@                                      ",
"                                    @@@@@@@@@@@@@@@@@@@@@@@@@@                                      ",
"                                                                                                    ",
"                                                                                                    ",
"                                                                                                    ",
"                                                                                                    ",
"                                                                                                    ",
"                                                                                                    ",
"                                                                                                    ",
"                                                                                                    ",
"                                                                                                    ",
"                                                                                                    ",
"                                                                                                    ",
"                                                                                                    ",
"                                                                                                    "
};
