/* XPM */
static char *b45e893904414c47919d7d872397785fzqGnt5kjazSirFBt[] = {
/* columns rows colors chars-per-pixel */
"100 100 9 1 ",
"  c None",
". c black",
"X c #1E1E11",
"o c #757A7B",
"O c #8C3B4E",
"+ c #87959C",
"@ c #FFDABC",
"# c #BCCCDC",
"$ c #E5F9FF",
/* pixels */
"                                                                                                    ",
"                                                                                                    ",
"                                                                                                    ",
"                                                                                                    ",
"                                                                                                    ",
"                                                                                                    ",
"                                                                                                    ",
"                                                                                                    ",
"                                                                                                    ",
"                                                                                                    ",
"                                                                                                    ",
"                                                                                                    ",
"                                                                                                    ",
"                                                                                                    ",
"                                                                                                    ",
"                                                                                                    ",
"                                                                                                    ",
"                                                                                                    ",
"                                                                                                    ",
"                                                                                                    ",
"                                                  .....                         .....               ",
"                                                  .....                         .....               ",
"                                                  .....                         .....               ",
"                                                  .....                         .....               ",
"                                                  .....                         .....               ",
"                                             .....ooooo.....               .....$$$$$.....          ",
"                                             .....ooooo.....               .....$$$$$.....          ",
"                                             .....ooooo.....               .....$$$$$.....          ",
"                                             .....ooooo.....               .....$$$$$.....          ",
"                                             .....ooooo.....               .....$$$$$.....          ",
"                                        .....ooooo@@@@@ooooo...............$$$$$@@@@@.....          ",
"                                        .....ooooo@@@@@ooooo...............$$$$$@@@@@.....          ",
"                                        .....ooooo@@@@@ooooo...............$$$$$@@@@@.....          ",
"                                        .....ooooo@@@@@ooooo...............$$$$$@@@@@.....          ",
"                                        .....ooooo@@@@@ooooo...............$$$$$@@@@@.....          ",
"                                        .....ooooooooooooooo$$$$$$$$$$ooooooooooooooo.....          ",
"                                        .....ooooooooooooooo$$$$$$$$$$ooooooooooooooo.....          ",
"                                        .....ooooooooooooooo$$$$$$$$$$ooooooooooooooo.....          ",
"                                        .....ooooooooooooooo$$$$$$$$$$ooooooooooooooo.....          ",
"                                        .....ooooooooooooooo$$$$$$$$$$ooooooooooooooo.....          ",
"                                        .....oooooooooo$$$$$$$$$$$$$$$ooooooooooooooo.....          ",
"                                        .....oooooooooo$$$$$$$$$$$$$$$ooooooooooooooo.....          ",
"                                        .....oooooooooo$$$$$$$$$$$$$$$ooooooooooooooo.....          ",
"                                        .....oooooooooo$$$$$$$$$$$$$$$ooooooooooooooo.....          ",
"                                        .....oooooooooo$$$$$$$$$$$$$$$ooooooooooooooo.....          ",
"                    .....          .....$$$$$$$$$$$$$$$oooooooooo$$$$$$$$$$ooooooooooooooo.....     ",
"                    .....          .....$$$$$$$$$$$$$$$oooooooooo$$$$$$$$$$ooooooooooooooo.....     ",
"                    .....          .....$$$$$$$$$$$$$$$oooooooooo$$$$$$$$$$ooooooooooooooo.....     ",
"                    .....          .....$$$$$$$$$$$$$$$oooooooooo$$$$$$$$$$ooooooooooooooo.....     ",
"                    .....          .....$$$$$$$$$$$$$$$oooooooooo$$$$$$$$$$ooooooooooooooo.....     ",
"               .....ooooo.....     .....$$$$$$$$$$ooooooooooXXXXXooooo$$$$$$$$$$XXXXXooooo.....     ",
"               .....ooooo.....     .....$$$$$$$$$$ooooooooooXXXXXooooo$$$$$$$$$$XXXXXooooo.....     ",
"               .....ooooo.....     .....$$$$$$$$$$ooooooooooXXXXXooooo$$$$$$$$$$XXXXXooooo.....     ",
"               .....ooooo.....     .....$$$$$$$$$$ooooooooooXXXXXooooo$$$$$$$$$$XXXXXooooo.....     ",
"               .....ooooo.....     .....$$$$$$$$$$ooooooooooXXXXXooooo$$$$$$$$$$XXXXXooooo.....     ",
"          .....$$$$$.....     ..........$$$$$$$$$$ooooooooooXXXXXooooo$$$$$$$$$$XXXXX$$$$$.....     ",
"          .....$$$$$.....     ..........$$$$$$$$$$ooooooooooXXXXXooooo$$$$$$$$$$XXXXX$$$$$.....     ",
"          .....$$$$$.....     ..........$$$$$$$$$$ooooooooooXXXXXooooo$$$$$$$$$$XXXXX$$$$$.....     ",
"          .....$$$$$.....     ..........$$$$$$$$$$ooooooooooXXXXXooooo$$$$$$$$$$XXXXX$$$$$.....     ",
"          .....$$$$$.....     ..........$$$$$$$$$$ooooooooooXXXXXooooo$$$$$$$$$$XXXXX$$$$$.....     ",
"          .....$$$$$..........$$$$$$$$$$#####$$$$$$$$$$oooooooooo$$$$$OOOOO$$$$$$$$$$.....          ",
"          .....$$$$$..........$$$$$$$$$$#####$$$$$$$$$$oooooooooo$$$$$OOOOO$$$$$$$$$$.....          ",
"          .....$$$$$..........$$$$$$$$$$#####$$$$$$$$$$oooooooooo$$$$$OOOOO$$$$$$$$$$.....          ",
"          .....$$$$$..........$$$$$$$$$$#####$$$$$$$$$$oooooooooo$$$$$OOOOO$$$$$$$$$$.....          ",
"          .....$$$$$..........$$$$$$$$$$#####$$$$$$$$$$oooooooooo$$$$$OOOOO$$$$$$$$$$.....          ",
"               .....##########$$$$$$$$$$##########$$$$$$$$$$$$$$$$$$$$$$$$$$$$$$.....               ",
"               .....##########$$$$$$$$$$##########$$$$$$$$$$$$$$$$$$$$$$$$$$$$$$.....               ",
"               .....##########$$$$$$$$$$##########$$$$$$$$$$$$$$$$$$$$$$$$$$$$$$.....               ",
"               .....##########$$$$$$$$$$##########$$$$$$$$$$$$$$$$$$$$$$$$$$$$$$.....               ",
"               .....##########$$$$$$$$$$##########$$$$$$$$$$$$$$$$$$$$$$$$$$$$$$.....               ",
"                    .....##########$$$$$$$$$$##############################.....                    ",
"                    .....##########$$$$$$$$$$##############################.....                    ",
"                    .....##########$$$$$$$$$$##############################.....                    ",
"                    .....##########$$$$$$$$$$##############################.....                    ",
"                    .....##########$$$$$$$$$$##############################.....                    ",
"                         .....#############################################.....                    ",
"                         .....#############################################.....                    ",
"                         .....#############################################.....                    ",
"                         .....#############################################.....                    ",
"                         .....#############################################.....                    ",
"                         .....########################################.....                         ",
"                         .....########################################.....                         ",
"                         .....########################################.....                         ",
"                         .....########################################.....                         ",
"                         .....########################################.....                         ",
"                         .....#####.....+++++..........#####.....+++++.....                         ",
"                         .....#####.....+++++..........#####.....+++++.....                         ",
"                         .....#####.....+++++..........#####.....+++++.....                         ",
"                         .....#####.....+++++..........#####.....+++++.....                         ",
"                         .....#####.....+++++..........#####.....+++++.....                         ",
"                         .....#####.....+++++..........#####.....+++++.....                         ",
"                         .....#####.....+++++..........#####.....+++++.....                         ",
"                         .....#####.....+++++..........#####.....+++++.....                         ",
"                         .....#####.....+++++..........#####.....+++++.....                         ",
"                         .....#####.....+++++..........#####.....+++++.....                         ",
"                              .....     .....          .....     .....                              ",
"                              .....     .....          .....     .....                              ",
"                              .....     .....          .....     .....                              ",
"                              .....     .....          .....     .....                              ",
"                              .....     .....          .....     .....                              "
};
