/* XPM */
static char *result[] = {
/* columns rows colors chars-per-pixel */
"41 49 99 2 ",
"   c black",
".  c #020100",
"X  c #030100",
"o  c #030200",
"O  c #050200",
"+  c #060300",
"@  c #070400",
"#  c #080400",
"$  c #0B0600",
"%  c #0C0600",
"&  c #0D0600",
"*  c #0E0700",
"=  c #0F0700",
"-  c #110800",
";  c #130A00",
":  c #150A00",
">  c #160B00",
",  c #170C00",
"<  c #180C00",
"1  c #201000",
"2  c #211100",
"3  c #221100",
"4  c #231100",
"5  c #291400",
"6  c #2A1500",
"7  c #2B1500",
"8  c #2D1600",
"9  c #2D1700",
"0  c #301800",
"q  c #331A00",
"w  c #3E1F00",
"e  c #3F2000",
"r  c #402000",
"t  c #482400",
"y  c #582C00",
"u  c #603000",
"i  c #613000",
"p  c #623100",
"a  c #633100",
"s  c #653200",
"d  c #6E3700",
"f  c #6F3800",
"g  c #753A00",
"h  c #753B00",
"j  c #773B00",
"k  c #793D00",
"l  c #7B3E00",
"z  c #7D3E00",
"x  c #874400",
"c  c #954B00",
"v  c #964C00",
"b  c #974C00",
"n  c #9A4D00",
"m  c #A45200",
"M  c #A55200",
"N  c #A55300",
"B  c #A65300",
"V  c #A75400",
"C  c #A95400",
"Z  c #BC5E00",
"A  c #BD5E00",
"S  c #BE5F00",
"D  c #C06000",
"F  c #C16100",
"G  c #C26100",
"H  c #C66300",
"J  c #C96400",
"K  c #CE6700",
"L  c #CF6800",
"P  c #D06800",
"I  c #D16900",
"U  c #D56B00",
"Y  c #D66B00",
"T  c #D86C00",
"R  c #DA6D00",
"E  c #DC6E00",
"W  c #DF7000",
"Q  c #E27100",
"!  c #E57200",
"~  c #E57300",
"^  c #EA7500",
"/  c #ED7600",
"(  c #EC7700",
")  c #EE7700",
"_  c #EF7800",
"`  c #F27900",
"'  c #F77B00",
"]  c #F97C00",
"[  c #FA7D00",
"{  c #FB7D00",
"}  c #FB7E00",
"|  c #FC7E00",
" . c #FD7E00",
".. c #FD7F00",
"X. c #FE7F00",
"o. c #FF7F00",
"O. c #FF8000",
"+. c #FF8100",
"@. c None",
/* pixels */
"@.@.@.@.@.@.@.@.@.@.@.@.@.@.@.@.@.@.@.@.@.@.@.@.@.@.@.@.@.@.@.@.@.@.@.@.@.@.@.@.@.",
"@.@.@.@.@.@.@.@.@.@.@.@.@.@.@.@.@.@.@.@.@.@.@.@.@.@.@.@.@.@.@.@.@.@.@.@.@.@.@.@.@.",
"@.@.@.@.@.@.@.@.@.@.@.@.@.@.@.@.@.@.@.@.@.@.@.@.@.@.@.@.@.@.@.@.@.@.@.@.@.@.@.@.@.",
"@.@.@.@.@.@.@.@.@.@.@.@.@.@.@.@.@.@.@.@.@.@.@.@.@.@.@.@.@.@.@.@.@.@.@.@.@.@.@.@.@.",
"@.@.@.@.@.@.@.                                              @.@.@.@.@.@.@.@.@.@.@.",
"@.@.@.@.@.@.@.                                              @.@.@.@.@.@.@.@.@.@.@.",
"@.@.@.@.@.@.@.                                              @.@.@.@.@.@.@.@.@.@.@.",
"@.@.@.@.@.@.        9 g h h h h h h h h h h h h j y +       @.@.@.@.@.@.@.@.@.@.@.",
"@.@.@.              p [ } } } } } } } } } } } } o.S %             @.@.@.@.@.@.@.@.",
"@.@.@.              i ] { [ [ [ [ [ [ [ [ [ [ [ X.A %             @.@.@.@.@.@.@.@.",
"@.@.@.      . @ # O s ] [ [ [ [ [ [ [ [ [ [ [ [ ..S ; @ # O       @.@.@.@.@.@.@.@.",
"@.@.@.      5 n B m H [ [ [ [ [ [ [ [ [ [ [ [ [ } ! C M V p .             @.@.@.@.",
"@.@.@.      e ) O.X. .[ [ [ [ [ [ [ [ [ [ [ [ [ [ } X.X.+.b o             @.@.@.@.",
"@.@.@.      w ^ } [ [ [ [ [ { | | | | | | } [ [ [ [ [ [ X.c o             @.@.@.@.",
"@.@.@.      w ^ } [ [ [ [ [ / Q Q Q Q Q Q ~ ' [ [ [ [ [ X.c o             @.@.@.@.",
"@.@.@.      w ^ } [ [ [ [ [ x 6 8 8 8 8 7 t E | [ [ [ [ X.c o             @.@.@.@.",
"@.@.@.      w ^ } [ [ [ [ [ d             1 U | [ [ [ [ X.c o             @.@.@.@.",
"@.@.@.      w ^ } [ [ [ [ [ f             3 Y | [ [ [ [ X.c o             @.@.@.@.",
"@.@.@.      w ^ } [ [ [ [ [ f             3 Y | [ [ [ [ X.c o             @.@.@.@.",
"@.@.@.      w ^ } [ [ [ [ [ f             3 Y | [ [ [ [ X.c o             @.@.@.@.",
"@.@.@.      w ^ } [ [ [ [ [ f             3 Y | [ [ [ [ X.c o             @.@.@.@.",
"@.@.@.      w ^ } [ [ [ [ [ f             3 Y | [ [ [ [ X.c o             @.@.@.@.",
"@.@.@.      w ^ } [ [ [ [ [ f             3 Y | [ [ [ [ X.c o             @.@.@.@.",
"@.@.@.      w ^ } [ [ [ [ [ f             3 Y | [ [ [ [ X.c o             @.@.@.@.",
"@.@.@.      w ^ } [ [ [ [ [ f             3 Y | [ [ [ [ X.c o             @.@.@.@.",
"@.@.@.      w ^ } [ [ [ [ [ f             3 Y | [ [ [ [ X.c o             @.@.@.@.",
"@.@.@.      w ^ } [ [ [ [ [ f             3 Y | [ [ [ [ X.c o             @.@.@.@.",
"@.@.@.      w ^ } [ [ [ [ [ f             3 Y | [ [ [ [ X.c o             @.@.@.@.",
"@.@.@.      w ^ } [ [ [ [ [ f             2 Y | [ [ [ [ X.c o             @.@.@.@.",
"@.@.@.      w ^ } [ [ [ [ [ k = - - - - = 0 T | [ [ [ [ X.c o             @.@.@.@.",
"@.@.@.      w ^ } [ [ [ [ [ R F F F F F F J ` { [ [ [ [ X.c o             @.@.@.@.",
"@.@.@.      w ^ } [ [ [ [ [ | ..............{ [ [ [ [ [ X.c o             @.@.@.@.",
"@.@.@.      w ( X. .| [ [ [ [ [ [ [ [ [ [ [ [ [ [ {  . .O.v o             @.@.@.@.",
"@.@.@.      q F L K W [ [ [ [ [ [ [ [ [ [ [ [ [ { _ P K I l X             @.@.@.@.",
"@.@.@.      + > < : f ] [ [ [ [ [ [ [ [ [ [ [ [  .G 4 , < *               @.@.@.@.",
"@.@.@.              u ] [ [ [ [ [ [ [ [ [ [ [ [ X.Z $                     @.@.@.@.",
"@.@.@.              a  .o.X.X.X.X.X.X.X.X.X.X.X.+.D &                     @.@.@.@.",
"@.@.@.              r m N M M M M M M M M M M M V z #                     @.@.@.@.",
"@.@.@.@.@.@.@.      X # # # # # # # # # # # # # # +                       @.@.@.@.",
"@.@.@.@.@.@.@.                                                            @.@.@.@.",
"@.@.@.@.@.@.@.                                                            @.@.@.@.",
"@.@.@.@.@.@.@.@.@.@.                                                @.@.@.@.@.@.@.",
"@.@.@.@.@.@.@.@.@.@.@.                                            @.@.@.@.@.@.@.@.",
"@.@.@.@.@.@.@.@.@.@.@.                                            @.@.@.@.@.@.@.@.",
"@.@.@.@.@.@.@.@.@.@.@.                                            @.@.@.@.@.@.@.@.",
"@.@.@.@.@.@.@.@.@.@.@.@.@.@.@.@.@.@.@.@.@.@.@.@.@.@.@.@.@.@.@.@.@.@.@.@.@.@.@.@.@.",
"@.@.@.@.@.@.@.@.@.@.@.@.@.@.@.@.@.@.@.@.@.@.@.@.@.@.@.@.@.@.@.@.@.@.@.@.@.@.@.@.@.",
"@.@.@.@.@.@.@.@.@.@.@.@.@.@.@.@.@.@.@.@.@.@.@.@.@.@.@.@.@.@.@.@.@.@.@.@.@.@.@.@.@.",
"@.@.@.@.@.@.@.@.@.@.@.@.@.@.@.@.@.@.@.@.@.@.@.@.@.@.@.@.@.@.@.@.@.@.@.@.@.@.@.@.@."
};
