/* XPM */
static char *result[] = {
/* columns rows colors chars-per-pixel */
"41 49 81 1 ",
"  c black",
". c #020100",
"X c #030100",
"o c #030200",
"O c #040200",
"+ c #050200",
"@ c #050300",
"# c #060300",
"$ c #070400",
"% c #080400",
"& c #0F0800",
"* c #100800",
"= c #120900",
"- c #1B0E00",
"; c #251200",
": c #2A1500",
"> c #2B1500",
", c #2D1600",
"< c #371C00",
"1 c #381C00",
"2 c #391C00",
"3 c #391D00",
"4 c #3B1D00",
"5 c #442200",
"6 c #492500",
"7 c #4E2700",
"8 c #4F2800",
"9 c #502800",
"0 c #592D00",
"q c #5A2D00",
"w c #5D2F00",
"e c #643200",
"r c #653300",
"t c #673400",
"y c #743A00",
"u c #753B00",
"i c #763B00",
"p c #773C00",
"a c #793D00",
"s c #8E4700",
"d c #954A00",
"f c #954B00",
"g c #984C00",
"h c #9B4D00",
"j c #9C4E00",
"k c #9D4F00",
"l c #9E5000",
"z c #A45200",
"x c #A55200",
"c c #A65300",
"v c #AC5600",
"b c #C26100",
"n c #C36100",
"m c #D06800",
"M c #D86C00",
"N c #DA6D00",
"B c #E27100",
"V c #E47200",
"C c #E57200",
"Z c #E77400",
"A c #EA7500",
"S c #EA7600",
"D c #EB7600",
"F c #ED7700",
"G c #F17900",
"H c #F67B00",
"J c #F77B00",
"K c #F77C00",
"L c #F87C00",
"P c #F97C00",
"I c #F97D00",
"U c #FA7D00",
"Y c #FB7D00",
"T c #FB7E00",
"R c #FC7E00",
"E c #FD7E00",
"W c #FD7F00",
"Q c #FE7F00",
"! c #FF8000",
"~ c #FF8100",
"^ c None",
/* pixels */
"^^^^^^^^^^^^^^^^^^^^^^^^^^^^^^^^^^^^^^^^^",
"^^^^^^^^^^^^^^^^^^^^^^^^^^^^^^^^^^^^^^^^^",
"^^^^^^^^^^^^^^^^^^^^^^^^^^^^^^^^^^^^^^^^^",
"^^^^^^^^^^^^^^^^^^^^^^^^^^^^^^^^^^^^^^^^^",
"^^^^^^^^^^^^^^^^^^^^^^^^^^^^^^^^^^^^^^^^^",
"^^^^^^^^^^^^^^^^^^^^^^^^^^^^^^^^^^^^^^^^^",
"^^^^^^^^^^^^^^^^^^^^^^^^^^^^^^^^^^^^^^^^^",
"^^^^^^^^^^^^^^^^^^^^^^^^^^^^^^^^^^^^^^^^^",
"^^^^^^               ^^^^^^^^^^^^^^^^^^^^",
"^^^^^^               ^^^^^^^^^^^^^^^^^^^^",
"^^^^^^   .$%%%%%%O   ^^^^^^^^^^^^^^^^^^^^",
"^^^^^^   ;gcxxxxc7       ^^^^^^^^^^^^^^^^",
"^^^^^^   1S!QQQQ!a       ^^^^^^^^^^^^^^^^",
"^^^^^^   <ZRUUUUTp       ^^^^^^^^^^^^^^^^",
"^^^^^^   <ZRUUUUTp       ^^^^^^^^^^^^^^^^",
"^^^^^^   <ZRUUUUTp       ^^^^^^^^^^^^^^^^",
"^^^^^^   <ZRUUUUTp       ^^^^^^^^^^^^^^^^",
"^^^^^^   <ZRUUUUTp       ^^^^^^^^^^^^^^^^",
"^^^^^^   <ZRUUUUTp       ^^^^^^^^^^^^^^^^",
"^^^^^^   <ZRUUUUTp               ^^^^^^^^",
"^^^^^^   <ZRUUUUTp               ^^^^^^^^",
"^^^^^^   <ZRUUUUTu               ^^^^^^^^",
"^^^^^^   <ZRUUUUYverrrrrrrrt8#   ^^^^^^^^",
"^^^^^^   <ZRUUUUUIPPPPPPPPPRb*      ^^^^^",
"^^^^^^   <ZRUUUUUUUUUUUUUUUQn&      ^^^^^",
"^^^^^^   <ZRUUUUUUUUUUUUUUUWn=Xo.   ^^^^^",
"^^^^^^   <ZRUUUUUUUUUUUUUUUTVhdgwX      ^",
"^^^^^^   <ZRUUUUUUUUUUUUUUUUYQQ~l@      ^",
"^^^^^^   <ZRUUUUUYTTTTTTTUUUUUUQj@      ^",
"^^^^^^   <ZRUUUUUGAAAAAADKUUUUUQj@      ^",
"^^^^^^   <ZRUUUUTf2444439NRUUUUQj@      ^",
"^^^^^^   <ZRUUUUTu      -mEUUUUQj@      ^",
"^^^^^^   <ZRUUUUTi      -mEUUUUQj@      ^",
"^^^^^^   <ZRUUUUTs>,,,,>5MRUUUUQj@      ^",
"^^^^^^   <ZRUUUUUFBBBBBBCHUUUUUQj@      ^",
"^^^^^^   <ZRUUUUUYRRRRRRTUUUUUUQj@      ^",
"^^^^^^   1S!QEUUUUUUUUUUUUUUUUUQj@      ^",
"^^^^^^   ;gcznPUUUUUUUUUUUUUUUUQj@      ^",
"^^^^^^   .$%OwJUUUUUUUUUUUUUUUUQj@      ^",
"^^^^^^       0JYUUUUUUUUUUUUUUUQj@      ^",
"^^^^^^       qLRTTTTTTTTTTTTTTT!k+      ^",
"^^^^^^^^^    :yuuuuuuuuuuuuuuuup6.      ^",
"^^^^^^^^^^                              ^",
"^^^^^^^^^^                              ^",
"^^^^^^^^^^                              ^",
"^^^^^^^^^^^^^                        ^^^^",
"^^^^^^^^^^^^^^                      ^^^^^",
"^^^^^^^^^^^^^^                      ^^^^^",
"^^^^^^^^^^^^^^                      ^^^^^"
};
