/* XPM */
static char *result[] = {
/* columns rows colors chars-per-pixel */
"41 49 136 2 ",
"   c black",
".  c #020100",
"X  c #030100",
"o  c #030200",
"O  c #040200",
"+  c #050200",
"@  c #050300",
"#  c #060300",
"$  c #070400",
"%  c #080400",
"&  c #0A0500",
"*  c #0B0500",
"=  c #0C0600",
"-  c #0E0700",
";  c #0F0700",
":  c #0F0800",
">  c #100800",
",  c #110800",
"<  c #110900",
"1  c #140A00",
"2  c #160B00",
"3  c #170B00",
"4  c #180C00",
"5  c #1A0D00",
"6  c #1B0E00",
"7  c #1C0E00",
"8  c #1F1000",
"9  c #251200",
"0  c #261300",
"q  c #2A1500",
"w  c #2B1500",
"e  c #2C1600",
"r  c #2D1600",
"t  c #2E1700",
"y  c #371C00",
"u  c #381C00",
"i  c #391C00",
"p  c #391D00",
"a  c #3B1D00",
"s  c #3B1E00",
"d  c #3F2000",
"f  c #442200",
"g  c #502800",
"h  c #572B00",
"j  c #582C00",
"k  c #592C00",
"l  c #592D00",
"z  c #5A2D00",
"x  c #5B2E00",
"c  c #5D2F00",
"v  c #5E2F00",
"b  c #633200",
"n  c #643200",
"m  c #653300",
"M  c #663300",
"N  c #673400",
"B  c #683400",
"V  c #6F3700",
"C  c #743A00",
"Z  c #753B00",
"A  c #763B00",
"S  c #773B00",
"D  c #783D00",
"F  c #804000",
"G  c #814100",
"H  c #8E4700",
"J  c #954B00",
"K  c #984C00",
"L  c #9A4D00",
"P  c #9A4E00",
"I  c #9C4E00",
"U  c #9C4F00",
"Y  c #9E4F00",
"T  c #9E5000",
"R  c #A35200",
"E  c #A45200",
"W  c #A55200",
"Q  c #A55300",
"!  c #A65300",
"~  c #A75400",
"^  c #A85400",
"/  c #AA5500",
"(  c #AC5600",
")  c #B25A00",
"_  c #BE6000",
"`  c #C16100",
"'  c #C26100",
"]  c #C36100",
"[  c #C36200",
"{  c #C46200",
"}  c #C46300",
"|  c #C56300",
" . c #C66300",
".. c #C76300",
"X. c #C86400",
"o. c #CE6700",
"O. c #D06800",
"+. c #D06900",
"@. c #D16900",
"#. c #D26900",
"$. c #D36A00",
"%. c #D66B00",
"&. c #D86C00",
"*. c #D96C00",
"=. c #DA6D00",
"-. c #DC6E00",
";. c #DE6F00",
":. c #E27100",
">. c #E57200",
",. c #E47300",
"<. c #E77400",
"1. c #E97500",
"2. c #EA7500",
"3. c #EA7600",
"4. c #EB7600",
"5. c #ED7700",
"6. c #F07800",
"7. c #F17800",
"8. c #F17900",
"9. c #F67B00",
"0. c #F77B00",
"q. c #F77C00",
"w. c #F87C00",
"e. c #F97C00",
"r. c #F97D00",
"t. c #FA7D00",
"y. c #FB7D00",
"u. c #FB7E00",
"i. c #FC7E00",
"p. c #FD7E00",
"a. c #FD7F00",
"s. c #FE7F00",
"d. c #FF7F00",
"f. c #FF8000",
"g. c #FF8100",
"h. c None",
/* pixels */
"h.h.h.h.h.h.h.h.h.h.h.h.h.h.h.h.h.h.h.h.h.h.h.h.h.h.h.h.h.h.h.h.h.h.h.h.h.h.h.h.h.",
"h.h.h.h.h.h.h.h.h.h.h.h.h.h.h.h.h.h.h.h.h.h.h.h.h.h.h.h.h.h.h.h.h.h.h.h.h.h.h.h.h.",
"h.h.h.h.h.h.h.h.h.h.h.h.h.h.h.h.h.h.h.h.h.h.h.h.h.h.h.h.h.h.h.h.h.h.h.h.h.h.h.h.h.",
"h.h.h.h.h.h.h.h.h.h.h.h.h.h.h.h.h.h.h.h.h.h.h.h.h.h.h.h.h.h.h.h.h.h.h.h.h.h.h.h.h.",
"h.h.h.h.h.h.h.h.h.h.                                              h.h.h.h.h.h.h.h.",
"h.h.h.h.h.h.h.h.h.h.                                              h.h.h.h.h.h.h.h.",
"h.h.h.h.h.h.h.h.h.h.                                              h.h.h.h.h.h.h.h.",
"h.h.h.h.h.h.h.h.h.        q C Z Z Z Z Z Z Z Z Z Z Z Z S x $       h.h.h.h.h.h.h.h.",
"h.h.h.h.h.h.              z w.i.u.u.u.u.u.u.u.u.u.u.u.d.{ >             h.h.h.h.h.",
"h.h.h.h.h.h.              l 0.y.t.t.t.t.t.t.t.t.t.t.t.s.] :             h.h.h.h.h.",
"h.h.h.h.h.h.      . $ % O c 0.t.t.t.t.t.t.t.t.t.t.t.t.a.{ 2 $ % +       h.h.h.h.h.",
"h.h.h.h.h.h.      9 K ! E ] e.t.t.t.t.t.t.t.t.t.t.t.t.u.<./ W ^ N o             h.",
"h.h.h.h.h.h.      u 3.f.s.p.t.t.t.t.t.t.t.t.t.t.t.t.t.t.y.s.s.g.T @             h.",
"h.h.h.h.h.h.      y <.i.t.t.t.t.t.y.i.i.i.i.i.i.u.t.t.t.t.t.t.s.I @             h.",
"h.h.h.h.h.h.      y <.i.t.t.t.t.t.5.:.:.:.:.:.:.>.9.t.t.t.t.t.s.I @             h.",
"h.h.h.h.h.h.      y <.i.t.t.t.t.u.H w r r r r w f &.i.t.t.t.t.s.I @             h.",
"h.h.h.h.h.h.      y <.i.t.t.t.t.u.A             6 O.p.t.t.t.t.s.I @             h.",
"h.h.h.h.h.h.      u 1.f.a.i.t.t.u.Z             6 O.p.t.y.a.a.g.Y @             h.",
"h.h.h.h.h.h.      w ) [ ` %.r.t.u.J i a a a a p g =.i.y.5.| ` } D O             h.",
"h.h.h.h.h.h.      O > < - n 0.t.t.8.2.2.2.2.2.2.4.q.t.p...8 > < *               h.",
"h.h.h.h.h.h.              k 0.t.t.y.u.u.u.u.u.u.u.t.t.a.] ;                     h.",
"h.h.h.h.h.h.              h 0.t.t.t.t.t.t.t.t.t.t.t.t.a.' =                     h.",
"h.h.h.h.h.h.      3 v M b L w.t.t.t.t.t.t.t.t.t.t.t.t.i.*.V m N d .             h.",
"h.h.h.h.h.h.      y ,.t.e.e.t.t.t.t.t.t.t.t.t.t.t.t.t.t.t.e.e.i.P +             h.",
"h.h.h.h.h.h.      u <.i.t.t.t.t.t.t.t.t.t.t.t.t.t.t.t.t.t.t.t.s.U @             h.",
"h.h.h.h.h.h.      y <.i.t.t.t.t.t.r.e.e.e.e.e.e.e.t.t.t.t.t.t.s.I @             h.",
"h.h.h.h.h.h.      y <.i.t.t.t.t.y.( n m m m m n S :.i.t.t.t.t.s.I @             h.",
"h.h.h.h.h.h.      y <.i.t.t.t.t.u.Z             5 O.p.t.t.t.t.s.I @             h.",
"h.h.h.h.h.h.      y <.i.t.t.t.t.u.A             7 +.p.t.t.t.t.s.I @             h.",
"h.h.h.h.h.h.      y <.i.t.t.t.t.u.F : , , , , : e $.i.t.t.t.t.s.I @             h.",
"h.h.h.h.h.h.      y <.i.t.t.t.t.t.-.` ` ` ` ` ` X.7.y.t.t.t.t.s.I @             h.",
"h.h.h.h.h.h.      y <.i.t.t.t.t.t.i.a.a.a.a.a.a.a.y.t.t.t.t.t.s.I @             h.",
"h.h.h.h.h.h.      u 1.s.p.i.t.t.t.t.t.t.t.t.t.t.t.t.t.t.y.p.p.g.Y @             h.",
"h.h.h.h.h.h.      t _ O.o.;.r.t.t.t.t.t.t.t.t.t.t.t.t.y.6.@.o.#.G O             h.",
"h.h.h.h.h.h.      @ 2 4 1 B q.t.t.t.t.t.t.t.t.t.t.t.t.p.X.0 3 4 ;               h.",
"h.h.h.h.h.h.              j 0.t.t.t.t.t.t.t.t.t.t.t.t.a.] -                     h.",
"h.h.h.h.h.h.              x y.d.s.s.s.s.s.s.s.s.s.s.s.g. .>                     h.",
"h.h.h.h.h.h.              s R Q W W W W W W W W W W W ~ G &                     h.",
"h.h.h.h.h.h.h.h.h.h.      X % % % % % % % % % % % % % % #                       h.",
"h.h.h.h.h.h.h.h.h.h.                                                            h.",
"h.h.h.h.h.h.h.h.h.h.                                                            h.",
"h.h.h.h.h.h.h.h.h.h.h.h.h.                                                h.h.h.h.",
"h.h.h.h.h.h.h.h.h.h.h.h.h.h.                                            h.h.h.h.h.",
"h.h.h.h.h.h.h.h.h.h.h.h.h.h.                                            h.h.h.h.h.",
"h.h.h.h.h.h.h.h.h.h.h.h.h.h.                                            h.h.h.h.h.",
"h.h.h.h.h.h.h.h.h.h.h.h.h.h.h.h.h.h.h.h.h.h.h.h.h.h.h.h.h.h.h.h.h.h.h.h.h.h.h.h.h.",
"h.h.h.h.h.h.h.h.h.h.h.h.h.h.h.h.h.h.h.h.h.h.h.h.h.h.h.h.h.h.h.h.h.h.h.h.h.h.h.h.h.",
"h.h.h.h.h.h.h.h.h.h.h.h.h.h.h.h.h.h.h.h.h.h.h.h.h.h.h.h.h.h.h.h.h.h.h.h.h.h.h.h.h.",
"h.h.h.h.h.h.h.h.h.h.h.h.h.h.h.h.h.h.h.h.h.h.h.h.h.h.h.h.h.h.h.h.h.h.h.h.h.h.h.h.h."
};
