/* XPM */
static char *result[] = {
/* columns rows colors chars-per-pixel */
"41 49 76 1 ",
"  c black",
". c #020100",
"X c #030100",
"o c #030200",
"O c #040200",
"+ c #060300",
"@ c #070300",
"# c #070400",
"$ c #080400",
"% c #0A0500",
"& c #0E0700",
"* c #2A1500",
"= c #2D1600",
"- c #2F1700",
"; c #2F1800",
": c #361B00",
"> c #381C00",
", c #391C00",
"< c #3B1D00",
"1 c #3B1E00",
"2 c #422100",
"3 c #482400",
"4 c #4D2600",
"5 c #4F2800",
"6 c #502800",
"7 c #522900",
"8 c #532A00",
"9 c #552A00",
"0 c #5F3000",
"q c #633200",
"w c #653300",
"e c #673400",
"r c #703800",
"t c #753B00",
"y c #763B00",
"u c #773C00",
"i c #783C00",
"p c #793C00",
"a c #7A3D00",
"s c #7E3F00",
"d c #7F4000",
"f c #824100",
"g c #954A00",
"h c #964B00",
"j c #974B00",
"k c #A25100",
"l c #A25200",
"z c #A35200",
"x c #A45200",
"c c #A55200",
"v c #A55300",
"b c #A65300",
"n c #A75300",
"m c #D06800",
"M c #D76B00",
"N c #DC6E00",
"B c #E27100",
"V c #E77300",
"C c #EA7500",
"Z c #EB7500",
"A c #ED7700",
"S c #EF7800",
"D c #F57A00",
"F c #F67B00",
"G c #F77B00",
"H c #F87C00",
"J c #F97C00",
"K c #FA7D00",
"L c #FB7D00",
"P c #FB7E00",
"I c #FC7E00",
"U c #FD7F00",
"Y c #FE7F00",
"T c #FF7F00",
"R c #FF8000",
"E c None",
/* pixels */
"EEEEEEEEEEEEEEEEEEEEEEEEEEEEEEEEEEEEEEEEE",
"EEEEEEEEEEEEEEEEEEEEEEEEEEEEEEEEEEEEEEEEE",
"EEEEEEEEEEEEEEEEEEEEEEEEEEEEEEEEEEEEEEEEE",
"EEEEEEEEEEEEEEEEEEEEEEEEEEEEEEEEEEEEEEEEE",
"EE                      EEEEEEEEEEEEEEEEE",
"EE                      EEEEEEEEEEEEEEEEE",
"EE                      EEEEEEEEEEEEEEEEE",
"E   o4utttttttttttty1    EEEEEEEEEEEEEEEE",
"    #xRPPPPPPPPPPPPUd       EEEEEEEEEEEEE",
"    +zYKKKKKKKKKKKKIs       EEEEEEEEEEEEE",
" O$#&vYKKKKKKKKKKKKIf@$$X   EEEEEEEEEEEEE",
" 5bcnNPKKKKKKKKKKKKLmcbk:       EEEEEEEEE",
" aRYYPKKKKKKKKKKKKKKIYTK8       EEEEEEEEE",
" iIKKKKKKPIIIIIIPKKKKKKD7       EEEEEEEEE",
" iIKKKKKHVBBBBBBCKKKKKKD7       EEEEEEEEE",
" iIKKKKLC9*====*rFKKKKKD7       EEEEEEEEE",
" iIKKKKLV;      6DKKKKKD7       EEEEEEEEE",
" iIKKKKLV-      6DKKKKKD7       EEEEEEEEE",
" iIKKKKLZ0,<<<<>pFKKKKKD7       EEEEEEEEE",
" iIKKKKKJACCCCCCSKKKKKKD7       EEEEEEEEE",
" iIKKKKKKLPPPPPPLKKKKKKD7       EEEEEEEEE",
" aRYYPKKKKKKKKKKKKKKKKKD7       EEEEEEEEE",
" 3hgjMIKKKKKKKKKKKKKKKKD7       EEEEEEEEE",
" .oX%xYKKKKKKKKKKKKKKKKD7       EEEEEEEEE",
"    @zTKKKKKKKKKKKKKKKKD7       EEEEEEEEE",
"    #lIJJJJJJJJJJKKKKKKD7       EEEEEEEEE",
"E   X2ewwwwwwwwqhGKKKKKD7       EEEEEEEEE",
"EE              5DKKKKKD7       EEEEEEEEE",
"EE              7DKKKKKD7       EEEEEEEEE",
"EE              7DKKKKKD7       EEEEEEEEE",
"EEEEE           7DKKKKKD7       EEEEEEEEE",
"EEEEE           7DKKKKKD7       EEEEEEEEE",
"EEEEE           7DKKKKKD7       EEEEEEEEE",
"EEEEE           7DKKKKKD7       EEEEEEEEE",
"EEEEEEEEEEEEE   7DKKKKKD7       EEEEEEEEE",
"EEEEEEEEEEEEE   7DKKKKKD7       EEEEEEEEE",
"EEEEEEEEEEEEE   8KTYYYTK8       EEEEEEEEE",
"EEEEEEEEEEEEE   :kbcccbk:       EEEEEEEEE",
"EEEEEEEEEEEEE   X$$$$$$$X       EEEEEEEEE",
"EEEEEEEEEEEEE                   EEEEEEEEE",
"EEEEEEEEEEEEE                   EEEEEEEEE",
"EEEEEEEEEEEEEEEE                EEEEEEEEE",
"EEEEEEEEEEEEEEEEE               EEEEEEEEE",
"EEEEEEEEEEEEEEEEE               EEEEEEEEE",
"EEEEEEEEEEEEEEEEE               EEEEEEEEE",
"EEEEEEEEEEEEEEEEEEEEEEEEEEEEEEEEEEEEEEEEE",
"EEEEEEEEEEEEEEEEEEEEEEEEEEEEEEEEEEEEEEEEE",
"EEEEEEEEEEEEEEEEEEEEEEEEEEEEEEEEEEEEEEEEE",
"EEEEEEEEEEEEEEEEEEEEEEEEEEEEEEEEEEEEEEEEE"
};
