/* XPM */
static char *result[] = {
/* columns rows colors chars-per-pixel */
"41 49 65 1 ",
"  c black",
". c #030100",
"X c #030200",
"o c #040200",
"O c #050200",
"+ c #050300",
"@ c #060300",
"# c #070400",
"$ c #080400",
"% c #0B0500",
"& c #0F0700",
"* c #0F0800",
"= c #100800",
"- c #110800",
"; c #110900",
": c #160B00",
"> c #1F1000",
", c #3B1E00",
"< c #3F1F00",
"1 c #452300",
"2 c #4B2500",
"3 c #582C00",
"4 c #592D00",
"5 c #5B2D00",
"6 c #5B2E00",
"7 c #673400",
"8 c #713800",
"9 c #733900",
"0 c #753B00",
"q c #773B00",
"w c #783D00",
"e c #854300",
"r c #864300",
"t c #8D4700",
"y c #9C4E00",
"u c #9E4F00",
"i c #9E5000",
"p c #A35200",
"a c #A55200",
"s c #A55300",
"d c #A65300",
"f c #A85400",
"g c #AA5500",
"h c #BF6000",
"j c #C16100",
"k c #C26100",
"l c #C36100",
"z c #C46200",
"x c #C46300",
"c c #C56300",
"v c #C76300",
"b c #E07000",
"n c #E77400",
"m c #ED7700",
"M c #F77B00",
"N c #FA7D00",
"B c #FB7D00",
"V c #FB7E00",
"C c #FC7E00",
"Z c #FD7E00",
"A c #FD7F00",
"S c #FE7F00",
"D c #FF7F00",
"F c #FF8100",
"G c None",
/* pixels */
"GGGGGGGGGGGGGGGGGGGGGGGGGGGGGGGGGGGGGGGGG",
"GGGGGGGGGGGGGGGGGGGGGGGGGGGGGGGGGGGGGGGGG",
"GGGGGGGGGGGGGGGGGGGGGGGGGGGGGGGGGGGGGGGGG",
"GGGGGGGGGGGGGGGGGGGGGGGGGGGGGGGGGGGGGGGGG",
"GGGGGGGG                   GGGGGGGGGGGGGG",
"GGGGGGGG                   GGGGGGGGGGGGGG",
"GGGGGGGG                   GGGGGGGGGGGGGG",
"GGGGGGGG   #6q00000000q<    GGGGGGGGGGGGG",
"GGGGG      =zDVVVVVVVVSr       GGGGGGGG  ",
"GGGGG      *lSNNNNNNNNAr       GGGGGGGG  ",
"GGGGG   O$#:zANNNNNNNNAr       GGGGGGGG  ",
"GGGGG  X7fagnVNNNNNNNNAr       GGGGGGGG  ",
"GGGGG  +iFSSBNNNNNNNNNAr       GGGGGGGG  ",
"GGGGG  +ySNNNNNNNNNNNNAr       GGGGGGGG  ",
"GGGGG  +ySNNNNNNNNNNNNAr       GGGGGGGG  ",
"GGGGG  +ySNNNNNNNNNNNNAr       GGGGGGGG  ",
"GGGGG  +ySNNNNNNNNNNNNAr       GGGGGGGG  ",
"GGGGG  +uFAABNNNNNNNNNAr       GGGGGGGG  ",
"GGGGG  owxjcmBNNNNNNNNAr       GGGGGGGG  ",
"GGGGG   %;=>vZNNNNNNNNAr       GGGGGGGG  ",
"GGGGG      &lANNNNNNNNAr       GGGGGGGG  ",
"GGGGG      =lANNNNNNNNAr       GGGGGGGG  ",
"GGGGG      =lANNNNNNNNAr       GGGGGGGG  ",
"GGGGGGGG   =lANNNNNNNNAr       GGGGGGGG  ",
"GGGGGGGG   =lANNNNNNNNAr       GGGGGGGG  ",
"GGGGGGGG   =lANNNNNNNNAr       GGGGGGGG  ",
"G          =lANNNNNNNNAr          GGGGGGG",
"G          =lANNNNNNNNAr           GGGGGG",
"G          &lANNNNNNNNAe           GGGGGG",
"G   $-----=>vZNNNNNNNNAt---@       GGGGGG",
"G   3kkjjjjcmBNNNNNNNNBbjkh1       GGGGGG",
"G   9SSAAAAABNNNNNNNNNNCASB5       GGGGGG",
"G   8BNNNNNNNNNNNNNNNNNNNNM4       GGGGGG",
"G   8BNNNNNNNNNNNNNNNNNNNNM4       GGGGGG",
"G   8BNNNNNNNNNNNNNNNNNNNNM4       GGGGGG",
"G   8BNNNNNNNNNNNNNNNNNNNNM4       GGGGGG",
"G   9DSSSSSSSSSSSSSSSSSSSDB6       GGGGGG",
"G   2dsaaaaaaaaaaaaaaaaaasp,       GGGGGG",
"G   X$$$$$$$$$$$$$$$$$$$$$$.       GGGGGG",
"G                                  GGGGGG",
"G                                  GGGGGG",
"GGGG                               GGGGGG",
"GGGGG                              GGGGGG",
"GGGGG                              GGGGGG",
"GGGGG                              GGGGGG",
"GGGGGGGGGGGGGGGGGGGGGGGGGGGGGGGGGGGGGGGGG",
"GGGGGGGGGGGGGGGGGGGGGGGGGGGGGGGGGGGGGGGGG",
"GGGGGGGGGGGGGGGGGGGGGGGGGGGGGGGGGGGGGGGGG",
"GGGGGGGGGGGGGGGGGGGGGGGGGGGGGGGGGGGGGGGGG"
};
