/* XPM */
static char *result[] = {
/* columns rows colors chars-per-pixel */
"41 49 122 2 ",
"   c black",
".  c #010000",
"X  c #010100",
"o  c #020100",
"O  c #030200",
"+  c #040200",
"@  c #050200",
"#  c #070300",
"$  c #070400",
"%  c #080400",
"&  c #090500",
"*  c #0A0500",
"=  c #0B0600",
"-  c #0E0700",
";  c #100800",
":  c #110800",
">  c #110900",
",  c #130900",
"<  c #170C00",
"1  c #180C00",
"2  c #1A0D00",
"3  c #1C0E00",
"4  c #211100",
"5  c #261300",
"6  c #271400",
"7  c #291500",
"8  c #2B1500",
"9  c #2D1600",
"0  c #2D1700",
"q  c #2F1700",
"w  c #311900",
"e  c #341A00",
"r  c #3A1D00",
"t  c #3C1E00",
"y  c #3D1E00",
"u  c #3D1F00",
"i  c #3E1F00",
"p  c #3F2000",
"a  c #412100",
"s  c #432200",
"d  c #4A2500",
"f  c #502800",
"g  c #572B00",
"h  c #582C00",
"j  c #592D00",
"k  c #5D2F00",
"l  c #5F3000",
"z  c #613000",
"x  c #613100",
"c  c #623100",
"v  c #633200",
"b  c #653300",
"n  c #663300",
"m  c #663400",
"M  c #683400",
"N  c #693500",
"B  c #6A3500",
"V  c #733A00",
"C  c #753A00",
"Z  c #753B00",
"A  c #844200",
"S  c #894500",
"D  c #8B4600",
"F  c #8D4700",
"G  c #8E4700",
"H  c #8F4800",
"J  c #944A00",
"K  c #964B00",
"L  c #964C00",
"P  c #974C00",
"I  c #9E4F00",
"U  c #A45200",
"Y  c #A55200",
"T  c #A65300",
"R  c #A75400",
"E  c #B55A00",
"W  c #B95D00",
"Q  c #BC5E00",
"!  c #BF5F00",
"~  c #C16000",
"^  c #C16100",
"/  c #C26100",
"(  c #C46200",
")  c #C66300",
"_  c #CD6700",
"`  c #CE6700",
"'  c #CF6800",
"]  c #D16900",
"[  c #D86D00",
"{  c #DB6E00",
"}  c #E17100",
"|  c #E27100",
" . c #E37100",
".. c #E37200",
"X. c #E77300",
"o. c #E87400",
"O. c #EA7500",
"+. c #EC7600",
"@. c #ED7600",
"#. c #ED7700",
"$. c #EE7700",
"%. c #EF7700",
"&. c #F07800",
"*. c #F17800",
"=. c #F47A00",
"-. c #F57A00",
";. c #F67B00",
":. c #F77C00",
">. c #F87C00",
",. c #F97C00",
"<. c #F97D00",
"1. c #FA7D00",
"2. c #FB7D00",
"3. c #FB7E00",
"4. c #FC7D00",
"5. c #FC7E00",
"6. c #FD7E00",
"7. c #FD7F00",
"8. c #FE7F00",
"9. c #FF7F00",
"0. c #FF8100",
"q. c None",
/* pixels */
"q.q.q.q.q.q.q.q.q.q.q.q.q.q.q.q.q.q.q.q.q.q.q.q.q.q.q.q.q.q.q.q.q.q.q.q.q.q.q.q.q.",
"q.q.q.q.q.q.q.q.q.q.q.q.q.q.q.q.q.q.q.q.q.q.q.q.q.q.q.q.q.q.q.q.q.q.q.q.q.q.q.q.q.",
"q.q.q.q.q.q.q.q.q.q.q.q.q.q.q.q.q.q.q.q.q.q.q.q.q.q.q.q.q.q.q.q.q.q.q.q.q.q.q.q.q.",
"q.q.q.q.q.q.q.q.q.q.q.q.q.q.q.q.q.q.q.q.q.q.q.q.q.q.q.q.q.q.q.q.q.q.q.q.q.q.q.q.q.",
"q.q.q.q.q.q.q.q.q.q.q.q.q.q.q.q.q.q.q.q.q.q.q.q.q.q.q.q.q.q.q.q.q.q.q.q.q.q.q.q.q.",
"q.q.q.q.q.q.q.q.q.q.q.q.q.q.q.q.q.q.q.q.q.q.q.q.q.q.q.q.q.q.q.q.q.q.q.q.q.q.q.q.q.",
"q.q.q.q.q.q.q.q.q.q.q.q.q.q.q.q.q.q.q.q.q.q.q.q.q.q.q.q.q.q.q.q.q.q.q.q.q.q.q.q.q.",
"q.q.q.q.q.q.q.q.q.q.q.q.q.q.q.q.q.q.q.q.q.q.q.q.q.q.q.q.q.q.q.q.q.q.q.q.q.q.q.q.q.",
"q.q.q.q.q.q.q.q.                                            q.q.q.q.q.q.q.q.q.q.q.",
"q.q.q.q.q.q.q.q.                                            q.q.q.q.q.q.q.q.q.q.q.",
"q.q.q.q.q.q.q.q.      @ % % % % % % % % % % % % % % +       q.q.q.q.q.q.q.q.q.q.q.",
"q.q.q.q.            o c R Y Y Y Y Y Y Y Y Y Y Y Y R k .             q.q.q.q.q.q.q.",
"q.q.q.q.            O P 0.8.8.8.8.8.8.8.8.8.8.8.8.0.H o             q.q.q.q.q.q.q.",
"q.q.q.q.            o J 8.1.1.1.1.1.1.1.1.1.1.1.1.7.F               q.q.q.q.q.q.q.",
"q.q.q.q.      * 1 < 2 I 8.1.1.1.1.1.1.1.1.1.1.1.1.7.P 1 1 < &       q.q.q.q.q.q.q.",
"q.q.q.q.      g ` ' ' o.2.1.1.1.1.1.1.1.1.1.1.1.1.2.X.` ' _ f               q.q.q.",
"q.q.q.q.      B 6.7.6.3.1.1.1.1.1.1.1.1.1.1.1.1.1.1.3.6.7.4.c               q.q.q.",
"q.q.q.q.      N 1.1.1.1.1.1.1.6.7.7.7.7.7.7.6.1.1.1.1.1.1.,.x               q.q.q.",
"q.q.q.q.      N 1.1.1.1.1.1.:.' ^ ^ ^ ^ ^ ^ ] >.1.1.1.1.1.,.x               q.q.q.",
"q.q.q.q.      N 1.1.1.1.1.2.%.d - : : : : - f *.1.1.1.1.1.,.x               q.q.q.",
"q.q.q.q.      N 1.1.1.1.1.2.$.y             s *.1.1.1.1.1.,.x               q.q.q.",
"q.q.q.q.      N 1.1.1.1.1.2.$.i             a *.1.1.1.1.1.,.x               q.q.q.",
"q.q.q.q.      N 1.1.1.1.1.2.$.i     ; j m v G -.1.1.1.1.1.,.x               q.q.q.",
"q.q.q.q.      N 1.1.1.1.1.2.$.i     5 [ 2.,.,.1.1.1.1.1.1.,.x               q.q.q.",
"q.q.q.q.      N 1.2.1.1.1.2.$.u     5 { 6.1.1.1.1.1.1.1.2.,.x               q.q.q.",
"q.q.q.q.      M >.,.,.,.,.,.@.p   . 7 { 5.1.1.1.1.1.<.,.,.:.z               q.q.q.",
"q.q.q.q.      8 b b b b b b M S K J U #.2.1.1.1.1.5.W n b b 6               q.q.q.",
"q.q.q.q.                    & ! 0.8.7.1.1.1.1.1.1.8.D                       q.q.q.",
"q.q.q.q.                    = Q 8.1.1.1.1.1.1.3.3.9.G o                     q.q.q.",
"q.q.q.q.              * > ; 3 ~ 7.1.1.1.1.1.;.O.O.#.A X                     q.q.q.",
"q.q.q.q.            o V ( ^ ( +.2.1.1.1.1.6.) a r t 4                       q.q.q.",
"q.q.q.q.            O L 0.7.7.2.1.1.1.1.1.8.E #                             q.q.q.",
"q.q.q.q.            . J 8.1.1.1.1.1.1.1.1.8.E $                             q.q.q.",
"q.q.q.q.      , 9 9 q T 7.1.1.1.1.1.1.1.1.6./ e 9 9 9 9 9 9 >               q.q.q.",
"q.q.q.q.      l |  . .&.1.1.1.1.1.1.1.1.1.1.=...| | | |  .} h               q.q.q.",
"q.q.q.q.      B 4.5.5.2.1.1.1.1.1.1.1.1.1.1.1.5.5.5.5.5.5.1.c               q.q.q.",
"q.q.q.q.      N 1.1.1.1.1.1.1.1.1.1.1.1.1.1.1.1.1.1.1.1.1.,.x               q.q.q.",
"q.q.q.q.      N 1.1.1.1.1.1.1.1.1.1.1.1.1.1.1.1.1.1.1.1.1.,.x               q.q.q.",
"q.q.q.q.      N 1.1.1.1.1.1.1.1.1.1.1.1.1.1.1.1.1.1.1.1.1.,.x               q.q.q.",
"q.q.q.q.      N 1.1.1.1.1.1.1.1.1.1.1.1.1.1.1.1.1.1.1.1.2.,.x               q.q.q.",
"q.q.q.q.      B 2.3.3.3.3.3.3.3.3.3.3.3.3.3.3.3.3.3.3.3.3.1.c               q.q.q.",
"q.q.q.q.      w Z Z Z Z Z Z Z Z Z Z Z Z Z Z Z Z Z Z Z Z Z C 0               q.q.q.",
"q.q.q.q.                                                                    q.q.q.",
"q.q.q.q.                                                                    q.q.q.",
"q.q.q.q.                                                                    q.q.q.",
"q.q.q.q.q.q.q.                                                              q.q.q.",
"q.q.q.q.q.q.q.q.                                                            q.q.q.",
"q.q.q.q.q.q.q.q.                                                            q.q.q.",
"q.q.q.q.q.q.q.q.                                                            q.q.q."
};
