/* XPM */
static char *result[] = {
/* columns rows colors chars-per-pixel */
"41 49 102 2 ",
"   c black",
".  c #030100",
"X  c #030200",
"o  c #040200",
"O  c #060300",
"+  c #080400",
"@  c #0E0700",
"#  c #0F0700",
"$  c #100800",
"%  c #110800",
"&  c #140A00",
"*  c #170C00",
"=  c #180C00",
"-  c #241200",
";  c #2A1500",
":  c #2D1600",
">  c #2D1700",
",  c #2E1700",
"<  c #351A00",
"1  c #381C00",
"2  c #3B1D00",
"3  c #3B1E00",
"4  c #3C1E00",
"5  c #3F1F00",
"6  c #452300",
"7  c #482400",
"8  c #492400",
"9  c #492500",
"0  c #4A2500",
"q  c #4B2500",
"w  c #4F2800",
"e  c #562B00",
"r  c #582C00",
"t  c #592D00",
"y  c #5A2D00",
"u  c #5B2D00",
"i  c #5B2E00",
"p  c #633200",
"a  c #643200",
"s  c #653300",
"d  c #663300",
"f  c #673300",
"g  c #673400",
"h  c #6A3500",
"j  c #713800",
"k  c #713900",
"l  c #723900",
"z  c #733900",
"x  c #733A00",
"c  c #753B00",
"v  c #763B00",
"b  c #773B00",
"n  c #844200",
"m  c #854300",
"M  c #864300",
"N  c #884400",
"B  c #894500",
"V  c #8D4700",
"C  c #904800",
"Z  c #924900",
"A  c #A35200",
"S  c #A55200",
"D  c #A55300",
"F  c #A65300",
"G  c #A75400",
"H  c #B55A00",
"J  c #B65B00",
"K  c #BF6000",
"L  c #C16100",
"P  c #C26100",
"I  c #C36100",
"U  c #C46200",
"Y  c #CC6600",
"T  c #CE6700",
"R  c #CF6800",
"E  c #D26900",
"W  c #E07000",
"Q  c #E27100",
"!  c #E37100",
"~  c #E37200",
"^  c #E67300",
"/  c #EA7500",
"(  c #ED7600",
")  c #EF7700",
"_  c #F37900",
"`  c #F47A00",
"'  c #F57A00",
"]  c #F67B00",
"[  c #F77B00",
"{  c #F87C00",
"}  c #F97C00",
"|  c #F97D00",
" . c #FA7D00",
".. c #FB7D00",
"X. c #FB7E00",
"o. c #FC7E00",
"O. c #FD7E00",
"+. c #FD7F00",
"@. c #FE7F00",
"#. c #FF7F00",
"$. c #FF8100",
"%. c None",
/* pixels */
"%.%.%.%.%.%.%.%.%.%.%.%.%.%.%.%.%.%.%.%.%.%.%.%.%.%.%.%.%.%.%.%.%.%.%.%.%.%.%.%.%.",
"%.%.%.%.%.%.%.%.%.%.%.%.%.%.%.%.%.%.%.%.%.%.%.%.%.%.%.%.%.%.%.%.%.%.%.%.%.%.%.%.%.",
"%.%.%.%.%.%.%.%.%.%.%.%.%.%.%.%.%.%.%.%.%.%.%.%.%.%.%.%.%.%.%.%.%.%.%.%.%.%.%.%.%.",
"%.%.%.%.%.%.%.%.%.%.%.%.%.%.%.%.%.%.%.%.%.%.%.%.%.%.%.%.%.%.%.%.%.%.%.%.%.%.%.%.%.",
"%.%.%.%.%.%.%.%.%.%.%.%.%.%.%.%.%.%.%.%.%.%.%.%.%.%.%.%.%.%.%.%.%.%.%.%.%.%.%.%.%.",
"%.%.%.%.%.%.%.%.%.%.%.%.%.%.%.%.%.%.%.%.%.%.%.%.%.%.%.%.%.%.%.%.%.%.%.%.%.%.%.%.%.",
"%.%.%.%.%.%.%.%.%.%.%.%.%.%.%.%.%.%.%.%.%.%.%.%.%.%.%.%.%.%.%.%.%.%.%.%.%.%.%.%.%.",
"%.%.%.%.%.%.%.%.%.%.%.%.%.%.%.%.%.%.%.%.%.%.%.%.%.%.%.%.%.%.%.%.%.%.%.%.%.%.%.%.%.",
"%.                                                    %.%.%.%.%.%.%.%.%.%.%.%.    ",
"%.                                                    %.%.%.%.%.%.%.%.%.%.%.%.    ",
"%.      X + + + + + + + + + + + + + + + + + + o       %.%.%.%.%.%.%.%.%.%.%.%.    ",
"%.      q F D S S S S S S S S S S S S S S S G r               %.%.%.%.%.%.%.%.    ",
"%.      z #.@.@.@.@.@.@.@.@.@.@.@.@.@.@.@.@.$.N               %.%.%.%.%.%.%.%.    ",
"%.      j .. . . . . . . . . . . . . . . . .+.m               %.%.%.%.%.%.%.%.    ",
"%.      j .. . . . . . . . . . . . . . . . .+.C * = * +       %.%.%.%.%.%.%.%.    ",
"%.      j .. . . . . . . . . . . . . . . . ...^ T R Y 0               %.%.%.%.    ",
"%.      j .. . . . . . . . . . . . . . . . . .X.O.+. .y               %.%.%.%.    ",
"%.      z @.@.+.+.+.+.+.+.+.+.+.+.+.+.o. . . . . . .[ t               %.%.%.%.    ",
"%.      r P P L L L L L L L L L L L L E {  . . . . .[ t               %.%.%.%.    ",
"%.      + % % % % % % % % % % % % % @ e `  . . . . .[ t               %.%.%.%.    ",
"%.                                    0 _  . . . . .[ t               %.%.%.%.    ",
"%.                                    7 _  . . . . .[ t               %.%.%.%.    ",
"%.                    O w g s s s s p Z ]  . . . . .[ t               %.%.%.%.    ",
"%.%.%.%.%.            $ P o.} } } } } }  . . . . . .[ t               %.%.%.%.    ",
"%.%.%.%.%.            $ I @. . . . . . . . . . . ...{ y               %.%.%.%.    ",
"%.%.%.%.%.            $ I +. . . . . . . . . .| } } ] t               %.%.%.%.    ",
"%.%.%.%.%.%.%.%.      $ I +. . . . . . . . .o.H s d a -               %.%.%.%.    ",
"%.%.%.%.%.%.%.%.      $ I +. . . . . . . . .+.n                       %.%.%.%.    ",
"%.%.%.%.%.%.%.%.      $ U #.X.X.X.X.X... . .+.m                       %.%.%.%.    ",
"%.%.%.%.%.%.%.%.      # J ( / / / / / )  . .+.V % % % O               %.%.%.%.    ",
"%.                    o , 4 2 2 2 2 1 x '  ...W L P K 6               %.%.%.%.    ",
"%.                                    8 _  . .o.+.@...u               %.%.%.%.    ",
"%.                                    9 _  . . . . .[ t               %.%.%.%.    ",
"%.      & > : : : : : : : : : : : : ; h '  . . . . .[ t               %.%.%.%.    ",
"%.      f ~ ! Q Q Q Q Q Q Q Q Q Q Q Q / |  . . . . .[ t               %.%.%.%.    ",
"%.      l O.o.o.o.o.o.o.o.o.o.o.o.o.o.X. . . . . . .[ t               %.%.%.%.    ",
"%.      j .. . . . . . . . . . . . . . . . . .o.@.#...i               %.%.%.%.    ",
"%.      j .. . . . . . . . . . . . . . . . .X.E S F A 3               %.%.%.%.    ",
"%.      j .. . . . . . . . . . . . . . . . .+.B + + + .               %.%.%.%.    ",
"%.      k .. . . . . . . . . . . . . . . . .+.M                       %.%.%.%.    ",
"%.      l o.X.X.X.X.X.X.X.X.X.X.X.X.X.X.X.X.@.M                       %.%.%.%.    ",
"%.      < v c c c c c c c c c c c c c c c c b 5                       %.%.%.%.    ",
"%.                                                                    %.%.%.%.    ",
"%.                                                                    %.%.%.%.    ",
"%.                                                                    %.%.%.%.    ",
"%.%.%.%.                                                      %.%.%.%.%.%.%.%.%.%.",
"%.%.%.%.%.                                                    %.%.%.%.%.%.%.%.%.%.",
"%.%.%.%.%.                                                    %.%.%.%.%.%.%.%.%.%.",
"%.%.%.%.%.                                                    %.%.%.%.%.%.%.%.%.%."
};
