/* XPM */
static char *result[] = {
/* columns rows colors chars-per-pixel */
"41 49 79 1 ",
"  c black",
". c #010000",
"X c #010100",
"o c #020100",
"O c #040200",
"+ c #070300",
"@ c #080400",
"# c #120900",
"$ c #170B00",
"% c #190D00",
"& c #1D0E00",
"* c #231200",
"= c #241200",
"- c #271400",
"; c #2B1500",
": c #311900",
"> c #381C00",
", c #391D00",
"< c #3A1D00",
"1 c #3B1D00",
"2 c #3B1E00",
"3 c #3E1F00",
"4 c #422100",
"5 c #572C00",
"6 c #5B2D00",
"7 c #5D2F00",
"8 c #613000",
"9 c #613100",
"0 c #623100",
"q c #643200",
"w c #653300",
"e c #663300",
"r c #683400",
"t c #693400",
"y c #693500",
"u c #6A3500",
"i c #6F3800",
"p c #753B00",
"a c #763B00",
"s c #773C00",
"d c #7C3E00",
"f c #8B4600",
"g c #8C4600",
"h c #8D4700",
"j c #8E4700",
"k c #8F4800",
"l c #904800",
"z c #A55200",
"x c #A65300",
"c c #A75300",
"v c #A75400",
"b c #B95D00",
"n c #DA6D00",
"m c #DA6E00",
"M c #DB6E00",
"N c #DE6F00",
"B c #E27100",
"V c #E77400",
"C c #E97400",
"Z c #EA7500",
"A c #EC7600",
"S c #EE7700",
"D c #EF7700",
"F c #F17800",
"G c #F37A00",
"H c #F77C00",
"J c #F87C00",
"K c #F97C00",
"L c #F97D00",
"P c #FA7D00",
"I c #FB7D00",
"U c #FB7E00",
"Y c #FC7E00",
"T c #FD7E00",
"R c #FD7F00",
"E c #FE7F00",
"W c #FF8000",
"Q c #FF8100",
"! c None",
/* pixels */
"!!!!!!!!!!!!!!!!!!!!!!!!!!!!!!!!!!!!!!!!!",
"!!!!!!!!!!!!!!!!!!!!!!!!!!!!!!!!!!!!!!!!!",
"!!!!!!!!!!!!!!!!!!!!!!!!!!!!!!!!!!!!!!!!!",
"!!!!!!!!!!!!!!!!!!!!!!!!!!!!!!!!!!!!!!!!!",
"!!!!                          !!!!!!!!!!!",
"!!!!                          !!!!!!!!!!!",
"!!!!                          !!!!!!!!!!!",
"!!!!   :ppppppi&  #eapppps4.  !!!!!!!!!!!",
"!!!!   uIUUUUYD3  -MRUUUUWjo  !!!!!!!!!!!",
"!!!!   yPPPPPIS3  -MYPPPPEho  !!!!!!!!!!!",
"!!!!   yPPPPPIS3  -mYPPPPRho  !!!!!!!!!!!",
"!!!!   yPPPPPIS3  -mYPPPPRho  !!!!!!!!!!!",
"!!!!   yPPPPPIS3  -mYPPPPRho  !!!!!!!!!!!",
"!!!!   yPPPPPIS3  -mYPPPPRho  !!!!!!!!!!!",
"!!!!   yPPPPPIS3  -mYPPPPRho  !!!!!!!!!!!",
"!!!!   yPPPPPIS3  -mYPPPPRho      !!!!!!!",
"!!!!   yPPPPPIS3  -mYPPPPRho      !!!!!!!",
"!!!!   yPPPPPIS2  =nYPPPPEg       !!!!!!!",
"!!!!   yPPPPPPFt>,5BYPPPPTx21<$   !!!!!!!",
"!!!!   yPPPPPPLSZZAJPPPPPPGZZC6       !!!",
"!!!!   yPPPPPPPIUUUPPPPPPPIUYP0       !!!",
"!!!!   yPPPPPPPPPPPPPPPPPPPPPK9       !!!",
"!!!!   yPPPPPPPPPPPPPPPPPPPPPK9       !!!",
"!!!!   yPPPPPPPPPPPPPPPPPPPPPK9       !!!",
"!!!!   yPIPPPPPPPPPPPPPPPPPPIK9       !!!",
"!!!!   rJKKKKKKKKKKPPPPPPPLKKH8       !!!",
"!!!!   ;wwwwwwwwwqdVUPPPPYbeww-       !!!",
"!!!!              *nYPPPPEf           !!!",
"!!!!              -mYPPPPRho          !!!",
"!!!!              -mYPPPPRho          !!!",
"!!!!!!!           -mYPPPPRho          !!!",
"!!!!!!!!          -mYPPPPRho          !!!",
"!!!!!!!!          -mYPPPPRho          !!!",
"!!!!!!!!          -mYPPPPRho          !!!",
"!!!!!!!!!!!       -mYPPPPRho  !!!!!!!!!!!",
"!!!!!!!!!!!       -mYPPPPRho  !!!!!!!!!!!",
"!!!!!!!!!!!       -NWEEEEQko  !!!!!!!!!!!",
"!!!!!!!!!!!       %lczzzzv7.  !!!!!!!!!!!",
"!!!!!!!!!!!       X+@@@@@@O   !!!!!!!!!!!",
"!!!!!!!!!!!                   !!!!!!!!!!!",
"!!!!!!!!!!!                   !!!!!!!!!!!",
"!!!!!!!!!!!!!!!               !!!!!!!!!!!",
"!!!!!!!!!!!!!!!               !!!!!!!!!!!",
"!!!!!!!!!!!!!!!               !!!!!!!!!!!",
"!!!!!!!!!!!!!!!               !!!!!!!!!!!",
"!!!!!!!!!!!!!!!!!!!!!!!!!!!!!!!!!!!!!!!!!",
"!!!!!!!!!!!!!!!!!!!!!!!!!!!!!!!!!!!!!!!!!",
"!!!!!!!!!!!!!!!!!!!!!!!!!!!!!!!!!!!!!!!!!",
"!!!!!!!!!!!!!!!!!!!!!!!!!!!!!!!!!!!!!!!!!"
};
