/* XPM */
static char *result[] = {
/* columns rows colors chars-per-pixel */
"41 49 80 1 ",
"  c black",
". c #010100",
"X c #020100",
"o c #030100",
"O c #030200",
"+ c #040200",
"@ c #060300",
"# c #070300",
"$ c #080400",
"% c #0E0700",
"& c #110800",
"* c #160B00",
"= c #1C0E00",
"- c #2A1500",
"; c #2D1600",
": c #2D1700",
"> c #2E1700",
", c #301800",
"< c #311900",
"1 c #331A00",
"2 c #361B00",
"3 c #381C00",
"4 c #3B1D00",
"5 c #3B1E00",
"6 c #3E1F00",
"7 c #402000",
"8 c #4F2800",
"9 c #502800",
"0 c #522900",
"q c #532A00",
"w c #643200",
"e c #653300",
"r c #663400",
"t c #6D3600",
"y c #703800",
"u c #753B00",
"i c #763B00",
"p c #783C00",
"a c #793C00",
"s c #7A3D00",
"d c #7D3F00",
"f c #7E3F00",
"g c #7E4000",
"h c #7F4000",
"j c #824100",
"k c #934900",
"l c #944A00",
"z c #954A00",
"x c #A25100",
"c c #A55200",
"v c #A65300",
"b c #BE5F00",
"n c #C16100",
"m c #C26100",
"M c #C76400",
"N c #CD6600",
"B c #D06800",
"V c #E27100",
"C c #E37100",
"Z c #E47200",
"A c #E77300",
"S c #E87400",
"D c #EA7500",
"F c #EC7600",
"G c #EF7700",
"H c #EF7800",
"J c #F57A00",
"K c #F67B00",
"L c #F97C00",
"P c #FA7D00",
"I c #FB7D00",
"U c #FA7E00",
"Y c #FB7E00",
"T c #FC7E00",
"R c #FD7E00",
"E c #FD7F00",
"W c #FE7F00",
"Q c #FF7F00",
"! c #FF8000",
"~ c None",
/* pixels */
"~~~~~~~~~~~~~~~~~~~~~~~~~~~~~~~~~~~~~~~~~",
"~~~~~~~~~~~~~~~~~~~~~~~~~~~~~~~~~~~~~~~~~",
"~~~~~~~~~~~~~~~~~~~~~~~~~~~~~~~~~~~~~~~~~",
"~~~~~~~~~~~~~~~~~~~~~~~~~~~~~~~~~~~~~~~~~",
"~~~~~~~~~~~~~~~~~~~~~~~~~~~~~~~~~~~~~~~~~",
"~~~~~~~~~~~~~~~~~~~~~~~~~~~~~~~~~~~~~~~~~",
"~~~~~~~~~~~~~~~~~~~~~~~~~~~~~~~~~~~~~~~~~",
"~~~~~~~~~~~~~~~~~~~~~~~~~~~~~~~~~~~~~~~~~",
"                            ~~~~~~~~~~~~~",
"                            ~~~~~~~~~~~~~",
" +$$$$$$$$$$$$$$$$$$$$$$o   ~~~~~~~~~~~~~",
" 8vcccccccccccccccccccvx2       ~~~~~~~~~",
" s!WWWWWWWWWWWWWWWWWWWQPq       ~~~~~~~~~",
" pTPPPPPPPPPPPPPPPPPPPPJ0       ~~~~~~~~~",
" pTPPPPPPPPPPPPPPPPPPPPJ0       ~~~~~~~~~",
" pTPPPPPPPPPPPPPPPPPPPPJ0       ~~~~~~~~~",
" pTPPPPPPPPPPPPPPPPPPPPJ0       ~~~~~~~~~",
" pTPPPPPPREEEEEEEEEEEEWLq       ~~~~~~~~~",
" pTPPPPPKNnnnnnnnnnnnnmb7       ~~~~~~~~~",
" pTPPPPIS6%&&&&&&&&&&&&&@       ~~~~~~~~~",
" pTPPPPIA,                      ~~~~~~~~~",
" pTPPPPIA>                      ~~~~~~~~~",
" pTPPPPIGjweeeeeeeer1           ~~~~~~~~~",
" pTPPPPPPLLLLLLLLLLUd           ~~~~~~~~~",
" pTPPPPPPPPPPPPPPPPRg           ~~~~~~~~~",
" pTPPPPPPPPPPPPPPPPThXOO.       ~~~~~~~~~",
" pTPPPPPPPPPPPPPPPPIMlzk<       ~~~~~~~~~",
" pTPPPPPPPPPPPPPPPPPTWWLq       ~~~~~~~~~",
" aRYYYYYYYYYYYYYIPPPPPPJ0       ~~~~~~~~~",
" yFDDDDDDDDDDDDDHPPPPPPJ0       ~~~~~~~~~",
" =54444444444443aKPPPPPJ0       ~~~~~~~~~",
"                9JPPPPPJ0       ~~~~~~~~~",
"                9JPPPPPJ0       ~~~~~~~~~",
" *:;;;;;;;;;;;;-yKPPPPPJ0       ~~~~~~~~~",
" tZCVVVVVVVVVVVVDPPPPPPJ0       ~~~~~~~~~",
" aRTTTTTTTTTTTTTYPPPPPPJ0       ~~~~~~~~~",
" pTPPPPPPPPPPPPPPPPPTWQPq       ~~~~~~~~~",
" pTPPPPPPPPPPPPPPPPIBcvx2       ~~~~~~~~~",
" pTPPPPPPPPPPPPPPPPTj#$$o       ~~~~~~~~~",
" pTPPPPPPPPPPPPPPPPTf           ~~~~~~~~~",
" aRYYYYYYYYYYYYYYYYEh           ~~~~~~~~~",
" 3iuuuuuuuuuuuuuuuui5           ~~~~~~~~~",
"                                ~~~~~~~~~",
"                                ~~~~~~~~~",
"                                ~~~~~~~~~",
"~                           ~~~~~~~~~~~~~",
"~~                          ~~~~~~~~~~~~~",
"~~                          ~~~~~~~~~~~~~",
"~~                          ~~~~~~~~~~~~~"
};
