/* XPM */
static char *result[] = {
/* columns rows colors chars-per-pixel */
"41 49 72 1 ",
"  c black",
". c #010000",
"X c #010100",
"o c #020100",
"O c #030200",
"+ c #040200",
"@ c #050200",
"# c #070400",
"$ c #080400",
"% c #0F0700",
"& c #100800",
"* c #110800",
"= c #110900",
"- c #1F0F00",
"; c #1F1000",
": c #211100",
"> c #221100",
", c #291400",
"< c #301800",
"1 c #391D00",
"2 c #3B1D00",
"3 c #3C1E00",
"4 c #3E1F00",
"5 c #3F2000",
"6 c #462300",
"7 c #542A00",
"8 c #623100",
"9 c #643200",
"0 c #653300",
"q c #673400",
"w c #753B00",
"e c #763B00",
"r c #773C00",
"t c #793D00",
"y c #844200",
"u c #8C4700",
"i c #8D4700",
"p c #8E4700",
"a c #954B00",
"s c #974C00",
"d c #9A4D00",
"f c #A55200",
"g c #A65300",
"h c #A75400",
"j c #B45B00",
"k c #C16100",
"l c #C36100",
"z c #C96400",
"x c #D56B00",
"c c #D66B00",
"v c #D66C00",
"b c #D86C00",
"n c #DE6F00",
"m c #E57200",
"M c #EA7500",
"N c #EC7600",
"B c #ED7700",
"V c #EE7700",
"C c #F27900",
"Z c #F87C00",
"A c #F97C00",
"S c #FA7D00",
"D c #FB7D00",
"F c #FB7E00",
"G c #FC7E00",
"H c #FD7E00",
"J c #FD7F00",
"K c #FE7F00",
"L c #FF7F00",
"P c #FF8000",
"I c #FF8100",
"U c None",
/* pixels */
"UUUUUUUUUUUUUUUUUUUUUUUUUUUUUUUUUUUUUUUUU",
"UUUUUUUUUUUUUUUUUUUUUUUUUUUUUUUUUUUUUUUUU",
"UUUUUUUUUUUUUUUUUUUUUUUUUUUUUUUUUUUUUUUUU",
"UUUUUUUUUUUUUUUUUUUUUUUUUUUUUUUUUUUUUUUUU",
"UUUUUUUUUUUUUUUUUUUUUUUUUUUUUUUUUUUUUUUUU",
"UUUUUUUUUUUUUUUUUUUUUUUUUUUUUUUUUUUUUUUUU",
"UUUUUUUUUUUUUUUUUUUUUUUUUUUUUUUUUUUUUUUUU",
"UUUUUUUUUUUUUUUUUUUUUUUUUUUUUUUUUUUUUUUUU",
"UUU                              UUUUUUUU",
"UUU                              UUUUUUUU",
"UUU   o#$$$$$$$$$$$$$$$$$$$$$@   UUUUUUUU",
"UUU   ,dgfffffffffffffffffffh8o      UUUU",
"UUU   5VPKKKKKKKKKKKKKKKKKKKIsO      UUUU",
"UUU   4MFSSSSSSSSSSSSSSSSSSSKaO      UUUU",
"UUU   4MFSSSSSSSSSSSSSSSSSSSKaO      UUUU",
"UUU   4MFSSSSSSSSSSSSSSSSSSSKaO      UUUU",
"UUU   4MFSSSSSSSSSSSSSSSSSSSKaO      UUUU",
"UUU   5BLJJJJJJJJJJJJJDSSSSSKaO      UUUU",
"UUU   <jlkkkkkkkkkkkkzCDSSSSKaO      UUUU",
"UUU   +&=***********%<bGSSSSKaO      UUUU",
"UUU                  :cGSSSSKaO      UUUU",
"UUU                  -xGSSSSKaO      UUUU",
"UUU          .1q00009tmFSSSSKaO      UUUU",
"UUUUUUU      ouGAAAAAASSSSSSKaO      UUUU",
"UUUUUUU      oiKSSSSSSSSSSSSKaO      UUUU",
"UUUUUUU      oiJSSSSSSSSSSSSKaO      UUUU",
"UUUUUUUUUU   oiJSSSSSSSSSSSSKaO      UUUU",
"UUUUUUUUUUU  oiJSSSSSSSSSSSSKaO      UUUU",
"UUUUUUUUUUU  opLFFFFFFSSSSSSKaO      UUUU",
"UUUUUUUUUUU  XyBMMMMMNZSSSSSKaO      UUUU",
"UUUUUUUUUUU   :3222217nGSSSSKaO      UUUU",
"UUUUUUUUUUU          ;xGSSSSKaO      UUUU",
"UUUUUUUUUUU          >cGSSSSKaO      UUUU",
"UUUUUUUUUUU          >cGSSSSKaO      UUUU",
"UUUUUUUUUUUUUU       >cGSSSSKaO      UUUU",
"UUUUUUUUUUUUUU       >cGSSSSKaO      UUUU",
"UUUUUUUUUUUUUU       >cGSSSSKaO      UUUU",
"UUUUUUUUUUUUUUU      >cGSSSSKaO      UUUU",
"UUUUUUUUUUUUUUUUUU   >cGSSSSKaO      UUUU",
"UUUUUUUUUUUUUUUUUU   >cHSSSSKaO      UUUU",
"UUUUUUUUUUUUUUUUUU   >vKFFFFPaO      UUUU",
"UUUUUUUUUUUUUUUUUU   &9ewwwwr6X      UUUU",
"UUUUUUUUUUUUUUUUUU                   UUUU",
"UUUUUUUUUUUUUUUUUU                   UUUU",
"UUUUUUUUUUUUUUUUUU                   UUUU",
"UUUUUUUUUUUUUUUUUUUUUUUUUU           UUUU",
"UUUUUUUUUUUUUUUUUUUUUUUUUU           UUUU",
"UUUUUUUUUUUUUUUUUUUUUUUUUU           UUUU",
"UUUUUUUUUUUUUUUUUUUUUUUUUU           UUUU"
};
