/* XPM */
static char *result[] = {
/* columns rows colors chars-per-pixel */
"81 98 58 1 ",
"  c black",
". c #010100",
"X c #030100",
"o c #050200",
"O c #060300",
"+ c #080400",
"@ c #0B0500",
"# c #0C0600",
"$ c #0F0800",
"% c #120900",
"& c #150B00",
"* c #160B00",
"= c #1A0D00",
"- c #2A1500",
"; c #2F1700",
": c #311800",
"> c #5A2D00",
", c #613100",
"< c #623100",
"1 c #653200",
"2 c #663300",
"3 c #6F3700",
"4 c #7B3E00",
"5 c #7C3E00",
"6 c #7D3F00",
"7 c #7F3F00",
"8 c #7F4000",
"9 c #944A00",
"0 c #A85400",
"q c #AA5500",
"w c #C76300",
"e c #CB6500",
"r c #CB6600",
"t c #CF6800",
"y c #D06800",
"u c #D26900",
"i c #D96D00",
"p c #DA6D00",
"a c #E47200",
"s c #E57200",
"d c #E57300",
"f c #E77300",
"g c #E97500",
"h c #ED7700",
"j c #F47A00",
"k c #F67B00",
"l c #F77C00",
"z c #FA7D00",
"x c #FB7D00",
"c c #FC7E00",
"v c #FD7E00",
"b c #FD7F00",
"n c #FE7F00",
"m c #FF7F00",
"M c #FF8000",
"N c #FF8200",
"B c #FF8300",
"V c None",
/* pixels */
"VVVVVVVVVVVVVVVVVVVVVVVVVVVVVVVVVVVVVVVVVVVVVVVVVVVVVVVVVVVVVVVVVVVVVVVVVVVVVVVVV",
"VVVVVVVVVVVVVVVVVVVVVVVVVVVVVVVVVVVVVVVVVVVVVVVVVVVVVVVVVVVVVVVVVVVVVVVVVVVVVVVVV",
"VVVVVVVVVVVVVVVVVVVVVVVVVVVVVVVVVVVVVVVVVVVVVVVVVVVVVVVVVVVVVVVVVVVVVVVVVVVVVVVVV",
"VVVVVVVVVVVVVVVVVVVVVVVVVVVVVVVVVVVVVVVVVVVVVVVVVVVVVVVVVVVVVVVVVVVVVVVVVVVVVVVVV",
"VVVVVVVVVVVVVVVVVVVVVVVVVVVVVVVVVVVVVVVVVVVVVVVVVVVVVVVVVVVVVVVVVVVVVVVVVVVVVVVVV",
"VVVVVVVVVVVVVVVVVVVVVVVVVVVVVVVVVVVVVVVVVVVVVVVVVVVVVVVVVVVVVVVVVVVVVVVVVVVVVVVVV",
"VVVVVVVVVVVVVVVVVVVVVVVVVVVVVVVVVVVVVVVVVVVVVVVVVVVVVVVVVVVVVVVVVVVVVVVVVVVVVVVVV",
"VVVVVVVVVVVVVVVVVVVVVVVVVVVVVVVVVVVVVVVVVVVVVVVVVVVVVVVVVVVVVVVVVVVVVVVVVVVVVVVVV",
"VVVVVVVVVVVVV                                              VVVVVVVVVVVVVVVVVVVVVV",
"VVVVVVVVVVVVV                                              VVVVVVVVVVVVVVVVVVVVVV",
"VVVVVVVVVVVVV                                              VVVVVVVVVVVVVVVVVVVVVV",
"VVVVVVVVVVVVV                                              VVVVVVVVVVVVVVVVVVVVVV",
"VVVVVVVVVVVVV                                              VVVVVVVVVVVVVVVVVVVVVV",
"VVVVVVVVVVVVVV                                            VVVVVVVVVVVVVVVVVVVVVVV",
"VVVVVVVVVVVVV       .@############################@.       VVVVVVVVVVVVVVVVVVVVVV",
"VVVVVV              %wpiiiiiiiiiiiiiiiiiiiiiiiiiipw%              VVVVVVVVVVVVVVV",
"VVVVVV              &fvccccccccccccccccccccccccccvf&              VVVVVVVVVVVVVVV",
"VVVVVV              &sxzzzzzzzzzzzzzzzzzzzzzzzzzzxs&              VVVVVVVVVVVVVVV",
"VVVVVV              &sxzzzzzzzzzzzzzzzzzzzzzzzzzzxs&              VVVVVVVVVVVVVVV",
"VVVVVV              &sxzzzzzzzzzzzzzzzzzzzzzzzzzzxs&              VVVVVVVVVVVVVVV",
"VVVVVV              &sxzzzzzzzzzzzzzzzzzzzzzzzzzzxs&              VVVVVVVVVVVVVVV",
"VVVVVV              $axzzzzzzzzzzzzzzzzzzzzzzzzzzxa$              VVVVVVVVVVVVVVV",
"VVVVVV       :1<<<<,3hxzzzzzzzzzzzzzzzzzzzzzzzzzzxh3,<<<<1:       VVVVVVVVVVVVVVV",
"VVVVVV       8BmmmmmnzzzzzzzzzzzzzzzzzzzzzzzzzzzzzznmmmmmB8               VVVVVVV",
"VVVVVV       6MzzzzzzzzzzzzzzzzzzzzzzzzzzzzzzzzzzzzzzzzzzM6               VVVVVVV",
"VVVVVV       6MzzzzzzzzzzzzzzzzzzzzzzzzzzzzzzzzzzzzzzzzzzM6               VVVVVVV",
"VVVVVV       6MzzzzzzzzzzzzzzzzzzzzzzzzzzzzzzzzzzzzzzzzzzM6               VVVVVVV",
"VVVVVV       6MzzzzzzzzzzzzzzzzzzzzzzzzzzzzzzzzzzzzzzzzzzM6               VVVVVVV",
"VVVVVV       6MzzzzzzzzzzzzzzzzzzzzzzzzzzzzzzzzzzzzzzzzzzM6               VVVVVVV",
"VVVVVV       6MzzzzzzzzzzzzzljjjjjjjjjjjjjjlzzzzzzzzzzzzzM6               VVVVVVV",
"VVVVVV       6MzzzzzzzzzzzzM9-;;;;;;;;;;;;-9MzzzzzzzzzzzzM6               VVVVVVV",
"VVVVVV       6MzzzzzzzzzzzzM4              4MzzzzzzzzzzzzM6               VVVVVVV",
"VVVVVV       6MzzzzzzzzzzzzM6              6MzzzzzzzzzzzzM6               VVVVVVV",
"VVVVVV       6MzzzzzzzzzzzzM6              6MzzzzzzzzzzzzM6               VVVVVVV",
"VVVVVV       6MzzzzzzzzzzzzM6              6MzzzzzzzzzzzzM6               VVVVVVV",
"VVVVVV       6MzzzzzzzzzzzzM6              6MzzzzzzzzzzzzM6               VVVVVVV",
"VVVVVV       6MzzzzzzzzzzzzM6              6MzzzzzzzzzzzzM6               VVVVVVV",
"VVVVVV       6MzzzzzzzzzzzzM6              6MzzzzzzzzzzzzM6               VVVVVVV",
"VVVVVV       6MzzzzzzzzzzzzM6              6MzzzzzzzzzzzzM6               VVVVVVV",
"VVVVVV       6MzzzzzzzzzzzzM6              6MzzzzzzzzzzzzM6               VVVVVVV",
"VVVVVV       6MzzzzzzzzzzzzM6              6MzzzzzzzzzzzzM6               VVVVVVV",
"VVVVVV       6MzzzzzzzzzzzzM6              6MzzzzzzzzzzzzM6               VVVVVVV",
"VVVVVV       6MzzzzzzzzzzzzM6              6MzzzzzzzzzzzzM6               VVVVVVV",
"VVVVVV       6MzzzzzzzzzzzzM6              6MzzzzzzzzzzzzM6               VVVVVVV",
"VVVVVV       6MzzzzzzzzzzzzM6              6MzzzzzzzzzzzzM6               VVVVVVV",
"VVVVVV       6MzzzzzzzzzzzzM6              6MzzzzzzzzzzzzM6               VVVVVVV",
"VVVVVV       6MzzzzzzzzzzzzM6              6MzzzzzzzzzzzzM6               VVVVVVV",
"VVVVVV       6MzzzzzzzzzzzzM6              6MzzzzzzzzzzzzM6               VVVVVVV",
"VVVVVV       6MzzzzzzzzzzzzM6              6MzzzzzzzzzzzzM6               VVVVVVV",
"VVVVVV       6MzzzzzzzzzzzzM6              6MzzzzzzzzzzzzM6               VVVVVVV",
"VVVVVV       6MzzzzzzzzzzzzM6              6MzzzzzzzzzzzzM6               VVVVVVV",
"VVVVVV       6MzzzzzzzzzzzzM6              6MzzzzzzzzzzzzM6               VVVVVVV",
"VVVVVV       6MzzzzzzzzzzzzM6              6MzzzzzzzzzzzzM6               VVVVVVV",
"VVVVVV       6MzzzzzzzzzzzzM6              6MzzzzzzzzzzzzM6               VVVVVVV",
"VVVVVV       6MzzzzzzzzzzzzM6              6MzzzzzzzzzzzzM6               VVVVVVV",
"VVVVVV       6MzzzzzzzzzzzzM6              6MzzzzzzzzzzzzM6               VVVVVVV",
"VVVVVV       6MzzzzzzzzzzzzM6              6MzzzzzzzzzzzzM6               VVVVVVV",
"VVVVVV       6MzzzzzzzzzzzzM6              6MzzzzzzzzzzzzM6               VVVVVVV",
"VVVVVV       6MzzzzzzzzzzzzM6              6MzzzzzzzzzzzzM6               VVVVVVV",
"VVVVVV       6MzzzzzzzzzzzzM5              5MzzzzzzzzzzzzM6               VVVVVVV",
"VVVVVV       6Mzzzzzzzzzzzzcu0qqqqqqqqqqqq0uczzzzzzzzzzzzM6               VVVVVVV",
"VVVVVV       6MzzzzzzzzzzzzzvMMMMMMMMMMMMMMvzzzzzzzzzzzzzM6               VVVVVVV",
"VVVVVV       6MzzzzzzzzzzzzzzzzzzzzzzzzzzzzzzzzzzzzzzzzzzM6               VVVVVVV",
"VVVVVV       6MzzzzzzzzzzzzzzzzzzzzzzzzzzzzzzzzzzzzzzzzzzM6               VVVVVVV",
"VVVVVV       6MzzzzzzzzzzzzzzzzzzzzzzzzzzzzzzzzzzzzzzzzzzM6               VVVVVVV",
"VVVVVV       6MzzzzzzzzzzzzzzzzzzzzzzzzzzzzzzzzzzzzzzzzzzM6               VVVVVVV",
"VVVVVV       7NbbbbbvzzzzzzzzzzzzzzzzzzzzzzzzzzzzzzvbbbbbN7               VVVVVVV",
"VVVVVV       2yrrrretkzzzzzzzzzzzzzzzzzzzzzzzzzzzzkterrrry2               VVVVVVV",
"VVVVVV       XOOOOOo=dxzzzzzzzzzzzzzzzzzzzzzzzzzzxd=oOOOOOX               VVVVVVV",
"VVVVVV              &sxzzzzzzzzzzzzzzzzzzzzzzzzzzxs&                      VVVVVVV",
"VVVVVV              &sxzzzzzzzzzzzzzzzzzzzzzzzzzzxs&                      VVVVVVV",
"VVVVVV              &sxzzzzzzzzzzzzzzzzzzzzzzzzzzxs&                      VVVVVVV",
"VVVVVV              &sxzzzzzzzzzzzzzzzzzzzzzzzzzzxs&                      VVVVVVV",
"VVVVVV              &sxzzzzzzzzzzzzzzzzzzzzzzzzzzxs&                      VVVVVVV",
"VVVVVV              *gMmmmmmmmmmmmmmmmmmmmmmmmmmmMg*                      VVVVVVV",
"VVVVVVVVVVVVV       +><<<<<<<<<<<<<<<<<<<<<<<<<<<<>+                      VVVVVVV",
"VVVVVVVVVVVVVV                                                            VVVVVVV",
"VVVVVVVVVVVVV                                                             VVVVVVV",
"VVVVVVVVVVVVV                                                             VVVVVVV",
"VVVVVVVVVVVVV                                                             VVVVVVV",
"VVVVVVVVVVVVV                                                             VVVVVVV",
"VVVVVVVVVVVVV                                                             VVVVVVV",
"VVVVVVVVVVVVVV                                                           VVVVVVVV",
"VVVVVVVVVVVVVVVVVVVVV                                             VVVVVVVVVVVVVVV",
"VVVVVVVVVVVVVVVVVVVVV                                             VVVVVVVVVVVVVVV",
"VVVVVVVVVVVVVVVVVVVVV                                             VVVVVVVVVVVVVVV",
"VVVVVVVVVVVVVVVVVVVVV                                             VVVVVVVVVVVVVVV",
"VVVVVVVVVVVVVVVVVVVVV                                             VVVVVVVVVVVVVVV",
"VVVVVVVVVVVVVVVVVVVVV                                             VVVVVVVVVVVVVVV",
"VVVVVVVVVVVVVVVVVVVVV                                             VVVVVVVVVVVVVVV",
"VVVVVVVVVVVVVVVVVVVVVVVVVVVVVVVVVVVVVVVVVVVVVVVVVVVVVVVVVVVVVVVVVVVVVVVVVVVVVVVVV",
"VVVVVVVVVVVVVVVVVVVVVVVVVVVVVVVVVVVVVVVVVVVVVVVVVVVVVVVVVVVVVVVVVVVVVVVVVVVVVVVVV",
"VVVVVVVVVVVVVVVVVVVVVVVVVVVVVVVVVVVVVVVVVVVVVVVVVVVVVVVVVVVVVVVVVVVVVVVVVVVVVVVVV",
"VVVVVVVVVVVVVVVVVVVVVVVVVVVVVVVVVVVVVVVVVVVVVVVVVVVVVVVVVVVVVVVVVVVVVVVVVVVVVVVVV",
"VVVVVVVVVVVVVVVVVVVVVVVVVVVVVVVVVVVVVVVVVVVVVVVVVVVVVVVVVVVVVVVVVVVVVVVVVVVVVVVVV",
"VVVVVVVVVVVVVVVVVVVVVVVVVVVVVVVVVVVVVVVVVVVVVVVVVVVVVVVVVVVVVVVVVVVVVVVVVVVVVVVVV",
"VVVVVVVVVVVVVVVVVVVVVVVVVVVVVVVVVVVVVVVVVVVVVVVVVVVVVVVVVVVVVVVVVVVVVVVVVVVVVVVVV",
"VVVVVVVVVVVVVVVVVVVVVVVVVVVVVVVVVVVVVVVVVVVVVVVVVVVVVVVVVVVVVVVVVVVVVVVVVVVVVVVVV"
};
