/* XPM */
static char *result[] = {
/* columns rows colors chars-per-pixel */
"81 98 52 1 ",
"  c black",
". c #010100",
"X c #060300",
"o c #080400",
"O c #0B0500",
"+ c #0C0600",
"@ c #0E0700",
"# c #0F0800",
"$ c #120900",
"% c #130A00",
"& c #150B00",
"* c #160B00",
"= c #311800",
"- c #552A00",
"; c #5A2D00",
": c #613100",
"> c #623100",
", c #653200",
"< c #6D3600",
"1 c #6F3700",
"2 c #7C3E00",
"3 c #7D3F00",
"4 c #7E3F00",
"5 c #7F4000",
"6 c #804000",
"7 c #9C4E00",
"8 c #A85400",
"9 c #AA5500",
"0 c #AE5700",
"q c #B15800",
"w c #C76300",
"e c #D26900",
"r c #D96D00",
"t c #DA6D00",
"y c #DF6F00",
"u c #E47200",
"i c #E57200",
"p c #E77300",
"a c #E97500",
"s c #EA7500",
"d c #ED7700",
"f c #F37A00",
"g c #FA7D00",
"h c #FB7D00",
"j c #FC7E00",
"k c #FD7E00",
"l c #FE7F00",
"z c #FF7F00",
"x c #FF8000",
"c c #FF8100",
"v c #FF8300",
"b c None",
/* pixels */
"bbbbbbbbbbbbbbbbbbbbbbbbbbbbbbbbbbbbbbbbbbbbbbbbbbbbbbbbbbbbbbbbbbbbbbbbbbbbbbbbb",
"bbbbbbbbbbbbbbbbbbbbbbbbbbbbbbbbbbbbbbbbbbbbbbbbbbbbbbbbbbbbbbbbbbbbbbbbbbbbbbbbb",
"bbbbbbbbbbbbbbbbbbbbbbbbbbbbbbbbbbbbbbbbbbbbbbbbbbbbbbbbbbbbbbbbbbbbbbbbbbbbbbbbb",
"bbbbbbbbbbbbbbbbbbbbbbbbbbbbbbbbbbbbbbbbbbbbbbbbbbbbbbbbbbbbbbbbbbbbbbbbbbbbbbbbb",
"bbbbbbbbbbbbbbbbbbbbbbbbbbbbbbbbbbbbbbbbbbbbbbbbbbbbbbbbbbbbbbbbbbbbbbbbbbbbbbbbb",
"bbbbbbbbbbbbbbbbbbbbbbbbbbbbbbbbbbbbbbbbbbbbbbbbbbbbbbbbbbbbbbbbbbbbbbbbbbbbbbbbb",
"bbbbbbbbbbbbbbbbbbbbbbbbbbbbbbbbbbbbbbbbbbbbbbbbbbbbbbbbbbbbbbbbbbbbbbbbbbbbbbbbb",
"bbbbbbbbbbbbbbbbbbbbbbbbbbbbbbbbbbbbbbbbbbbbbbbbbbbbbbbbbbbbbbbbbbbbbbbbbbbbbbbbb",
"bbbbbbbbbbbbbbbb                                      bbbbbbbbbbbbbbbbbbbbbbbbbbb",
"bbbbbbbbbbbbbbbb                                      bbbbbbbbbbbbbbbbbbbbbbbbbbb",
"bbbbbbbbbbbbbbbb                                      bbbbbbbbbbbbbbbbbbbbbbbbbbb",
"bbbbbbbbbbbbbbbb                                      bbbbbbbbbbbbbbbbbbbbbbbbbbb",
"bbbbbbbbbbbbbbbb                                      bbbbbbbbbbbbbbbbbbbbbbbbbbb",
"bbbbbbbbbbbbbbbbb                                     bbbbbbbbbbbbbbbbbbbbbbbbbbb",
"bbbbbbbbbbbbbbbb       .O+++++++++++++++++++++X       bbbbbbbbbbbbbbbbbbbbbbbbbbb",
"bbbbbbbbb              $wtrrrrrrrrrrrrrrrrrrry<              bbbbbbbbbbbbbbbb    ",
"bbbbbbbbb              &pkjjjjjjjjjjjjjjjjjjjc4               bbbbbbbbbbbbbb     ",
"bbbbbbbbb              &ihgggggggggggggggggggx3               bbbbbbbbbbbbbb     ",
"bbbbbbbbb              &ihgggggggggggggggggggx3               bbbbbbbbbbbbbb     ",
"bbbbbbbbb              &ihgggggggggggggggggggx3               bbbbbbbbbbbbbb     ",
"bbbbbbbbb              &ihgggggggggggggggggggx3               bbbbbbbbbbbbbb     ",
"bbbbbbbbb              #uhgggggggggggggggggggx3               bbbbbbbbbbbbbb     ",
"bbbbbbbbb       =,>>>>:1dhgggggggggggggggggggx3               bbbbbbbbbbbbbb     ",
"bbbbbbbbb       5vzzzzzlgggggggggggggggggggggx3               bbbbbbbbbbbbbb     ",
"bbbbbbbbb       3xgggggggggggggggggggggggggggx3               bbbbbbbbbbbbbb     ",
"bbbbbbbbb       3xgggggggggggggggggggggggggggx3               bbbbbbbbbbbbbb     ",
"bbbbbbbbb       3xgggggggggggggggggggggggggggx3               bbbbbbbbbbbbbb     ",
"bbbbbbbbb       3xgggggggggggggggggggggggggggx3               bbbbbbbbbbbbbb     ",
"bbbbbbbbb       3xgggggggggggggggggggggggggggx3               bbbbbbbbbbbbbb     ",
"bbbbbbbbb       3xgggggggggggggggggggggggggggx3               bbbbbbbbbbbbbb     ",
"bbbbbbbbb       3xgggggggggggggggggggggggggggx3               bbbbbbbbbbbbbb     ",
"bbbbbbbbb       3xgggggggggggggggggggggggggggx3               bbbbbbbbbbbbbb     ",
"bbbbbbbbb       3xgggggggggggggggggggggggggggx3               bbbbbbbbbbbbbb     ",
"bbbbbbbbb       3xgggggggggggggggggggggggggggx3               bbbbbbbbbbbbbb     ",
"bbbbbbbbb       3xgggggggggggggggggggggggggggx3               bbbbbbbbbbbbbb     ",
"bbbbbbbbb       3xgggggggggggggggggggggggggggx3               bbbbbbbbbbbbbb     ",
"bbbbbbbbb       6vxxxxxxgggggggggggggggggggggx3               bbbbbbbbbbbbbb     ",
"bbbbbbbbb       -099999qfggggggggggggggggggggx3               bbbbbbbbbbbbbb     ",
"bbbbbbbbb              %ihgggggggggggggggggggx3               bbbbbbbbbbbbbb     ",
"bbbbbbbbb              &ihgggggggggggggggggggx3               bbbbbbbbbbbbbb     ",
"bbbbbbbbb              &ihgggggggggggggggggggx3               bbbbbbbbbbbbbb     ",
"bbbbbbbbb              &ihgggggggggggggggggggx3               bbbbbbbbbbbbbb     ",
"bbbbbbbbb              &ihgggggggggggggggggggx3               bbbbbbbbbbbbbb     ",
"bbbbbbbbb              &ihgggggggggggggggggggx3               bbbbbbbbbbbbbb     ",
"bbbbbbbbb              &ihgggggggggggggggggggx3               bbbbbbbbbbbbbb     ",
"bbbbbbbbbbbbbbbb       &ihgggggggggggggggggggx3               bbbbbbbbbbbbbb     ",
"bbbbbbbbbbbbbbbbb      &ihgggggggggggggggggggx3               bbbbbbbbbbbbbb     ",
"bbbbbbbbbbbbbbbb       &ihgggggggggggggggggggx3               bbbbbbbbbbbbbb     ",
"bbbbbbbbbbbbbbbb       &ihgggggggggggggggggggx3               bbbbbbbbbbbbbb     ",
"bbbbbbbbbbbbbbbb       &ihgggggggggggggggggggx3               bbbbbbbbbbbbbb     ",
"bbbbbbbbbbbbbbbb       &ihgggggggggggggggggggx3               bbbbbbbbbbbbbb     ",
"bbbbbbbbbbbbbbbbb      &ihgggggggggggggggggggx3              bbbbbbbbbbbbbbb     ",
"bbbbbbbbbbbbbbbb       &ihgggggggggggggggggggx3               bbbbbbbbbbbbbbb    ",
"bb                     &ihgggggggggggggggggggx3                      bbbbbbbbbbbb",
"bb                     &ihgggggggggggggggggggx3                      bbbbbbbbbbbb",
"bb                     &ihgggggggggggggggggggx3                      bbbbbbbbbbbb",
"bb                     &ihgggggggggggggggggggx3                      bbbbbbbbbbbb",
"bb                     &ihgggggggggggggggggggx3                      bbbbbbbbbbbb",
"bb                     &ihgggggggggggggggggggx3                      bbbbbbbbbbbb",
"bb                     %ihgggggggggggggggggggx2                      bbbbbbbbbbbb",
"bb      @79999999999999qfggggggggggggggggggggje8999997@              bbbbbbbbbbbb",
"bb      *sxxxxxxxxxxxxxxggggggggggggggggggggggkxxxxxxs*              bbbbbbbbbbbb",
"bb      &ihggggggggggggggggggggggggggggggggggggggggghi&              bbbbbbbbbbbb",
"bb      &ihggggggggggggggggggggggggggggggggggggggggghi&              bbbbbbbbbbbb",
"bb      &ihggggggggggggggggggggggggggggggggggggggggghi&              bbbbbbbbbbbb",
"bb      &ihggggggggggggggggggggggggggggggggggggggggghi&              bbbbbbbbbbbb",
"bb      &ihggggggggggggggggggggggggggggggggggggggggghi&              bbbbbbbbbbbb",
"bb      &ihggggggggggggggggggggggggggggggggggggggggghi&              bbbbbbbbbbbb",
"bb      &ihggggggggggggggggggggggggggggggggggggggggghi&              bbbbbbbbbbbb",
"bb      &ihggggggggggggggggggggggggggggggggggggggggghi&              bbbbbbbbbbbb",
"bb      &ihggggggggggggggggggggggggggggggggggggggggghi&              bbbbbbbbbbbb",
"bb      &ihggggggggggggggggggggggggggggggggggggggggghi&              bbbbbbbbbbbb",
"bb      &ihggggggggggggggggggggggggggggggggggggggggghi&              bbbbbbbbbbbb",
"bb      &ihggggggggggggggggggggggggggggggggggggggggghi&              bbbbbbbbbbbb",
"bb      *axzzzzzzzzzzzzzzzzzzzzzzzzzzzzzzzzzzzzzzzzzxa*              bbbbbbbbbbbb",
"bb      o;>>>>>>>>>>>>>>>>>>>>>>>>>>>>>>>>>>>>>>>>>>>;o              bbbbbbbbbbbb",
"bb                                                                   bbbbbbbbbbbb",
"bb                                                                   bbbbbbbbbbbb",
"bb                                                                   bbbbbbbbbbbb",
"bb                                                                   bbbbbbbbbbbb",
"bb                                                                   bbbbbbbbbbbb",
"b                                                                    bbbbbbbbbbbb",
"bb                                                                   bbbbbbbbbbbb",
"bbbbbbbbb                                                            bbbbbbbbbbbb",
"bbbbbbbbb                                                            bbbbbbbbbbbb",
"bbbbbbbbb                                                            bbbbbbbbbbbb",
"bbbbbbbbb                                                            bbbbbbbbbbbb",
"bbbbbbbbb                                                            bbbbbbbbbbbb",
"bbbbbbbbb                                                            bbbbbbbbbbbb",
"bbbbbbbbb                                                            bbbbbbbbbbbb",
"bbbbbbbbbbbbbbbbbbbbbbbbbbbbbbbbbbbbbbbbbbbbbbbbbbbbbbbbbbbbbbbbbbbbbbbbbbbbbbbbb",
"bbbbbbbbbbbbbbbbbbbbbbbbbbbbbbbbbbbbbbbbbbbbbbbbbbbbbbbbbbbbbbbbbbbbbbbbbbbbbbbbb",
"bbbbbbbbbbbbbbbbbbbbbbbbbbbbbbbbbbbbbbbbbbbbbbbbbbbbbbbbbbbbbbbbbbbbbbbbbbbbbbbbb",
"bbbbbbbbbbbbbbbbbbbbbbbbbbbbbbbbbbbbbbbbbbbbbbbbbbbbbbbbbbbbbbbbbbbbbbbbbbbbbbbbb",
"bbbbbbbbbbbbbbbbbbbbbbbbbbbbbbbbbbbbbbbbbbbbbbbbbbbbbbbbbbbbbbbbbbbbbbbbbbbbbbbbb",
"bbbbbbbbbbbbbbbbbbbbbbbbbbbbbbbbbbbbbbbbbbbbbbbbbbbbbbbbbbbbbbbbbbbbbbbbbbbbbbbbb",
"bbbbbbbbbbbbbbbbbbbbbbbbbbbbbbbbbbbbbbbbbbbbbbbbbbbbbbbbbbbbbbbbbbbbbbbbbbbbbbbbb",
"bbbbbbbbbbbbbbbbbbbbbbbbbbbbbbbbbbbbbbbbbbbbbbbbbbbbbbbbbbbbbbbbbbbbbbbbbbbbbbbbb"
};
