/* XPM */
static char *result[] = {
/* columns rows colors chars-per-pixel */
"81 98 84 1 ",
"  c black",
". c #010000",
"X c #010100",
"o c #040200",
"O c #050300",
"+ c #060300",
"@ c #070300",
"# c #080400",
"$ c #0B0500",
"% c #0C0600",
"& c #0E0700",
"* c #100800",
"= c #110900",
"- c #120900",
"; c #130A00",
": c #150A00",
"> c #150B00",
", c #160B00",
"< c #2B1500",
"1 c #2E1700",
"2 c #2F1700",
"3 c #2F1800",
"4 c #311800",
"5 c #402000",
"6 c #492500",
"7 c #502800",
"8 c #5A2D00",
"9 c #5E2F00",
"0 c #623100",
"q c #653200",
"w c #6D3600",
"e c #7A3D00",
"r c #7C3E00",
"t c #7D3F00",
"y c #7E3F00",
"u c #7F4000",
"i c #804000",
"p c #9C4E00",
"a c #A85400",
"s c #AA5500",
"d c #AB5600",
"f c #AE5700",
"g c #B15800",
"h c #B95D00",
"j c #BA5D00",
"k c #BB5D00",
"l c #BB5E00",
"z c #BC5E00",
"x c #C06000",
"c c #C76300",
"v c #CA6500",
"b c #CB6600",
"n c #CC6600",
"m c #D26900",
"M c #D96D00",
"N c #DA6D00",
"B c #DB6D00",
"V c #DF6F00",
"C c #E07000",
"Z c #E37100",
"A c #E47200",
"S c #E57200",
"D c #E77300",
"F c #E87400",
"G c #E97400",
"H c #E97500",
"J c #EA7500",
"K c #EC7600",
"L c #F37A00",
"P c #F47A00",
"I c #F57A00",
"U c #F57B00",
"Y c #FA7D00",
"T c #FB7D00",
"R c #FB7E00",
"E c #FC7E00",
"W c #FD7E00",
"Q c #FD7F00",
"! c #FE7F00",
"~ c #FF7F00",
"^ c #FF8000",
"/ c #FF8100",
"( c #FF8300",
") c None",
/* pixels */
")))))))))))))))))))))))))))))))))))))))))))))))))))))))))))))))))))))))))))))))))",
")))))))))))))))))))))))))))))))))))))))))))))))))))))))))))))))))))))))))))))))))",
")))))))))))))))))))))))))))))))))))))))))))))))))))))))))))))))))))))))))))))))))",
")))))))))))))))))))))))))))))))))))))))))))))))))))))))))))))))))))))))))))))))))",
")))))))))))))))))))))))))))))))))))))))))))))))))))))))))))))))))))))))))))))))))",
")))))))))))))))))))))))))))))))))))))))))))))))))))))))))))))))))))))))))))))))))",
")))))))))))))))))))))))))))))))))))))))))))))))))))))))))))))))))))))))))))))))))",
")))))))))))))))))))))))))))))))))))))))))))))))))))))))))))))))))))))))))))))))))",
")))))))))))))))))))))))))))))))))))))))))))))))))))))))))))))))))))))))))))))))))",
")))))))))))))))))))))))))))))))))))))))))))))))))))))))))))))))))))))))))))))))))",
")))))))))))))))))))))))))))))))))))))))))))))))))))))))))))))))))))))))))))))))))",
")))))))))))))))))))))))))))))))))))))))))))))))))))))))))))))))))))))))))))))))))",
")))))))))))))))))))))))))))))))))))))))))))))))))))))))))))))))))))))))))))))))))",
")))))))))))))))))))))))))))))))))))))))))))))))))))))))))))))))))))))))))))))))))",
")))))))))))))))))))))))))))))))))))))))))))))))))))))))))))))))))))))))))))))))))",
"))                                                    )))))))))))))))))))))))    ",
")                                                     ))))))))))))))))))))))     ",
"))                                                    ))))))))))))))))))))))     ",
"))                                                    ))))))))))))))))))))))     ",
"))                                                    ))))))))))))))))))))))     ",
"))                                                    ))))))))))))))))))))))     ",
"))                                                    ))))))))))))))))))))))     ",
"))      #800000000000000000000000000000000000q4       ))))))))))))))))))))))     ",
"))      ,H^~~~~~~~~~~~~~~~~~~~~~~~~~~~~~~~~~~(u               ))))))))))))))     ",
"))      >STYYYYYYYYYYYYYYYYYYYYYYYYYYYYYYYYYY^t               ))))))))))))))     ",
"))      >STYYYYYYYYYYYYYYYYYYYYYYYYYYYYYYYYYY^t               ))))))))))))))     ",
"))      >STYYYYYYYYYYYYYYYYYYYYYYYYYYYYYYYYYY^t               ))))))))))))))     ",
"))      >STYYYYYYYYYYYYYYYYYYYYYYYYYYYYYYYYYY^t               ))))))))))))))     ",
"))      >STYYYYYYYYYYYYYYYYYYYYYYYYYYYYYYYYYY^t               ))))))))))))))     ",
"))      >STYYYYYYYYYYYYYYYYYYYYYYYYYYYYYYYYYY^i +++++O        ))))))))))))))     ",
"))      >STYYYYYYYYYYYYYYYYYYYYYYYYYYYYYYYYYYRZvbbbbnj=              )))))))     ",
"))      >STYYYYYYYYYYYYYYYYYYYYYYYYYYYYYYYYYYYEQQQQQ!F>              )))))))     ",
"))      >STYYYYYYYYYYYYYYYYYYYYYYYYYYYYYYYYYYYYYYYYYTS>              )))))))     ",
"))      >STYYYYYYYYYYYYYYYYYYYYYYYYYYYYYYYYYYYYYYYYYTS>              )))))))     ",
"))      >STYYYYYYYYYYYYYYYYYYYYYYYYYYYYYYYYYYYYYYYYYTS>              )))))))     ",
"))      >STYYYYYYYYYYYYYYYYYYYYYYYYYYYYYYYYYYYYYYYYYTS>              )))))))     ",
"))      ,J^^^^^^^^^^^^^^^^^^^^^^^^^^^^^YYYYYYYYYYYYYTS>              )))))))     ",
"))      &pssssssssssssssssssssssssssssgLYYYYYYYYYYYYTS>              )))))))     ",
"))                                    ;STYYYYYYYYYYYTS>              )))))))     ",
"))                                    >STYYYYYYYYYYYTS>              )))))))     ",
"))                                    >STYYYYYYYYYYYTS>              )))))))     ",
"))                                    >STYYYYYYYYYYYTS>              )))))))     ",
"))                                    >STYYYYYYYYYYYTS>              )))))))     ",
"))                                    >STYYYYYYYYYYYTS>              )))))))     ",
"))                      .XXXXXXXXXXXX ,STYYYYYYYYYYYTS>              )))))))     ",
")))))))))              *dzlllllllllllkxIYYYYYYYYYYYYTS>              )))))))     ",
")))))))))              ,H^~~~~~~~~~~~~!YYYYYYYYYYYYYTS>              )))))))     ",
")))))))))              >STYYYYYYYYYYYYYYYYYYYYYYYYYYTS>              )))))))     ",
")))))))))              >STYYYYYYYYYYYYYYYYYYYYYYYYYYTS>              )))))))     ",
")))))))))              >STYYYYYYYYYYYYYYYYYYYYYYYYYYTS>              )))))))     ",
")))))))))              >STYYYYYYYYYYYYYYYYYYYYYYYYYYTS>              )))))))     ",
")))))))))              >STYYYYYYYYYYYYYYYYYYYYE~~~~~^H,              )))))))     ",
")))))))))              >STYYYYYYYYYYYYYYYYYYYEBhllllzd*              )))))))     ",
"))))))))))))))))       >STYYYYYYYYYYYYYYYYYYY^y XXXXX.               )))))))     ",
"))))))))))))))))       >STYYYYYYYYYYYYYYYYYYY^t                      )))))))     ",
"))))))))))))))))       >STYYYYYYYYYYYYYYYYYYY^t                      )))))))     ",
"))))))))))))))))       >STYYYYYYYYYYYYYYYYYYY^t                      )))))))     ",
"))))))))))))))))       >STYYYYYYYYYYYYYYYYYYY^t                      )))))))     ",
"))))))))))))))))       >STYYYYYYYYYYYYYYYYYYY^t                      )))))))     ",
")))))))))))))))))      >DQEEEEEEEEEEEEEYYYYYY^r                      )))))))     ",
"))                     @677777777777779KTYYYYEmasssssp&              )))))))     ",
")                                     *ATYYYYYW^^^^^^J,              )))))))     ",
"))                                    >STYYYYYYYYYYYTS>              )))))))     ",
"))                                    >STYYYYYYYYYYYTS>              )))))))     ",
"))                                    >STYYYYYYYYYYYTS>              )))))))     ",
"))                                    >STYYYYYYYYYYYTS>              )))))))     ",
"))                                    -STYYYYYYYYYYYTS>              )))))))     ",
"))      o<32222222222222222222222222215GTYYYYYYYYYYYTS>              )))))))     ",
"))      :CUPPPPPPPPPPPPPPPPPPPPPPPPPPPIYYYYYYYYYYYYYTS>              )))))))     ",
"))      >STYYYYYYYYYYYYYYYYYYYYYYYYYYYYYYYYYYYYYYYYYTS>              )))))))     ",
"))      >STYYYYYYYYYYYYYYYYYYYYYYYYYYYYYYYYYYYYYYYYYTS>              )))))))     ",
"))      >STYYYYYYYYYYYYYYYYYYYYYYYYYYYYYYYYYYYYYYYYYTS>              )))))))     ",
"))      >STYYYYYYYYYYYYYYYYYYYYYYYYYYYYYYYYYYYYYYYYYTS>              )))))))     ",
"))      >STYYYYYYYYYYYYYYYYYYYYYYYYYYYYYYYYYYYYYYYYYTS>              )))))))     ",
"))      >STYYYYYYYYYYYYYYYYYYYYYYYYYYYYYYYYYYYE~~~~~^H,              )))))))     ",
"))      >STYYYYYYYYYYYYYYYYYYYYYYYYYYYYYYYYYY!f9000008#              )))))))     ",
"))      >STYYYYYYYYYYYYYYYYYYYYYYYYYYYYYYYYYY^e                      )))))))     ",
"))      >STYYYYYYYYYYYYYYYYYYYYYYYYYYYYYYYYYY^t                      )))))))     ",
"))      >STYYYYYYYYYYYYYYYYYYYYYYYYYYYYYYYYYY^t                      )))))))     ",
"))      >STYYYYYYYYYYYYYYYYYYYYYYYYYYYYYYYYYY^t                      )))))))     ",
"))      >STYYYYYYYYYYYYYYYYYYYYYYYYYYYYYYYYYY^t                      )))))))     ",
"))      >DWEEEEEEEEEEEEEEEEEEEEEEEEEEEEEEEEEE/y                      )))))))     ",
"))      -cNMMMMMMMMMMMMMMMMMMMMMMMMMMMMMMMMMMVw                      )))))))     ",
"))      X$%%%%%%%%%%%%%%%%%%%%%%%%%%%%%%%%%%%%+                      )))))))     ",
"))                                                                   )))))))     ",
"))                                                                   )))))))     ",
"))                                                                   )))))))     ",
"))                                                                   )))))))     ",
"))                                                                   )))))))     ",
")                                                                    )))))))     ",
"))))))))                                                      )))))))))))))))))))",
")))))))))                                                    ))))))))))))))))))))",
")))))))))                                                     )))))))))))))))))))",
")))))))))                                                     )))))))))))))))))))",
")))))))))                                                     )))))))))))))))))))",
")))))))))                                                     )))))))))))))))))))",
")))))))))                                                     )))))))))))))))))))",
")))))))))                                                     )))))))))))))))))))"
};
