/* XPM */
static char *result[] = {
/* columns rows colors chars-per-pixel */
"81 98 49 1 ",
"  c black",
". c #010000",
"X c #010100",
"o c #060300",
"O c #070300",
"+ c #0B0500",
"@ c #0C0600",
"# c #100800",
"$ c #120900",
"% c #150B00",
"& c #160B00",
"* c #311800",
"= c #492500",
"- c #4C2600",
"; c #502800",
": c #5E2F00",
"> c #623100",
", c #653200",
"< c #6D3600",
"1 c #7A3D00",
"2 c #7D3F00",
"3 c #7E3F00",
"4 c #7F4000",
"5 c #A55300",
"6 c #AB5600",
"7 c #B95D00",
"8 c #BB5E00",
"9 c #BC5E00",
"0 c #C76300",
"q c #D96D00",
"w c #DA6D00",
"e c #DB6D00",
"r c #DF6F00",
"t c #E47200",
"y c #E57200",
"u c #E77300",
"i c #E97500",
"p c #EC7600",
"a c #FA7D00",
"s c #FB7D00",
"d c #FB7E00",
"f c #FC7E00",
"g c #FD7E00",
"h c #FD7F00",
"j c #FF7F00",
"k c #FF8000",
"l c #FF8100",
"z c #FF8300",
"x c None",
/* pixels */
"xxxxxxxxxxxxxxxxxxxxxxxxxxxxxxxxxxxxxxxxxxxxxxxxxxxxxxxxxxxxxxxxxxxxxxxxxxxxxxxxx",
"xxxxxxxxxxxxxxxxxxxxxxxxxxxxxxxxxxxxxxxxxxxxxxxxxxxxxxxxxxxxxxxxxxxxxxxxxxxxxxxxx",
"xxxxxxxxxxxxxxxxxxxxxxxxxxxxxxxxxxxxxxxxxxxxxxxxxxxxxxxxxxxxxxxxxxxxxxxxxxxxxxxxx",
"xxxxxxxxxxxxxxxxxxxxxxxxxxxxxxxxxxxxxxxxxxxxxxxxxxxxxxxxxxxxxxxxxxxxxxxxxxxxxxxxx",
"xxxxxxxxxxxxxxxxxxxxxxxxxxxxxxxxxxxxxxxxxxxxxxxxxxxxxxxxxxxxxxxxxxxxxxxxxxxxxxxxx",
"xxxxxxxxxxxxxxxxxxxxxxxxxxxxxxxxxxxxxxxxxxxxxxxxxxxxxxxxxxxxxxxxxxxxxxxxxxxxxxxxx",
"xxxxxxxxxxxxxxxxxxxxxxxxxxxxxxxxxxxxxxxxxxxxxxxxxxxxxxxxxxxxxxxxxxxxxxxxxxxxxxxxx",
"xxxxxxxxxxxxxxxxxxxxxxxxxxxxxxxxxxxxxxxxxxxxxxxxxxxxxxxxxxxxxxxxxxxxxxxxxxxxxxxxx",
"xxxxxxx                                                     xxxxxxxxxxxxxxxxxxxxx",
"xxxxxxx                                                     xxxxxxxxxxxxxxxxxxxxx",
"xxxxxxx                                                     xxxxxxxxxxxxxxxxxxxxx",
"xxxxxxx                                                     xxxxxxxxxxxxxxxxxxxxx",
"xxxxxxx                                                     xxxxxxxxxxxxxxxxxxxxx",
"xxxxxxx                                                     xxxxxxxxxxxxxxxxxxxxx",
"xxxxxxx       X+@@@@@@@@@@@@@+X      o@@@@@@@@@@@@@@o       xxxxxxxxxxxxxxxxxxxxx",
"xxxxxxx       $0wqqqqqqqqqqqw0$      <rqqqqqqqqqqqqr<       xxxxxxxxxxxxxxxxxxxxx",
"xxxxxxx       %ugfffffffffffgu%      3lffffffffffffl3       xxxxxxxxxxxxxxxxxxxxx",
"xxxxxxx       %ysaaaaaaaaaaasy%      2kaaaaaaaaaaaak2       xxxxxxxxxxxxxxxxxxxxx",
"xxxxxxx       %ysaaaaaaaaaaasy%      2kaaaaaaaaaaaak2       xxxxxxxxxxxxxxxxxxxxx",
"xxxxxxx       %ysaaaaaaaaaaasy%      2kaaaaaaaaaaaak2       xxxxxxxxxxxxxxxxxxxxx",
"xxxxxxx       %ysaaaaaaaaaaasy%      2kaaaaaaaaaaaak2       xxxxxxxxxxxxxxxxxxxxx",
"xxxxxxx       %ysaaaaaaaaaaasy%      2kaaaaaaaaaaaak2       xxxxxxxxxxxxxxxxxxxxx",
"xxxxxxx       %ysaaaaaaaaaaasy%      2kaaaaaaaaaaaak2       xxxxxxxxxxxxxxxxxxxxx",
"xxxxxxx       %ysaaaaaaaaaaasy%      2kaaaaaaaaaaaak2       xxxxxxxxxxxxxxxxxxxxx",
"xxxxxxx       %ysaaaaaaaaaaasy%      2kaaaaaaaaaaaak2       xxxxxxxxxxxxxxxxxxxxx",
"xxxxxxx       %ysaaaaaaaaaaasy%      2kaaaaaaaaaaaak2       xxxxxxxxxxxxxxxxxxxxx",
"xxxxxxx       %ysaaaaaaaaaaasy%      2kaaaaaaaaaaaak2       xxxxxxxxxxxxxxxxxxxxx",
"xxxxxxx       %ysaaaaaaaaaaasy%      2kaaaaaaaaaaaak2       xxxxxxxxxxxxxxxxxxxxx",
"xxxxxxx       %ysaaaaaaaaaaasy%      2kaaaaaaaaaaaak2       xxxxxxxxxxxxxxxxxxxxx",
"xxxxxxx       %ysaaaaaaaaaaasy%      2kaaaaaaaaaaaak2       xxxxxxxxxxxxxxxxxxxxx",
"xxxxxxx       %ysaaaaaaaaaaasy%      2kaaaaaaaaaaaak2              xxxxxxxxxxxxxx",
"xxxxxxx       %ysaaaaaaaaaaasy%      2kaaaaaaaaaaaak2               xxxxxxxxxxxxx",
"xxxxxxx       %ysaaaaaaaaaaasy%      2kaaaaaaaaaaaak2               xxxxxxxxxxxxx",
"xxxxxxx       %ysaaaaaaaaaaasy%      2kaaaaaaaaaaaak2               xxxxxxxxxxxxx",
"xxxxxxx       %ysaaaaaaaaaaasy%      2kaaaaaaaaaaaak2               xxxxxxxxxxxxx",
"xxxxxxx       %ysaaaaaaaaaaasy%      2kaaaaaaaaaaaak2               xxxxxxxxxxxxx",
"xxxxxxx       %ysaaaaaaaaaaast#      1kaaaaaaaaaaaak1              xxxxxxxxxxxxxx",
"xxxxxxx       %ysaaaaaaaaaaasp:;;;;;-5jaaaaaaaaaaaaj5-;;;;;=O       xxxxxxxxxxxxx",
"xxxxxxx       %ysaaaaaaaaaaaaafffffffdaaaaaaaaaaaaaadfffffhu%              xxxxxx",
"xxxxxxx       %ysaaaaaaaaaaaaaaaaaaaaaaaaaaaaaaaaaaaaaaaaasy%              xxxxxx",
"xxxxxxx       %ysaaaaaaaaaaaaaaaaaaaaaaaaaaaaaaaaaaaaaaaaasy%              xxxxxx",
"xxxxxxx       %ysaaaaaaaaaaaaaaaaaaaaaaaaaaaaaaaaaaaaaaaaasy%              xxxxxx",
"xxxxxxx       %ysaaaaaaaaaaaaaaaaaaaaaaaaaaaaaaaaaaaaaaaaasy%              xxxxxx",
"xxxxxxx       %ysaaaaaaaaaaaaaaaaaaaaaaaaaaaaaaaaaaaaaaaaasy%              xxxxxx",
"xxxxxxx       %ysaaaaaaaaaaaaaaaaaaaaaaaaaaaaaaaaaaaaaaaaasy%              xxxxxx",
"xxxxxxx       %ysaaaaaaaaaaaaaaaaaaaaaaaaaaaaaaaaaaaaaaaaasy%              xxxxxx",
"xxxxxxx       %ysaaaaaaaaaaaaaaaaaaaaaaaaaaaaaaaaaaaaaaaaasy%              xxxxxx",
"xxxxxxx       %ysaaaaaaaaaaaaaaaaaaaaaaaaaaaaaaaaaaaaaaaaasy%              xxxxxx",
"xxxxxxx       %ysaaaaaaaaaaaaaaaaaaaaaaaaaaaaaaaaaaaaaaaaasy%              xxxxxx",
"xxxxxxx       %ysaaaaaaaaaaaaaaaaaaaaaaaaaaaaaaaaaaaaaaaaasy%              xxxxxx",
"xxxxxxx       %ysaaaaaaaaaaaaaaaaaaaaaaaaaaaaaaaaaaaaaaaaasy%              xxxxxx",
"xxxxxxx       &ikjjjjjjjjjjjjjjjjjjjjfaaaaaaaaaaaaaafjjjjjki&              xxxxxx",
"xxxxxxx       #6988888888888888888887efaaaaaaaaaaaafe7888896#              xxxxxx",
"xxxxxxx        .XXXXXXXXXXXXXXXXXXXX 3kaaaaaaaaaaaak3 XXXXX.               xxxxxx",
"xxxxxxx                              2kaaaaaaaaaaaak2                      xxxxxx",
"xxxxxxx                              2kaaaaaaaaaaaak2                      xxxxxx",
"xxxxxxx                              2kaaaaaaaaaaaak2                      xxxxxx",
"xxxxxxx                              2kaaaaaaaaaaaak2                      xxxxxx",
"xxxxxxx                              2kaaaaaaaaaaaak2                      xxxxxx",
"xxxxxxx                              2kaaaaaaaaaaaak2                      xxxxxx",
"xxxxxxxxxxxxxxx                      2kaaaaaaaaaaaak2                      xxxxxx",
"xxxxxxxxxxxxxxx                      2kaaaaaaaaaaaak2                      xxxxxx",
"xxxxxxxxxxxxxxx                      2kaaaaaaaaaaaak2                      xxxxxx",
"xxxxxxxxxxxxxxx                      2kaaaaaaaaaaaak2                      xxxxxx",
"xxxxxxxxxxxxxxx                      2kaaaaaaaaaaaak2                      xxxxxx",
"xxxxxxxxxxxxxxx                      2kaaaaaaaaaaaak2                      xxxxxx",
"xxxxxxxxxxxxxxx                      2kaaaaaaaaaaaak2                      xxxxxx",
"xxxxxxxxxxxxxxx                      2kaaaaaaaaaaaak2                      xxxxxx",
"xxxxxxxxxxxxxxxxxxxxxx               2kaaaaaaaaaaaak2       xxxxxxxxxxxxxxxxxxxxx",
"xxxxxxxxxxxxxxxxxxxxxx               2kaaaaaaaaaaaak2       xxxxxxxxxxxxxxxxxxxxx",
"xxxxxxxxxxxxxxxxxxxxxx               2kaaaaaaaaaaaak2       xxxxxxxxxxxxxxxxxxxxx",
"xxxxxxxxxxxxxxxxxxxxxx               2kaaaaaaaaaaaak2       xxxxxxxxxxxxxxxxxxxxx",
"xxxxxxxxxxxxxxxxxxxxxx               2kaaaaaaaaaaaak2       xxxxxxxxxxxxxxxxxxxxx",
"xxxxxxxxxxxxxxxxxxxxxx               2kaaaaaaaaaaaak2       xxxxxxxxxxxxxxxxxxxxx",
"xxxxxxxxxxxxxxxxxxxxxx               4zjjjjjjjjjjjjz4       xxxxxxxxxxxxxxxxxxxxx",
"xxxxxxxxxxxxxxxxxxxxxx               *,>>>>>>>>>>>>,*       xxxxxxxxxxxxxxxxxxxxx",
"xxxxxxxxxxxxxxxxxxxxxx                                      xxxxxxxxxxxxxxxxxxxxx",
"xxxxxxxxxxxxxxxxxxxxxx                                      xxxxxxxxxxxxxxxxxxxxx",
"xxxxxxxxxxxxxxxxxxxxxx                                      xxxxxxxxxxxxxxxxxxxxx",
"xxxxxxxxxxxxxxxxxxxxxx                                      xxxxxxxxxxxxxxxxxxxxx",
"xxxxxxxxxxxxxxxxxxxxxx                                      xxxxxxxxxxxxxxxxxxxxx",
"xxxxxxxxxxxxxxxxxxxxxx                                      xxxxxxxxxxxxxxxxxxxxx",
"xxxxxxxxxxxxxxxxxxxxxxx                                     xxxxxxxxxxxxxxxxxxxxx",
"xxxxxxxxxxxxxxxxxxxxxxxxxxxxxx                              xxxxxxxxxxxxxxxxxxxxx",
"xxxxxxxxxxxxxxxxxxxxxxxxxxxxxx                              xxxxxxxxxxxxxxxxxxxxx",
"xxxxxxxxxxxxxxxxxxxxxxxxxxxxxx                              xxxxxxxxxxxxxxxxxxxxx",
"xxxxxxxxxxxxxxxxxxxxxxxxxxxxxx                              xxxxxxxxxxxxxxxxxxxxx",
"xxxxxxxxxxxxxxxxxxxxxxxxxxxxxx                              xxxxxxxxxxxxxxxxxxxxx",
"xxxxxxxxxxxxxxxxxxxxxxxxxxxxxx                              xxxxxxxxxxxxxxxxxxxxx",
"xxxxxxxxxxxxxxxxxxxxxxxxxxxxxx                              xxxxxxxxxxxxxxxxxxxxx",
"xxxxxxxxxxxxxxxxxxxxxxxxxxxxxxxxxxxxxxxxxxxxxxxxxxxxxxxxxxxxxxxxxxxxxxxxxxxxxxxxx",
"xxxxxxxxxxxxxxxxxxxxxxxxxxxxxxxxxxxxxxxxxxxxxxxxxxxxxxxxxxxxxxxxxxxxxxxxxxxxxxxxx",
"xxxxxxxxxxxxxxxxxxxxxxxxxxxxxxxxxxxxxxxxxxxxxxxxxxxxxxxxxxxxxxxxxxxxxxxxxxxxxxxxx",
"xxxxxxxxxxxxxxxxxxxxxxxxxxxxxxxxxxxxxxxxxxxxxxxxxxxxxxxxxxxxxxxxxxxxxxxxxxxxxxxxx",
"xxxxxxxxxxxxxxxxxxxxxxxxxxxxxxxxxxxxxxxxxxxxxxxxxxxxxxxxxxxxxxxxxxxxxxxxxxxxxxxxx",
"xxxxxxxxxxxxxxxxxxxxxxxxxxxxxxxxxxxxxxxxxxxxxxxxxxxxxxxxxxxxxxxxxxxxxxxxxxxxxxxxx",
"xxxxxxxxxxxxxxxxxxxxxxxxxxxxxxxxxxxxxxxxxxxxxxxxxxxxxxxxxxxxxxxxxxxxxxxxxxxxxxxxx",
"xxxxxxxxxxxxxxxxxxxxxxxxxxxxxxxxxxxxxxxxxxxxxxxxxxxxxxxxxxxxxxxxxxxxxxxxxxxxxxxxx"
};
