/* XPM */
static char *result[] = {
/* columns rows colors chars-per-pixel */
"81 98 65 1 ",
"  c black",
". c #010000",
"X c #010100",
"o c #060300",
"O c #0B0500",
"+ c #0C0600",
"@ c #0F0800",
"# c #100800",
"$ c #110800",
"% c #120900",
"& c #150B00",
"* c #160B00",
"= c #1F1000",
"- c #2A1500",
"; c #2F1700",
": c #311800",
"> c #3E1F00",
", c #3F1F00",
"< c #412000",
"1 c #4C2600",
"2 c #4F2700",
"3 c #502800",
"4 c #613100",
"5 c #623100",
"6 c #653200",
"7 c #6D3600",
"8 c #6F3700",
"9 c #7A3D00",
"0 c #7B3E00",
"q c #7C3E00",
"w c #7D3F00",
"e c #7E3F00",
"r c #7F4000",
"t c #944A00",
"y c #A55300",
"u c #AB5600",
"i c #B95D00",
"p c #BB5E00",
"a c #BC5E00",
"s c #C76300",
"d c #D96D00",
"f c #DA6D00",
"g c #DB6D00",
"h c #DF6F00",
"j c #E47200",
"k c #E57200",
"l c #E77300",
"z c #E97500",
"x c #EA7500",
"c c #ED7700",
"v c #F47A00",
"b c #F77C00",
"n c #F97C00",
"m c #F97D00",
"M c #FA7D00",
"N c #FB7D00",
"B c #FB7E00",
"V c #FC7E00",
"C c #FD7E00",
"Z c #FE7F00",
"A c #FF7F00",
"S c #FF8000",
"D c #FF8100",
"F c #FF8300",
"G c None",
/* pixels */
"GGGGGGGGGGGGGGGGGGGGGGGGGGGGGGGGGGGGGGGGGGGGGGGGGGGGGGGGGGGGGGGGGGGGGGGGGGGGGGGGG",
"GGGGGGGGGGGGGGGGGGGGGGGGGGGGGGGGGGGGGGGGGGGGGGGGGGGGGGGGGGGGGGGGGGGGGGGGGGGGGGGGG",
"GGGGGGGGGGGGGGGGGGGGGGGGGGGGGGGGGGGGGGGGGGGGGGGGGGGGGGGGGGGGGGGGGGGGGGGGGGGGGGGGG",
"GGGGGGGGGGGGGGGGGGGGGGGGGGGGGGGGGGGGGGGGGGGGGGGGGGGGGGGGGGGGGGGGGGGGGGGGGGGGGGGGG",
"GGGGGGGGGGGGGGGGGGGGGGGGGGGGGGGGGGGGGGGGGGGGGGGGGGGGGGGGGGGGGGGGGGGGGGGGGGGGGGGGG",
"GGGGGGGGGGGGGGGGGGGGGGGGGGGGGGGGGGGGGGGGGGGGGGGGGGGGGGGGGGGGGGGGGGGGGGGGGGGGGGGGG",
"GGGGGGGGGGGGGGGGGGGGGGGGGGGGGGGGGGGGGGGGGGGGGGGGGGGGGGGGGGGGGGGGGGGGGGGGGGGGGGGGG",
"GGGGGGGGGGGGGGGGGGGGGGGGGGGGGGGGGGGGGGGGGGGGGGGGGGGGGGGGGGGGGGGGGGGGGGGGGGGGGGGGG",
"GGGGGGGGGGGGGGGGGGGGGGGGGGGGGGGGGGGGGGGGGGGGGGGGGGGGGGGGGGGGGGGGGGGGGGGGGGGGGGGGG",
"GGGGGGGGGGGGGGGGGGGGGGGGGGGGGGGGGGGGGGGGGGGGGGGGGGGGGGGGGGGGGGGGGGGGGGGGGGGGGGGGG",
"GGGGGGGGGGGGGGGGGGGGGGGGGGGGGGGGGGGGGGGGGGGGGGGGGGGGGGGGGGGGGGGGGGGGGGGGGGGGGGGGG",
"GGGGGGGGGGGGGGGGGGGGGGGGGGGGGGGGGGGGGGGGGGGGGGGGGGGGGGGGGGGGGGGGGGGGGGGGGGGGGGGGG",
"GGGGGGGGGGGGGGGGGGGGGGGGGGGGGGGGGGGGGGGGGGGGGGGGGGGGGGGGGGGGGGGGGGGGGGGGGGGGGGGGG",
"GGGGGGGGGGGGGGGGGGGGGGGGGGGGGGGGGGGGGGGGGGGGGGGGGGGGGGGGGGGGGGGGGGGGGGGGGGGGGGGGG",
"GGGGGGGGGGGGGGGGGGGGGGGGGGGGGGGGGGGGGGGGGGGGGGGGGGGGGGGGGGGGGGGGGGGGGGGGGGGGGGGGG",
"GGGGGGGGGGGG                              GGGGGGGGGGGGGGGGGGGGGGGGGGGGGGGGGGGGGGG",
"GGGGGGGGGGGG                              GGGGGGGGGGGGGGGGGGGGGGGGGGGGGGGGGGGGGGG",
"GGGGGGGGGGGG                              GGGGGGGGGGGGGGGGGGGGGGGGGGGGGGGGGGGGGGG",
"GGGGGGGGGGGG                              GGGGGGGGGGGGGGGGGGGGGGGGGGGGGGGGGGGGGGG",
"GGGGGGGGGGGG                              GGGGGGGGGGGGGGGGGGGGGGGGGGGGGGGGGGGGGGG",
"GGGGGGGGGGGG                              GGGGGGGGGGGGGGGGGGGGGGGGGGGGGGGGGGGGGGG",
"GGGGGGGGGGGG                              GGGGGGGGGGGGGGGGGGGGGGGGGGGGGGGGGGGGGGG",
"GGGGGGGGGGGG       :65555555555556:       GGGGGGGGGGGGGGGGGGGGGGGGGGGGGGGGGGGGGGG",
"GGGGGGGGGGGG       rFAAAAAAAAAAAAFr               GGGGGGGGGGGGGGGGGGGGGGGGGGGGGGG",
"GGGGGGGGGGGG       wSMMMMMMMMMMMMSw               GGGGGGGGGGGGGGGGGGGGGGGGGGGGGGG",
"GGGGGGGGGGGG       wSMMMMMMMMMMMMSw               GGGGGGGGGGGGGGGGGGGGGGGGGGGGGGG",
"GGGGGGGGGGGG       wSMMMMMMMMMMMMSw               GGGGGGGGGGGGGGGGGGGGGGGGGGGGGGG",
"GGGGGGGGGGGG       wSMMMMMMMMMMMMSw               GGGGGGGGGGGGGGGGGGGGGGGGGGGGGGG",
"GGGGGGGGGGGG       wSMMMMMMMMMMMMSw               GGGGGGGGGGGGGGGGGGGGGGGGGGGGGGG",
"GGGGGGGGGGGG       wSMMMMMMMMMMMMSw               GGGGGGGGGGGGGGGGGGGGGGGGGGGGGGG",
"GGGGGGGGGGGG       wSMMMMMMMMMMMMSw               GGGGGGGGGGGGGGGGGGGGGGGGGGGGGGG",
"GGGGGGGGGGGG       wSMMMMMMMMMMMMSw               GGGGGGGGGGGGGGGGGGGGGGGGGGGGGGG",
"GGGGGGGGGGGG       wSMMMMMMMMMMMMSw               GGGGGGGGGGGGGGGGGGGGGGGGGGGGGGG",
"GGGGGGGGGGGG       wSMMMMMMMMMMMMSw               GGGGGGGGGGGGGGGGGGGGGGGGGGGGGGG",
"GGGGGGGGGGGG       wSMMMMMMMMMMMMSw               GGGGGGGGGGGGGGGGGGGGGGGGGGGGGGG",
"GGGGGGGGGGGG       wSMMMMMMMMMMMMSw               GGGGGGGGGGGGGGGGGGGGGGGGGGGGGGG",
"GGGGGGGGGGGG       wSMMMMMMMMMMMMSw              GGGGGGGGGGGGGGGGGGGGGGGGGGGGGGGG",
"GGGGGGGGGGGG       wSMMMMMMMMMMMMSw               GGGGGGGGGGGGGGGGGGGGGGGGGGGGGGG",
"GGGGGGGGGGGG       wSMMMMMMMMMMMMSw                              GGGGGGGGGGGGGGGG",
"GGGGGGGGGGGG       wSMMMMMMMMMMMMSw                              GGGGGGGGGGGGGGGG",
"GGGGGGGGGGGG       wSMMMMMMMMMMMMSw                              GGGGGGGGGGGGGGGG",
"GGGGGGGGGGGG       wSMMMMMMMMMMMMSw                              GGGGGGGGGGGGGGGG",
"GGGGGGGGGGGG       wSMMMMMMMMMMMMSw                              GGGGGGGGGGGGGGGG",
"GGGGGGGGGGGG       wSMMMMMMMMMMMMSw                              GGGGGGGGGGGGGGGG",
"GGGGGGGGGGGG       wSMMMMMMMMMMMMSe XXXXXXXXXXXXXXXXXXXX.        GGGGGGGGGGGGGGGG",
"GGGGGGGGGGGG       wSMMMMMMMMMMMMVgipppppppppppppppppppau#              GGGGGGGGG",
"GGGGGGGGGGGG       wSMMMMMMMMMMMMMVAAAAAAAAAAAAAAAAAAAASz*              GGGGGGGGG",
"GGGGGGGGGGGG       wSMMMMMMMMMMMMMMMMMMMMMMMMMMMMMMMMMMNk&              GGGGGGGGG",
"GGGGGGGGGGGG       wSMMMMMMMMMMMMMMMMMMMMMMMMMMMMMMMMMMNk&              GGGGGGGGG",
"GGGGGGGGGGGG       wSMMMMMMMMMMMMMMMMMMMMMMMMMMMMMMMMMMNk&              GGGGGGGGG",
"GGGGGGGGGGGG       wSMMMMMMMMMMMMMMMMMMMMMMMMMMMMMMMMMMNk&              GGGGGGGGG",
"GGGGGGGGGGGG       wSMMMMMMMMMMMMMMMMMMMMMMMMMMMMMMMMMMNj$              GGGGGGGGG",
"GGGGGGGGGGGG       wSMMMMMMMMMMMMMMMMMMMMMMMMMMMMMMMMMMNx2>,,,,<=       GGGGGGGGG",
"GGGGGGGGGGGG       wSMMMMMMMMMMMMMMMMMMMMMMMMMMMMMMMMMMMMmnnnnnSq              GG",
"GGGGGGGGGGGG       wSMMMMMMMMMMMMMMMMMMMMMMMMMMMMMMMMMMMMMMMMMMSw              GG",
"GGGGGGGGGGGG       wSMMMMMMMMMMMMMMMMMMMMMMMMMMMMMMMMMMMMMMMMMMSw              GG",
"GGGGGGGGGGGG       wSMMMMMMMMMMMMMMMMMMMMMMMMMMMMMMMMMMMMMMMMMMSw              GG",
"GGGGGGGGGGGG       wSMMMMMMMMMMMMMMMMMMMMMMMMMMMMMMMMMMMMMMMMMMSw              GG",
"GGGGGGGGGGGG       wSMMMMMMMMMMMMMMMMMMMMMMMMMMMMMMMMMMMMMMMMMMSw              GG",
"GGGGGGGGGGGG       wSMMMMMMMMMMMMMBVVVVVVVVVVVVVVBMMMMMMMMMMMMMSw              GG",
"GGGGGGGGGGGG       wSMMMMMMMMMMMMAy13333333333331yAMMMMMMMMMMMMSw              GG",
"GGGGGGGGGGGG       wSMMMMMMMMMMMMS9              9SMMMMMMMMMMMMSw              GG",
"GGGGGGGGGGGG       wSMMMMMMMMMMMMSw              wSMMMMMMMMMMMMSw              GG",
"GGGGGGGGGGGG       wSMMMMMMMMMMMMSw              wSMMMMMMMMMMMMSw              GG",
"GGGGGGGGGGGG       wSMMMMMMMMMMMMSw              wSMMMMMMMMMMMMSw              GG",
"GGGGGGGGGGGG       wSMMMMMMMMMMMMSw              wSMMMMMMMMMMMMSw              GG",
"GGGGGGGGGGGG       wSMMMMMMMMMMMMS0              0SMMMMMMMMMMMMSw              GG",
"GGGGGGGGGGGG       wSMMMMMMMMMMMMSt-;;;;;;;;;;;;-tSMMMMMMMMMMMMSw              GG",
"GGGGGGGGGGGG       wSMMMMMMMMMMMMMbvvvvvvvvvvvvvvbMMMMMMMMMMMMMSw              GG",
"GGGGGGGGGGGG       wSMMMMMMMMMMMMMMMMMMMMMMMMMMMMMMMMMMMMMMMMMMSw              GG",
"GGGGGGGGGGGG       wSMMMMMMMMMMMMMMMMMMMMMMMMMMMMMMMMMMMMMMMMMMSw              GG",
"GGGGGGGGGGGG       wSMMMMMMMMMMMMMMMMMMMMMMMMMMMMMMMMMMMMMMMMMMSw              GG",
"GGGGGGGGGGGG       wSMMMMMMMMMMMMMMMMMMMMMMMMMMMMMMMMMMMMMMMMMMSw              GG",
"GGGGGGGGGGGG       wSMMMMMMMMMMMMMMMMMMMMMMMMMMMMMMMMMMMMMMMMMMSw              GG",
"GGGGGGGGGGGG       rFAAAAAZMMMMMMMMMMMMMMMMMMMMMMMMMMMMMMMMMMMMSw              GG",
"GGGGGGGGGGGG       :6555548cNMMMMMMMMMMMMMMMMMMMMMMMMMMMMMMMMMMSw              GG",
"GGGGGGGGGGGG              @jNMMMMMMMMMMMMMMMMMMMMMMMMMMMMMMMMMMSw              GG",
"GGGGGGGGGGGG              &kNMMMMMMMMMMMMMMMMMMMMMMMMMMMMMMMMMMSw              GG",
"GGGGGGGGGGGG              &kNMMMMMMMMMMMMMMMMMMMMMMMMMMMMMMMMMMSw              GG",
"GGGGGGGGGGGG              &kNMMMMMMMMMMMMMMMMMMMMMMMMMMMMMMMMMMSw              GG",
"GGGGGGGGGGGG              &kNMMMMMMMMMMMMMMMMMMMMMMMMMMMMMMMMMMSw              GG",
"GGGGGGGGGGGG              &lCVVVVVVVVVVVVVVVVVVVVVVVVVVVVVVVVVVDe              GG",
"GGGGGGGGGGGG              %sfddddddddddddddddddddddddddddddddddh7              GG",
"GGGGGGGGGGGGGGGGGGG       XO++++++++++++++++++++++++++++++++++++o              GG",
"GGGGGGGGGGGGGGGGGGGG                                                           GG",
"GGGGGGGGGGGGGGGGGGG                                                            GG",
"GGGGGGGGGGGGGGGGGGG                                                            GG",
"GGGGGGGGGGGGGGGGGGG                                                            GG",
"GGGGGGGGGGGGGGGGGGG                                                            GG",
"GGGGGGGGGGGGGGGGGGG                                                             G",
"GGGGGGGGGGGGGGGGGGGGGGGGGG                                               GGGGGGGG",
"GGGGGGGGGGGGGGGGGGGGGGGGGGG                                             GGGGGGGGG",
"GGGGGGGGGGGGGGGGGGGGGGGGGGG                                             GGGGGGGGG",
"GGGGGGGGGGGGGGGGGGGGGGGGGGG                                             GGGGGGGGG",
"GGGGGGGGGGGGGGGGGGGGGGGGGGG                                             GGGGGGGGG",
"GGGGGGGGGGGGGGGGGGGGGGGGGGG                                             GGGGGGGGG",
"GGGGGGGGGGGGGGGGGGGGGGGGGGG                                             GGGGGGGGG",
"GGGGGGGGGGGGGGGGGGGGGGGGGGG                                             GGGGGGGGG"
};
