/* XPM */
static char *result[] = {
/* columns rows colors chars-per-pixel */
"81 98 41 1 ",
"  c black",
". c #010000",
"X c #010100",
"o c #060300",
"O c #0C0600",
"+ c #281400",
"@ c #311800",
"# c #4C2600",
"$ c #502800",
"% c #522900",
"& c #552A00",
"* c #5E2F00",
"= c #623100",
"- c #653200",
"; c #6D3600",
": c #7A3D00",
"> c #7C3E00",
", c #7D3F00",
"< c #7E3F00",
"1 c #7F4000",
"2 c #804000",
"3 c #A55300",
"4 c #A85400",
"5 c #AA5500",
"6 c #AE5700",
"7 c #B95D00",
"8 c #BB5E00",
"9 c #C06000",
"0 c #D26900",
"q c #D96D00",
"w c #DB6D00",
"e c #DF6F00",
"r c #FA7D00",
"t c #FB7E00",
"y c #FC7E00",
"u c #FD7E00",
"i c #FF7F00",
"p c #FF8000",
"a c #FF8100",
"s c #FF8300",
"d c None",
/* pixels */
"ddddddddddddddddddddddddddddddddddddddddddddddddddddddddddddddddddddddddddddddddd",
"ddddddddddddddddddddddddddddddddddddddddddddddddddddddddddddddddddddddddddddddddd",
"ddddddddddddddddddddddddddddddddddddddddddddddddddddddddddddddddddddddddddddddddd",
"ddddddddddddddddddddddddddddddddddddddddddddddddddddddddddddddddddddddddddddddddd",
"ddddddddddddddddddddddddddddddddddddddddddddddddddddddddddddddddddddddddddddddddd",
"ddddddddddddddddddddddddddddddddddddddddddddddddddddddddddddddddddddddddddddddddd",
"ddddddddddddddddddddddddddddddddddddddddddddddddddddddddddddddddddddddddddddddddd",
"ddddddddddddddddddddddddddddddddddddddddddddddddddddddddddddddddddddddddddddddddd",
"ddddddddddddddddddddddddddddddddddddddddddddddddddddddddddddddddddddddddddddddddd",
"ddddddddddddddddddddddddddddddddddddddddddddddddddddddddddddddddddddddddddddddddd",
"ddddddddddddddddddddddddddddddddddddddddddddddddddddddddddddddddddddddddddddddddd",
"ddddddddddddddddddddddddddddddddddddddddddddddddddddddddddddddddddddddddddddddddd",
"ddddddddddddddddddddddddddddddddddddddddddddddddddddddddddddddddddddddddddddddddd",
"ddddddddddddddddddddddddddddddddddddddddddddddddddddddddddddddddddddddddddddddddd",
"ddddddddddddddddddddddddddddddddddddddddddddddddddddddddddddddddddddddddddddddddd",
"dddddd                                                            ddddddddddddddd",
"dddddd                                                            ddddddddddddddd",
"dddddd                                                            ddddddddddddddd",
"dddddd                                                            ddddddddddddddd",
"dddddd                                                            ddddddddddddddd",
"dddddd                                                            ddddddddddddddd",
"dddddd                                                            ddddddddddddddd",
"dddddd       @-==========================================-@       ddddddddddddddd",
"dddddd       1siiiiiiiiiiiiiiiiiiiiiiiiiiiiiiiiiiiiiiiiiis1               ddddddd",
"dddddd       ,prrrrrrrrrrrrrrrrrrrrrrrrrrrrrrrrrrrrrrrrrrp,               ddddddd",
"dddddd       ,prrrrrrrrrrrrrrrrrrrrrrrrrrrrrrrrrrrrrrrrrrp,               ddddddd",
"dddddd       ,prrrrrrrrrrrrrrrrrrrrrrrrrrrrrrrrrrrrrrrrrrp,               ddddddd",
"dddddd       ,prrrrrrrrrrrrrrrrrrrrrrrrrrrrrrrrrrrrrrrrrrp,               ddddddd",
"dddddd       ,prrrrrrrrrrrrrrrrrrrrrrrrrrrrrrrrrrrrrrrrrrp,               ddddddd",
"dddddd       ,prrrrrrrrrrrrrrrrrrrrrrrrrrrrrrrrrrrrrrrrrrp,               ddddddd",
"dddddd       ,prrrrrrrrrrrrrrrrrrrrrrrrrrrrrrrrrrrrrrrrrrp,               ddddddd",
"dddddd       ,prrrrrrrrrrrrrrrrrrrrrrrrrrrrrrrrrrrrrrrrrrp,               ddddddd",
"dddddd       ,prrrrrrrrrrrrrrrrrrrrrrrrrrrrrrrrrrrrrrrrrrp,               ddddddd",
"dddddd       ,prrrrrrrrrrrrrrrrrrrrrrrrrrrrrrrrrrrrrrrrrrp,               ddddddd",
"dddddd       ,prrrrrrrrrrrrrrrrrrrrrrrrrrrrrrrrrrrrrrrrrrp,               ddddddd",
"dddddd       ,prrrrrrrrrrrrrrrrrrrrrrrrrrrrrrrrrrrrrrrrrrp,               ddddddd",
"dddddd       2sppppppppppppppppppppppppppppurrrrrrrrrrrrrp,               ddddddd",
"dddddd       &655555555555555555555555555540yrrrrrrrrrrrrp,               ddddddd",
"dddddd                                     >prrrrrrrrrrrrp,               ddddddd",
"dddddd                                     ,prrrrrrrrrrrrp,               ddddddd",
"dddddd                                     ,prrrrrrrrrrrrp,               ddddddd",
"dddddd                                     ,prrrrrrrrrrrrp,               ddddddd",
"dddddd                                     ,prrrrrrrrrrrrp,               ddddddd",
"dddddd                                     ,prrrrrrrrrrrrp,               ddddddd",
"dddddd                      .XXXXXXXXXXXXX <prrrrrrrrrrrrp,               ddddddd",
"ddddddddddddd               *98888888888887wyrrrrrrrrrrrrp,               ddddddd",
"dddddddddddddd              1siiiiiiiiiiiiiyrrrrrrrrrrrrrp,               ddddddd",
"ddddddddddddd               ,prrrrrrrrrrrrrrrrrrrrrrrrrrrp,               ddddddd",
"ddddddddddddd               ,prrrrrrrrrrrrrrrrrrrrrrrrrrrp,               ddddddd",
"ddddddddddddd               ,prrrrrrrrrrrrrrrrrrrrrrrrrrrp,               ddddddd",
"ddddddddddddd               ,prrrrrrrrrrrrrrrrrrrrrrrrrrrp,               ddddddd",
"ddddddddddddd               ,prrrrrrrrrrrrrrrrrrrrrrrrrrrp,               ddddddd",
"dddddddddddddd              ,prrrrrrrrrrrrrrrrrrrrrrrrrrrp,               ddddddd",
"ddddddddddddddddddddd       ,prrrrrrrrrrrrrrrrrrrrrrrrrrrp,               ddddddd",
"ddddddddddddddddddddd       ,prrrrrrrrrrrrrrrrrrrrrrrrrrrp,               ddddddd",
"ddddddddddddddddddddd       ,prrrrrrrrrrrrrrrrrrrrrrrrrrrp,               ddddddd",
"ddddddddddddddddddddd       ,prrrrrrrrrrrrrrrrrrrrrrrrrrrp,               ddddddd",
"ddddddddddddddddddddd       ,prrrrrrrrrrrrrrrrrrrrrrrrrrrp,               ddddddd",
"ddddddddddddddddddddd       ,prrrrrrrrrrrrrrrrrrrrrrrrrrrp,               ddddddd",
"ddddddddddddddddddddd       <ayyyyyyyyyyyyytrrrrrrrrrrrrrp,               ddddddd",
"ddddddddddddddddddddd       +%$$$$$$$$$$$$#3irrrrrrrrrrrrp,               ddddddd",
"ddddddddddddddddddddd                      :prrrrrrrrrrrrp,               ddddddd",
"ddddddddddddddddddddd                      ,prrrrrrrrrrrrp,               ddddddd",
"ddddddddddddddddddddd                      ,prrrrrrrrrrrrp,               ddddddd",
"ddddddddddddddddddddd                      ,prrrrrrrrrrrrp,               ddddddd",
"ddddddddddddddddddddd                      ,prrrrrrrrrrrrp,               ddddddd",
"ddddddddddddddddddddd                      ,prrrrrrrrrrrrp,               ddddddd",
"ddddddddddddddddddddd                      ,prrrrrrrrrrrrp,               ddddddd",
"dddddddddddddddddddddddddddd               ,prrrrrrrrrrrrp,               ddddddd",
"dddddddddddddddddddddddddddd               ,prrrrrrrrrrrrp,               ddddddd",
"dddddddddddddddddddddddddddd               ,prrrrrrrrrrrrp,               ddddddd",
"dddddddddddddddddddddddddddd               ,prrrrrrrrrrrrp,               ddddddd",
"dddddddddddddddddddddddddddd               ,prrrrrrrrrrrrp,               ddddddd",
"dddddddddddddddddddddddddddd               ,prrrrrrrrrrrrp,               ddddddd",
"dddddddddddddddddddddddddddd               ,prrrrrrrrrrrrp,               ddddddd",
"dddddddddddddddddddddddddddddddddddd       ,prrrrrrrrrrrrp,               ddddddd",
"dddddddddddddddddddddddddddddddddddd       ,prrrrrrrrrrrrp,               ddddddd",
"dddddddddddddddddddddddddddddddddddd       ,prrrrrrrrrrrrp,               ddddddd",
"dddddddddddddddddddddddddddddddddddd       ,prrrrrrrrrrrrp,               ddddddd",
"dddddddddddddddddddddddddddddddddddd       ,prrrrrrrrrrrrp,               ddddddd",
"dddddddddddddddddddddddddddddddddddd       ,prrrrrrrrrrrrp,               ddddddd",
"dddddddddddddddddddddddddddddddddddd       <ayyyyyyyyyyyya<               ddddddd",
"dddddddddddddddddddddddddddddddddddd       ;eqqqqqqqqqqqqe;               ddddddd",
"dddddddddddddddddddddddddddddddddddd       oOOOOOOOOOOOOOOo               ddddddd",
"dddddddddddddddddddddddddddddddddddd                                      ddddddd",
"dddddddddddddddddddddddddddddddddddd                                      ddddddd",
"dddddddddddddddddddddddddddddddddddd                                      ddddddd",
"dddddddddddddddddddddddddddddddddddd                                      ddddddd",
"dddddddddddddddddddddddddddddddddddd                                      ddddddd",
"dddddddddddddddddddddddddddddddddddd                                      ddddddd",
"dddddddddddddddddddddddddddddddddddddddddddddddddd                        ddddddd",
"ddddddddddddddddddddddddddddddddddddddddddddddddddd                       ddddddd",
"ddddddddddddddddddddddddddddddddddddddddddddddddddd                       ddddddd",
"ddddddddddddddddddddddddddddddddddddddddddddddddddd                       ddddddd",
"ddddddddddddddddddddddddddddddddddddddddddddddddddd                       ddddddd",
"ddddddddddddddddddddddddddddddddddddddddddddddddddd                       ddddddd",
"ddddddddddddddddddddddddddddddddddddddddddddddddddd                       ddddddd",
"ddddddddddddddddddddddddddddddddddddddddddddddddddd                       ddddddd"
};
