/* XPM */
static char *result[] = {
/* columns rows colors chars-per-pixel */
"81 98 78 1 ",
"  c black",
". c #010000",
"X c #010100",
"o c #030100",
"O c #050200",
"+ c #060300",
"@ c #080400",
"# c #0B0500",
"$ c #0C0600",
"% c #0F0800",
"& c #120900",
"* c #130A00",
"= c #150B00",
"- c #160B00",
"; c #1A0D00",
": c #2A1500",
"> c #2F1700",
", c #311800",
"< c #4C2600",
"1 c #502800",
"2 c #552A00",
"3 c #5A2D00",
"4 c #5E2F00",
"5 c #613100",
"6 c #623100",
"7 c #653200",
"8 c #663300",
"9 c #6F3700",
"0 c #7A3D00",
"q c #7B3E00",
"w c #7C3E00",
"e c #7D3F00",
"r c #7E3F00",
"t c #7F3F00",
"y c #7F4000",
"u c #804000",
"i c #944A00",
"p c #A55300",
"a c #A85400",
"s c #AA5500",
"d c #AE5700",
"f c #B15800",
"g c #B95D00",
"h c #BB5D00",
"j c #BB5E00",
"k c #C06000",
"l c #C76300",
"z c #CB6500",
"x c #CB6600",
"c c #CF6800",
"v c #D06800",
"b c #D26900",
"n c #D96D00",
"m c #DA6D00",
"M c #DB6D00",
"N c #E47200",
"B c #E57200",
"V c #E57300",
"C c #E77300",
"Z c #E97500",
"A c #ED7700",
"S c #F37A00",
"D c #F47A00",
"F c #F57A00",
"G c #F67B00",
"H c #F77C00",
"J c #FA7D00",
"K c #FB7D00",
"L c #FB7E00",
"P c #FC7E00",
"I c #FD7E00",
"U c #FD7F00",
"Y c #FE7F00",
"T c #FF7F00",
"R c #FF8000",
"E c #FF8200",
"W c #FF8300",
"Q c None",
/* pixels */
"QQQQQQQQQQQQQQQQQQQQQQQQQQQQQQQQQQQQQQQQQQQQQQQQQQQQQQQQQQQQQQQQQQQQQQQQQQQQQQQQQ",
"QQQQQQQQQQQQQQQQQQQQQQQQQQQQQQQQQQQQQQQQQQQQQQQQQQQQQQQQQQQQQQQQQQQQQQQQQQQQQQQQQ",
"QQQQQQQQQQQQQQQQQQQQQQQQQQQQQQQQQQQQQQQQQQQQQQQQQQQQQQQQQQQQQQQQQQQQQQQQQQQQQQQQQ",
"QQQQQQQQQQQQQQQQQQQQQQQQQQQQQQQQQQQQQQQQQQQQQQQQQQQQQQQQQQQQQQQQQQQQQQQQQQQQQQQQQ",
"QQQQQQQQQQQQQQQQQQQQQQQQQQQQQQQQQQQQQQQQQQQQQQQQQQQQQQQQQQQQQQQQQQQQQQQQQQQQQQQQQ",
"QQQQQQQQQQQQQQQQQQQQQQQQQQQQQQQQQQQQQQQQQQQQQQQQQQQQQQQQQQQQQQQQQQQQQQQQQQQQQQQQQ",
"QQQQQQQQQQQQQQQQQQQQQQQQQQQQQQQQQQQQQQQQQQQQQQQQQQQQQQQQQQQQQQQQQQQQQQQQQQQQQQQQQ",
"QQQQQQQQQQQQQQQQQQQQQQQQQQQQQQQQQQQQQQQQQQQQQQQQQQQQQQQQQQQQQQQQQQQQQQQQQQQQQQQQQ",
"QQQQQQQQQQQQQQQQQQQ                                              QQQQQQQQQQQQQQQQ",
"QQQQQQQQQQQQQQQQQQQ                                              QQQQQQQQQQQQQQQQ",
"QQQQQQQQQQQQQQQQQQQ                                              QQQQQQQQQQQQQQQQ",
"QQQQQQQQQQQQQQQQQQQ                                              QQQQQQQQQQQQQQQQ",
"QQQQQQQQQQQQQQQQQQQ                                              QQQQQQQQQQQQQQQQ",
"QQQQQQQQQQQQQQQQQQQQ                                            QQQQQQQQQQQQQQQQQ",
"QQQQQQQQQQQQQQQQQQQ       X#$$$$$$$$$$$$$$$$$$$$$$$$$$$$#X       QQQQQQQQQQQQQQQQ",
"QQQQQQQQQQQQ              &lmnnnnnnnnnnnnnnnnnnnnnnnnnnml&              QQQQQQQQQ",
"QQQQQQQQQQQQ              =CIPPPPPPPPPPPPPPPPPPPPPPPPPPIC=              QQQQQQQQQ",
"QQQQQQQQQQQQ              =BKJJJJJJJJJJJJJJJJJJJJJJJJJJKB=              QQQQQQQQQ",
"QQQQQQQQQQQQ              =BKJJJJJJJJJJJJJJJJJJJJJJJJJJKB=              QQQQQQQQQ",
"QQQQQQQQQQQQ              =BKJJJJJJJJJJJJJJJJJJJJJJJJJJKB=              QQQQQQQQQ",
"QQQQQQQQQQQQ              =BKJJJJJJJJJJJJJJJJJJJJJJJJJJKB=              QQQQQQQQQ",
"QQQQQQQQQQQQ              %NKJJJJJJJJJJJJJJJJJJJJJJJJJJKN%              QQQQQQQQQ",
"QQQQQQQQQQQQ       ,7666659AKJJJJJJJJJJJJJJJJJJJJJJJJJJKA9566667,       QQQQQQQQQ",
"QQQQQQQQQQQQ       yWTTTTTYJJJJJJJJJJJJJJJJJJJJJJJJJJJJJJYTTTTTWy               Q",
"QQQQQQQQQQQQ       eRJJJJJJJJJJJJJJJJJJJJJJJJJJJJJJJJJJJJJJJJJJRe              QQ",
"QQQQQQQQQQQQ       eRJJJJJJJJJJJJJJJJJJJJJJJJJJJJJJJJJJJJJJJJJJRe              QQ",
"QQQQQQQQQQQQ       eRJJJJJJJJJJJJJJJJJJJJJJJJJJJJJJJJJJJJJJJJJJRe              QQ",
"QQQQQQQQQQQQ       eRJJJJJJJJJJJJJJJJJJJJJJJJJJJJJJJJJJJJJJJJJJRe              QQ",
"QQQQQQQQQQQQ       eRJJJJJJJJJJJJJJJJJJJJJJJJJJJJJJJJJJJJJJJJJJRe              QQ",
"QQQQQQQQQQQQ       eRJJJJJJJJJJJJJHDDDDDDDDDDDDDDHJJJJJJJJJJJJJRe              QQ",
"QQQQQQQQQQQQ       eRJJJJJJJJJJJJRi:>>>>>>>>>>>>:iRJJJJJJJJJJJJRe              QQ",
"QQQQQQQQQQQQ       eRJJJJJJJJJJJJRq              qRJJJJJJJJJJJJRe              QQ",
"QQQQQQQQQQQQ       eRJJJJJJJJJJJJRe              eRJJJJJJJJJJJJRe              QQ",
"QQQQQQQQQQQQ       eRJJJJJJJJJJJJRe              eRJJJJJJJJJJJJRe              QQ",
"QQQQQQQQQQQQ       eRJJJJJJJJJJJJRe              eRJJJJJJJJJJJJRe              QQ",
"QQQQQQQQQQQQ       eRJJJJJJJJJJJJRe              eRJJJJJJJJJJJJRe              QQ",
"QQQQQQQQQQQQ       uWRRRRRRJJJJJJR0              0RJJJJJJRRRRRRWu              QQ",
"QQQQQQQQQQQQ       2dsssssfSJJJJJTp<111111111111<pTJJJJJSfsssssd2              QQ",
"QQQQQQQQQQQQ              *BKJJJJJLPPPPPPPPPPPPPPLJJJJJKB*                     QQ",
"QQQQQQQQQQQQ              =BKJJJJJJJJJJJJJJJJJJJJJJJJJJKB=                     QQ",
"QQQQQQQQQQQQ              =BKJJJJJJJJJJJJJJJJJJJJJJJJJJKB=                     QQ",
"QQQQQQQQQQQQ              =BKJJJJJJJJJJJJJJJJJJJJJJJJJJKB=                     QQ",
"QQQQQQQQQQQQ              =BKJJJJJJJJJJJJJJJJJJJJJJJJJJKB=                     QQ",
"QQQQQQQQQQQQ              =BKJJJJJJJJJJJJJJJJJJJJJJJJJJKB=                     QQ",
"QQQQQQQQQQQQ       .XXXXX -BKJJJJJJJJJJJJJJJJJJJJJJJJJJKB- XXXXX.              QQ",
"QQQQQQQQQQQQ       4kjjjjhkFJJJJJJJJJJJJJJJJJJJJJJJJJJJJFkhjjjjk4              QQ",
"QQQQQQQQQQQQ       yWTTTTTYJJJJJJJJJJJJJJJJJJJJJJJJJJJJJJYTTTTTWy              QQ",
"QQQQQQQQQQQQ       eRJJJJJJJJJJJJJJJJJJJJJJJJJJJJJJJJJJJJJJJJJJRe              QQ",
"QQQQQQQQQQQQ       eRJJJJJJJJJJJJJJJJJJJJJJJJJJJJJJJJJJJJJJJJJJRe              QQ",
"QQQQQQQQQQQQ       eRJJJJJJJJJJJJJJJJJJJJJJJJJJJJJJJJJJJJJJJJJJRe              QQ",
"QQQQQQQQQQQQ       eRJJJJJJJJJJJJJJJJJJJJJJJJJJJJJJJJJJJJJJJJJJRe              QQ",
"QQQQQQQQQQQQ       eRJJJJJJJJJJJJJPTTTTTTTTTTTTTTPJJJJJJJJJJJJJRe              QQ",
"QQQQQQQQQQQQ       eRJJJJJJJJJJJJPMgjjjjjjjjjjjjgMPJJJJJJJJJJJJRe              QQ",
"QQQQQQQQQQQQ       eRJJJJJJJJJJJJRr XXXXXXXXXXXX rRJJJJJJJJJJJJRe              QQ",
"QQQQQQQQQQQQ       eRJJJJJJJJJJJJRe              eRJJJJJJJJJJJJRe              QQ",
"QQQQQQQQQQQQ       eRJJJJJJJJJJJJRe              eRJJJJJJJJJJJJRe              QQ",
"QQQQQQQQQQQQ       eRJJJJJJJJJJJJRe              eRJJJJJJJJJJJJRe              QQ",
"QQQQQQQQQQQQ       eRJJJJJJJJJJJJRe              eRJJJJJJJJJJJJRe              QQ",
"QQQQQQQQQQQQ       eRJJJJJJJJJJJJRe              eRJJJJJJJJJJJJRe              QQ",
"QQQQQQQQQQQQ       eRJJJJJJJJJJJJRw              wRJJJJJJJJJJJJRe              QQ",
"QQQQQQQQQQQQ       eRJJJJJJJJJJJJPbassssssssssssabPJJJJJJJJJJJJRe              QQ",
"QQQQQQQQQQQQ       eRJJJJJJJJJJJJJIRRRRRRRRRRRRRRIJJJJJJJJJJJJJRe              QQ",
"QQQQQQQQQQQQ       eRJJJJJJJJJJJJJJJJJJJJJJJJJJJJJJJJJJJJJJJJJJRe              QQ",
"QQQQQQQQQQQQ       eRJJJJJJJJJJJJJJJJJJJJJJJJJJJJJJJJJJJJJJJJJJRe              QQ",
"QQQQQQQQQQQQ       eRJJJJJJJJJJJJJJJJJJJJJJJJJJJJJJJJJJJJJJJJJJRe              QQ",
"QQQQQQQQQQQQ       eRJJJJJJJJJJJJJJJJJJJJJJJJJJJJJJJJJJJJJJJJJJRe              QQ",
"QQQQQQQQQQQQ       tEUUUUUIJJJJJJJJJJJJJJJJJJJJJJJJJJJJJJIUUUUUEt              QQ",
"QQQQQQQQQQQQ       8vxxxxzcGJJJJJJJJJJJJJJJJJJJJJJJJJJJJGczxxxxv8              QQ",
"QQQQQQQQQQQQ       o+++++O;VKJJJJJJJJJJJJJJJJJJJJJJJJJJKV;O+++++o              QQ",
"QQQQQQQQQQQQ              =BKJJJJJJJJJJJJJJJJJJJJJJJJJJKB=                     QQ",
"QQQQQQQQQQQQ              =BKJJJJJJJJJJJJJJJJJJJJJJJJJJKB=                     QQ",
"QQQQQQQQQQQQ              =BKJJJJJJJJJJJJJJJJJJJJJJJJJJKB=                     QQ",
"QQQQQQQQQQQQ              =BKJJJJJJJJJJJJJJJJJJJJJJJJJJKB=                     QQ",
"QQQQQQQQQQQQ              =BKJJJJJJJJJJJJJJJJJJJJJJJJJJKB=                     QQ",
"QQQQQQQQQQQQ              -ZRTTTTTTTTTTTTTTTTTTTTTTTTTTRZ-                     QQ",
"QQQQQQQQQQQQQQQQQQQ       @366666666666666666666666666663@                     QQ",
"QQQQQQQQQQQQQQQQQQQQ                                                           QQ",
"QQQQQQQQQQQQQQQQQQQ                                                            QQ",
"QQQQQQQQQQQQQQQQQQQ                                                            QQ",
"QQQQQQQQQQQQQQQQQQQ                                                            QQ",
"QQQQQQQQQQQQQQQQQQQ                                                            QQ",
"QQQQQQQQQQQQQQQQQQQ                                                             Q",
"QQQQQQQQQQQQQQQQQQQQ                                                           QQ",
"QQQQQQQQQQQQQQQQQQQQQQQQQQQ                                             QQQQQQQQQ",
"QQQQQQQQQQQQQQQQQQQQQQQQQQQ                                             QQQQQQQQQ",
"QQQQQQQQQQQQQQQQQQQQQQQQQQQ                                             QQQQQQQQQ",
"QQQQQQQQQQQQQQQQQQQQQQQQQQQ                                             QQQQQQQQQ",
"QQQQQQQQQQQQQQQQQQQQQQQQQQQ                                             QQQQQQQQQ",
"QQQQQQQQQQQQQQQQQQQQQQQQQQQ                                             QQQQQQQQQ",
"QQQQQQQQQQQQQQQQQQQQQQQQQQQ                                             QQQQQQQQQ",
"QQQQQQQQQQQQQQQQQQQQQQQQQQQQQQQQQQQQQQQQQQQQQQQQQQQQQQQQQQQQQQQQQQQQQQQQQQQQQQQQQ",
"QQQQQQQQQQQQQQQQQQQQQQQQQQQQQQQQQQQQQQQQQQQQQQQQQQQQQQQQQQQQQQQQQQQQQQQQQQQQQQQQQ",
"QQQQQQQQQQQQQQQQQQQQQQQQQQQQQQQQQQQQQQQQQQQQQQQQQQQQQQQQQQQQQQQQQQQQQQQQQQQQQQQQQ",
"QQQQQQQQQQQQQQQQQQQQQQQQQQQQQQQQQQQQQQQQQQQQQQQQQQQQQQQQQQQQQQQQQQQQQQQQQQQQQQQQQ",
"QQQQQQQQQQQQQQQQQQQQQQQQQQQQQQQQQQQQQQQQQQQQQQQQQQQQQQQQQQQQQQQQQQQQQQQQQQQQQQQQQ",
"QQQQQQQQQQQQQQQQQQQQQQQQQQQQQQQQQQQQQQQQQQQQQQQQQQQQQQQQQQQQQQQQQQQQQQQQQQQQQQQQQ",
"QQQQQQQQQQQQQQQQQQQQQQQQQQQQQQQQQQQQQQQQQQQQQQQQQQQQQQQQQQQQQQQQQQQQQQQQQQQQQQQQQ",
"QQQQQQQQQQQQQQQQQQQQQQQQQQQQQQQQQQQQQQQQQQQQQQQQQQQQQQQQQQQQQQQQQQQQQQQQQQQQQQQQQ"
};
