/* XPM */
static char *result[] = {
/* columns rows colors chars-per-pixel */
"81 98 52 1 ",
"  c black",
". c #010000",
"X c #010100",
"o c #050300",
"O c #060300",
"+ c #080400",
"@ c #0C0600",
"# c #100800",
"$ c #120900",
"% c #150B00",
"& c #160B00",
"* c #2E1700",
"= c #2F1700",
"- c #3A1D00",
"; c #3F1F00",
": c #3F2000",
"> c #402000",
", c #502800",
"< c #5A2D00",
"1 c #5E2F00",
"2 c #623100",
"3 c #6D3600",
"4 c #7A3D00",
"5 c #7B3D00",
"6 c #7D3F00",
"7 c #7E3F00",
"8 c #7F4000",
"9 c #9C4E00",
"0 c #AE5700",
"q c #BB5D00",
"w c #BB5E00",
"e c #C06000",
"r c #D96D00",
"t c #DF6F00",
"y c #E47200",
"u c #E57200",
"i c #E97400",
"p c #E97500",
"a c #EC7600",
"s c #F47A00",
"d c #F57A00",
"f c #F97C00",
"g c #F97D00",
"h c #FA7D00",
"j c #FB7D00",
"k c #FC7E00",
"l c #FE7F00",
"z c #FF7F00",
"x c #FF8000",
"c c #FF8100",
"v c #FF8300",
"b c None",
/* pixels */
"bbbbbbbbbbbbbbbbbbbbbbbbbbbbbbbbbbbbbbbbbbbbbbbbbbbbbbbbbbbbbbbbbbbbbbbbbbbbbbbbb",
"bbbbbbbbbbbbbbbbbbbbbbbbbbbbbbbbbbbbbbbbbbbbbbbbbbbbbbbbbbbbbbbbbbbbbbbbbbbbbbbbb",
"bbbbbbbbbbbbbbbbbbbbbbbbbbbbbbbbbbbbbbbbbbbbbbbbbbbbbbbbbbbbbbbbbbbbbbbbbbbbbbbbb",
"bbbbbbbbbbbbbbbbbbbbbbbbbbbbbbbbbbbbbbbbbbbbbbbbbbbbbbbbbbbbbbbbbbbbbbbbbbbbbbbbb",
"bbbbbbbbbbbbbbbbbbbbbbbbbbbbbbbbbbbbbbbbbbbbbbbbbbbbbbbbbbbbbbbbbbbbbbbbbbbbbbbbb",
"bbbbbbbbbbbbbbbbbbbbbbbbbbbbbbbbbbbbbbbbbbbbbbbbbbbbbbbbbbbbbbbbbbbbbbbbbbbbbbbbb",
"bbbbbbbbbbbbbbbbbbbbbbbbbbbbbbbbbbbbbbbbbbbbbbbbbbbbbbbbbbbbbbbbbbbbbbbbbbbbbbbbb",
"bbbbbbbbbbbbbbbbbbbbbbbbbbbbbbbbbbbbbbbbbbbbbbbbbbbbbbbbbbbbbbbbbbbbbbbbbbbbbbbbb",
"bbb                                             bbbbbbbbbbbbbbbbbbbbbbbbbbbbbbbbb",
"bbb                                             bbbbbbbbbbbbbbbbbbbbbbbbbbbbbbbbb",
"bbb                                             bbbbbbbbbbbbbbbbbbbbbbbbbbbbbbbbb",
"bbb                                             bbbbbbbbbbbbbbbbbbbbbbbbbbbbbbbbb",
"bbb                                             bbbbbbbbbbbbbbbbbbbbbbbbbbbbbbbbb",
"bbb                                             bbbbbbbbbbbbbbbbbbbbbbbbbbbbbbbbb",
"bbb       O@@@@@@@@@@@@@@@@@@@@@@@@@@@@@O       bbbbbbbbbbbbbbbbbbbbbbbbbbbbbbbbb",
"          3trrrrrrrrrrrrrrrrrrrrrrrrrrrt3              bbbbbbbbbbbbbbbbbbbbbbbbbb",
"          7ckkkkkkkkkkkkkkkkkkkkkkkkkkkc7               bbbbbbbbbbbbbbbbbbbbbbbbb",
"          6xhhhhhhhhhhhhhhhhhhhhhhhhhhhx6               bbbbbbbbbbbbbbbbbbbbbbbbb",
"          6xhhhhhhhhhhhhhhhhhhhhhhhhhhhx6               bbbbbbbbbbbbbbbbbbbbbbbbb",
"          6xhhhhhhhhhhhhhhhhhhhhhhhhhhhx6               bbbbbbbbbbbbbbbbbbbbbbbbb",
"          6xhhhhhhhhhhhhhhhhhhhhhhhhhhhx6               bbbbbbbbbbbbbbbbbbbbbbbbb",
"          4xhhhhhhhhhhhhhhhhhhhhhhhhhhhx4              bbbbbbbbbbbbbbbbbbbbbbbbbb",
"  +<2222210lhhhhhhhhhhhhhhhhhhhhhhhhhhhl0122222<+       bbbbbbbbbbbbbbbbbbbbbbbbb",
"  &pxzzzzzkhhhhhhhhhhhhhhhhhhhhhhhhhhhhhkzzzzzxp&              bbbbbbbbbbbbbbbbbb",
"  %ujhhhhhhhhhhhhhhhhhhhhhhhhhhhhhhhhhhhhhhhhhju%              bbbbbbbbbbbbbbbbbb",
"  %ujhhhhhhhhhhhhhhhhhhhhhhhhhhhhhhhhhhhhhhhhhju%              bbbbbbbbbbbbbbbbbb",
"  %ujhhhhhhhhhhhhhhhhhhhhhhhhhhhhhhhhhhhhhhhhhju%              bbbbbbbbbbbbbbbbbb",
"  %ujhhhhhhhhhhhhhhhhhhhhhhhhhhhhhhhhhhhhhhhhhju%              bbbbbbbbbbbbbbbbbb",
"  %ujhhhhhhhhhhhhhhhhhhhhhhhhhhhhhhhhhhhhhhhhhju%              bbbbbbbbbbbbbbbbbb",
"  %ujhhhhhhhhhhhhhdsssssssssssssdhhhhhhhhhhhhhju%              bbbbbbbbbbbbbbbbbb",
"  %ujhhhhhhhhhhhji>*===========*>ijhhhhhhhhhhhju%              bbbbbbbbbbbbbbbbbb",
"  %ujhhhhhhhhhhhju$             $ujhhhhhhhhhhhju%              bbbbbbbbbbbbbbbbbb",
"  %ujhhhhhhhhhhhju%             %ujhhhhhhhhhhhju%              bbbbbbbbbbbbbbbbbb",
"  %ujhhhhhhhhhhhju%             %ujhhhhhhhhhhhju%              bbbbbbbbbbbbbbbbbb",
"  %ujhhhhhhhhhhhju%             %ujhhhhhhhhhhhju%              bbbbbbbbbbbbbbbbbb",
"  %ujhhhhhhhhhhhju%             %ujhhhhhhhhhhhju%              bbbbbbbbbbbbbbbbbb",
"  %ujhhhhhhhhhhhjy#             #yjhhhhhhhhhhhju%              bbbbbbbbbbbbbbbbbb",
"  %ujhhhhhhhhhhhja1,,,,,,,,,,,,,1ajhhhhhhhhhhhju%              bbbbbbbbbbbbbbbbbb",
"  %ujhhhhhhhhhhhhhkkkkkkkkkkkkkkkhhhhhhhhhhhhhju%              bbbbbbbbbbbbbbbbbb",
"  %ujhhhhhhhhhhhhhhhhhhhhhhhhhhhhhhhhhhhhhhhhhju%              bbbbbbbbbbbbbbbbbb",
"  %ujhhhhhhhhhhhhhhhhhhhhhhhhhhhhhhhhhhhhhhhhhju%              bbbbbbbbbbbbbbbbbb",
"  %ujhhhhhhhhhhhhhhhhhhhhhhhhhhhhhhhhhhhhhhhhhju%              bbbbbbbbbbbbbbbbbb",
"  %ujhhhhhhhhhhhhhhhhhhhhhhhhhhhhhhhhhhhhhhhhhju%              bbbbbbbbbbbbbbbbbb",
"  %ujhhhhhhhhhhhhhhhhhhhhhhhhhhhhhhhhhhhhhhhhhju%              bbbbbbbbbbbbbbbbbb",
"  %yhfffffghhhhhhhhhhhhhhhhhhhhhhhhhhhhhhhhhhhju%              bbbbbbbbbbbbbbbbbb",
"  o-:;;;;-9zhhhhhhhhhhhhhhhhhhhhhhhhhhhhhhhhhhju%              bbbbbbbbbbbbbbbbbb",
"          5xhhhhhhhhhhhhhhhhhhhhhhhhhhhhhhhhhhju%              bbbbbbbbbbbbbbbbbb",
"          6xhhhhhhhhhhhhhhhhhhhhhhhhhhhhhhhhhhju%              bbbbbbbbbbbbbbbbbb",
"          6xhhhhhhhhhhhhhhhhhhhhhhhhhhhhhhhhhhju%              bbbbbbbbbbbbbbbbbb",
"          6xhhhhhhhhhhhhhhhhhhhhhhhhhhhhhhhhhhju%              bbbbbbbbbbbbbbbbbb",
"          6xhhhhhhhhhhhhhhhhhhhhhhhhhhhhhhhhhhju%              bbbbbbbbbbbbbbbbbb",
"          8vzzzzzzzzzzzzzzzzzzzzlhhhhhhhhhhhhhju%              bbbbbbbbbbbbbbbbbb",
"          1ewwwwwwwwwwwwwwwwwwwqedhhhhhhhhhhhhju%              bbbbbbbbbbbbbbbbbb",
"bbb       .XXXXXXXXXXXXXXXXXXXX &ujhhhhhhhhhhhju%              bbbbbbbbbbbbbbbbbb",
"bbb                             %ujhhhhhhhhhhhju%              bbbbbbbbbbbbbbbbbb",
"bbb                             %ujhhhhhhhhhhhju%              bbbbbbbbbbbbbbbbbb",
"bbb                             %ujhhhhhhhhhhhju%              bbbbbbbbbbbbbbbbbb",
"bbb                             %ujhhhhhhhhhhhju%              bbbbbbbbbbbbbbbbbb",
"bbb                             %ujhhhhhhhhhhhju%              bbbbbbbbbbbbbbbbbb",
"bbb                             %ujhhhhhhhhhhhju%              bbbbbbbbbbbbbbbbbb",
"bbbbbbbbbb                      %ujhhhhhhhhhhhju%              bbbbbbbbbbbbbbbbbb",
"bbbbbbbbbbb                     %ujhhhhhhhhhhhju%              bbbbbbbbbbbbbbbbbb",
"bbbbbbbbbb                      %ujhhhhhhhhhhhju%              bbbbbbbbbbbbbbbbbb",
"bbbbbbbbbb                      %ujhhhhhhhhhhhju%              bbbbbbbbbbbbbbbbbb",
"bbbbbbbbbb                      %ujhhhhhhhhhhhju%              bbbbbbbbbbbbbbbbbb",
"bbbbbbbbbb                      %ujhhhhhhhhhhhju%              bbbbbbbbbbbbbbbbbb",
"bbbbbbbbbb                      %ujhhhhhhhhhhhju%              bbbbbbbbbbbbbbbbbb",
"bbbbbbbbbbb                     %ujhhhhhhhhhhhju%              bbbbbbbbbbbbbbbbbb",
"bbbbbbbbbbbbbbbbbbbbbbbbb       %ujhhhhhhhhhhhju%              bbbbbbbbbbbbbbbbbb",
"bbbbbbbbbbbbbbbbbbbbbbbbb       %ujhhhhhhhhhhhju%              bbbbbbbbbbbbbbbbbb",
"bbbbbbbbbbbbbbbbbbbbbbbbb       %ujhhhhhhhhhhhju%              bbbbbbbbbbbbbbbbbb",
"bbbbbbbbbbbbbbbbbbbbbbbbb       %ujhhhhhhhhhhhju%              bbbbbbbbbbbbbbbbbb",
"bbbbbbbbbbbbbbbbbbbbbbbbb       %ujhhhhhhhhhhhju%              bbbbbbbbbbbbbbbbbb",
"bbbbbbbbbbbbbbbbbbbbbbbbb       %ujhhhhhhhhhhhju%              bbbbbbbbbbbbbbbbbb",
"bbbbbbbbbbbbbbbbbbbbbbbbb       &pxzzzzzzzzzzzxp&              bbbbbbbbbbbbbbbbbb",
"bbbbbbbbbbbbbbbbbbbbbbbbb       +<2222222222222<+              bbbbbbbbbbbbbbbbbb",
"bbbbbbbbbbbbbbbbbbbbbbbbb                                      bbbbbbbbbbbbbbbbbb",
"bbbbbbbbbbbbbbbbbbbbbbbbb                                      bbbbbbbbbbbbbbbbbb",
"bbbbbbbbbbbbbbbbbbbbbbbbb                                      bbbbbbbbbbbbbbbbbb",
"bbbbbbbbbbbbbbbbbbbbbbbbb                                      bbbbbbbbbbbbbbbbbb",
"bbbbbbbbbbbbbbbbbbbbbbbbb                                      bbbbbbbbbbbbbbbbbb",
"bbbbbbbbbbbbbbbbbbbbbbbbb                                      bbbbbbbbbbbbbbbbbb",
"bbbbbbbbbbbbbbbbbbbbbbbbbb                                     bbbbbbbbbbbbbbbbbb",
"bbbbbbbbbbbbbbbbbbbbbbbbbbbbbbbbb                              bbbbbbbbbbbbbbbbbb",
"bbbbbbbbbbbbbbbbbbbbbbbbbbbbbbbbb                              bbbbbbbbbbbbbbbbbb",
"bbbbbbbbbbbbbbbbbbbbbbbbbbbbbbbbb                              bbbbbbbbbbbbbbbbbb",
"bbbbbbbbbbbbbbbbbbbbbbbbbbbbbbbbb                              bbbbbbbbbbbbbbbbbb",
"bbbbbbbbbbbbbbbbbbbbbbbbbbbbbbbbb                              bbbbbbbbbbbbbbbbbb",
"bbbbbbbbbbbbbbbbbbbbbbbbbbbbbbbbb                              bbbbbbbbbbbbbbbbbb",
"bbbbbbbbbbbbbbbbbbbbbbbbbbbbbbbbb                              bbbbbbbbbbbbbbbbbb",
"bbbbbbbbbbbbbbbbbbbbbbbbbbbbbbbbbbbbbbbbbbbbbbbbbbbbbbbbbbbbbbbbbbbbbbbbbbbbbbbbb",
"bbbbbbbbbbbbbbbbbbbbbbbbbbbbbbbbbbbbbbbbbbbbbbbbbbbbbbbbbbbbbbbbbbbbbbbbbbbbbbbbb",
"bbbbbbbbbbbbbbbbbbbbbbbbbbbbbbbbbbbbbbbbbbbbbbbbbbbbbbbbbbbbbbbbbbbbbbbbbbbbbbbbb",
"bbbbbbbbbbbbbbbbbbbbbbbbbbbbbbbbbbbbbbbbbbbbbbbbbbbbbbbbbbbbbbbbbbbbbbbbbbbbbbbbb",
"bbbbbbbbbbbbbbbbbbbbbbbbbbbbbbbbbbbbbbbbbbbbbbbbbbbbbbbbbbbbbbbbbbbbbbbbbbbbbbbbb",
"bbbbbbbbbbbbbbbbbbbbbbbbbbbbbbbbbbbbbbbbbbbbbbbbbbbbbbbbbbbbbbbbbbbbbbbbbbbbbbbbb",
"bbbbbbbbbbbbbbbbbbbbbbbbbbbbbbbbbbbbbbbbbbbbbbbbbbbbbbbbbbbbbbbbbbbbbbbbbbbbbbbbb",
"bbbbbbbbbbbbbbbbbbbbbbbbbbbbbbbbbbbbbbbbbbbbbbbbbbbbbbbbbbbbbbbbbbbbbbbbbbbbbbbbb"
};
