/* XPM */
static char *result[] = {
/* columns rows colors chars-per-pixel */
"41 41 99 2 ",
"   c #010100",
".  c #120E00",
"X  c #1B1501",
"o  c #221A00",
"O  c #2D2404",
"+  c #332700",
"@  c #342901",
"#  c #3D2F01",
"$  c #3F3003",
"%  c #4F3C03",
"&  c #564101",
"*  c #675003",
"=  c #6C5201",
"-  c #725600",
";  c #745900",
":  c #795C01",
">  c #856600",
",  c #8D6C01",
"<  c #906E00",
"1  c #977301",
"2  c #987400",
"3  c #876A12",
"4  c #A78003",
"5  c #B08600",
"6  c #B38901",
"7  c #BA8D00",
"8  c #BE9100",
"9  c #B29633",
"0  c #CD8600",
"q  c #CE8800",
"w  c #CF8C0C",
"e  c #D18C00",
"r  c #D08D0B",
"t  c #CE9D00",
"y  c #D59100",
"u  c #D99600",
"i  c #D29E00",
"p  c #DD9C00",
"a  c #D3920D",
"s  c #D19113",
"d  c #D2941A",
"f  c #E09F00",
"g  c #D4A204",
"h  c #D9A602",
"j  c #DFA900",
"k  c #D9AB14",
"l  c #D4A619",
"z  c #E3A400",
"x  c #E4AB00",
"c  c #EAAE00",
"v  c #EDB300",
"b  c #F2B600",
"n  c #F4B900",
"m  c #F9BD00",
"M  c #F3BC0D",
"N  c #E9B31A",
"B  c #F3BD14",
"V  c #D49926",
"C  c #D59C2B",
"Z  c #E5AF23",
"A  c #FCC000",
"S  c #F5C11E",
"D  c #F6C223",
"F  c #F4C42C",
"G  c #F1C53A",
"H  c #D8A94B",
"J  c #DDB05A",
"K  c #DFB666",
"L  c #F4CB45",
"P  c #F2CC4C",
"I  c #F4CE54",
"U  c #F7D359",
"Y  c #E9CC6C",
"T  c #F4D265",
"R  c #E3C27F",
"E  c #EACB7D",
"W  c #F4D775",
"Q  c #F5D877",
"!  c #E2C282",
"~  c #F3DB87",
"^  c #F5DE8F",
"/  c #F4DE93",
"(  c #E9D5A6",
")  c #EDDBA4",
"_  c #EFE2BF",
"`  c #F3E6B0",
"'  c #F0E5BA",
"]  c #EDE3CA",
"[  c #F4ECC7",
"{  c #F1E7CB",
"}  c #F4ECCC",
"|  c #F3EDD6",
" . c #F2ECDE",
".. c #F5F0D4",
"X. c #F6F2E0",
"o. c #F5F6EC",
"O. c #F5F7F4",
"+. c #F5FAFD",
"@. c None",
/* pixels */
"@.@.@.@.@.@.@.@.@.@.@.@.@.@.@.@.@.@.@.@.@.@.@.@.@.@.@.@.@.@.@.@.@.@.@.@.@.@.@.@.@.",
"@.@.@.@.@.@.@.@.@.@.@.@.@.@.@.@.@.@.@.@.@.@.@.@.@.@.@.@.@.@.@.@.@.@.@.@.@.@.@.@.@.",
"@.@.@.@.@.@.@.@.@.@.@.@.@.@.@.@.@.@.@.@.@.@.@.@.@.@.@.@.@.@.@.@.@.@.@.@.@.@.@.@.@.",
"@.@.@.@.@.@.@.@.@.@.@.@.@.@.@.@.@.@.@.@.@.@.@.@.@.@.@.@.@.@.@.@.@.@.@.@.@.@.@.@.@.",
"@.@.@.@.@.@.@.@.@.@.@.@.@.@.@.@.@.@.@.@.@.@.@.@.@.@.@.@.@.@.@.@.@.@.@.@.@.@.@.@.@.",
"@.@.@.@.@.@.@.@.@.@.@.@.@.@.@.@.                  @.@.@.@.@.@.@.@.@.@.@.@.@.@.@.@.",
"@.@.@.@.@.@.@.@.@.@.@.@.@.@.@.@.                  @.@.@.@.@.@.@.@.@.@.@.@.@.@.@.@.",
"@.@.@.@.@.@.@.@.@.@.@.@.@.@.@.@.+ # # # # # # # + @.@.@.@.@.@.@.@.@.@.@.@.@.@.@.@.",
"@.@.@.@.@.@.@.@.@.@.@.@.@.@.    , b v v v v v b ,     @.@.@.@.@.@.@.@.@.@.@.@.@.@.",
"@.@.@.@.@.@.@.@.@.@.@.@.@.@.    , m n n n n b m ,     @.@.@.@.@.@.@.@.@.@.@.@.@.@.",
"@.@.@.@.@.@.@.@.@.@.@.@.@.@.& % 9 U I N z x b n 6 & & $ @.@.@.@.@.@.@.@.@.@.@.@.@.",
"@.@.@.@.@.@.@.@.@.@.@.    o x m ^ +.O.H 0 e c n b n m -     @.@.@.@.@.@.@.@.@.@.@.",
"@.@.@.@.@.@.@.@.@.@.@.    o x m / +.O.H 0 q v b n n m =     @.@.@.@.@.@.@.@.@.@.@.",
"@.@.@.@.@.@.@.@.@.@.. = - 3 Y Q E ! ! V q q p j x b m 5 - - $ @.@.@.@.@.@.@.@.@.@.",
"@.@.@.@.@.@.@.@.    . i m F o.+.K 0 0 0 q q 0 0 p n b m m n &     @.@.@.@.@.@.@.@.",
"@.@.@.@.@.@.@.@.X X O l B G {  .J 0 q e e e e e h v v b b n * X X @.@.@.@.@.@.@.@.",
"@.@.@.@.@.      4 h k _  .] C d r q q z v v v b z e e z b b x h g @     @.@.@.@.@.",
"@.@.@.@.@.    . 7 A S ..+.| s q q q q c n b n n z q 0 f b n n n M $     @.@.@.@.@.",
"@.@.@.@.@.      7 m M ) ] ( w q q q q f c v b n x y y f c v v b v $     @.@.@.@.@.",
"@.@.@.@.@.      7 n b a w w q q q q q e e e c n b b b j q q x m v $     @.@.@.@.@.",
"@.@.@.@.@.    . 7 n v y q q 0 0 0 q 0 0 0 e c n b b b j 0 0 x n v $     @.@.@.@.@.",
"@.@.@.@.@.      7 m b p y t u u e q e y u u v n B P P Z u u c b v #     @.@.@.@.@.",
"@.@.@.@.@.      7 m b b v A A v p 0 q z b b n b T +.+.W b b b b v $     @.@.@.@.@.",
"@.@.@.@.@.      7 A A b v A v n p 0 0 c n n b b T +.+.Q n b m m n $     @.@.@.@.@.",
"@.@.@.@.@.@.    : < 2 x n n n n x p p c b n I T Q / / L n n 6 < < @   @.@.@.@.@.@.",
"@.@.@.@.@.@.@.@.    . t n n n v b b n n b M [ +./ b b n n n &     @.@.@.@.@.@.@.@.",
"@.@.@.@.@.@.@.@.    . t A n n n n b n B B D } +./ b m c j x %     @.@.@.@.@.@.@.@.",
"@.@.@.@.@.@.@.@.@.@.. * = > v n n n n / | } ~ W L b m > o o . @.@.@.@.@.@.@.@.@.@.",
"@.@.@.@.@.@.@.@.@.@.@.    o j n n n b ` +.O.F b b n m -     @.@.@.@.@.@.@.@.@.@.@.",
"@.@.@.@.@.@.@.@.@.@.@.    o 8 t x n m / | | F b c t i *     @.@.@.@.@.@.@.@.@.@.@.",
"@.@.@.@.@.@.@.@.@.@.@.@.@.@.. . 1 m b B B B n m 1 . . . @.@.@.@.@.@.@.@.@.@.@.@.@.",
"@.@.@.@.@.@.@.@.@.@.@.@.@.@.    , A n m m m n m <     @.@.@.@.@.@.@.@.@.@.@.@.@.@.",
"@.@.@.@.@.@.@.@.@.@.@.@.@.@.    : 8 7 7 7 7 8 7 :     @.@.@.@.@.@.@.@.@.@.@.@.@.@.",
"@.@.@.@.@.@.@.@.@.@.@.@.@.@.@.@.      .           @.@.@.@.@.@.@.@.@.@.@.@.@.@.@.@.",
"@.@.@.@.@.@.@.@.@.@.@.@.@.@.@.@.                  @.@.@.@.@.@.@.@.@.@.@.@.@.@.@.@.",
"@.@.@.@.@.@.@.@.@.@.@.@.@.@.@.@.@.              @.@.@.@.@.@.@.@.@.@.@.@.@.@.@.@.@.",
"@.@.@.@.@.@.@.@.@.@.@.@.@.@.@.@.@.@.@.@.@.@.@.@.@.@.@.@.@.@.@.@.@.@.@.@.@.@.@.@.@.",
"@.@.@.@.@.@.@.@.@.@.@.@.@.@.@.@.@.@.@.@.@.@.@.@.@.@.@.@.@.@.@.@.@.@.@.@.@.@.@.@.@.",
"@.@.@.@.@.@.@.@.@.@.@.@.@.@.@.@.@.@.@.@.@.@.@.@.@.@.@.@.@.@.@.@.@.@.@.@.@.@.@.@.@.",
"@.@.@.@.@.@.@.@.@.@.@.@.@.@.@.@.@.@.@.@.@.@.@.@.@.@.@.@.@.@.@.@.@.@.@.@.@.@.@.@.@.",
"@.@.@.@.@.@.@.@.@.@.@.@.@.@.@.@.@.@.@.@.@.@.@.@.@.@.@.@.@.@.@.@.@.@.@.@.@.@.@.@.@."
};
