/* XPM */
static char *result[] = {
/* columns rows colors chars-per-pixel */
"97 31 25 1 ",
"  c black",
". c #110101",
"X c #160101",
"o c #140C1C",
"O c #3F0303",
"+ c #2B282B",
"@ c #3E212F",
"# c #442434",
"$ c #6B3D27",
"% c #444144",
"& c #474347",
"* c #4A464A",
"= c #4E4A4E",
"- c #757161",
"; c #8C0707",
": c #B60909",
"> c #E80C0C",
", c #854C30",
"< c #A96523",
"1 c #D27D2C",
"2 c #DAD45E",
"3 c #F08C86",
"4 c #DEEED6",
"5 c #F7F7EB",
"6 c None",
/* pixels */
"6666666666666666666666666666666666666666666666666666666666666666666666666666666666666666666666666",
"6666666666666666666666666666666666666666666666666666666666666666666666666666666666666666666666666",
"6666666666666666666666666666666666666666666666666666666666666666666666666666666666666666666666666",
"6666666666666666666666666666666666666666666666666666666666666666666666666666666666666666666666666",
"66666666666666oooooooooooooooooooo66666oooooooooooooooooooo66666oooooooooooooooooooo6666666666666",
"6666666666666o22222222222221221211o666o22222222222221221211o666o22222222222221221211o666666666666",
"666666666666o24,,,,$$$$,1$$<$111111o6o24,,,,,,,,,1,,1,111111o6o24,,,,,,,,,1,,1,111111o66666666666",
"666666666666o2,,ooo    oo    ooo#1,o6o2,,ooo    oo    ooo#1,o6o2,,oooo   oo    ooo#1,o66666666666",
"666666666666o2,o#@@XXXX@@XXXX@&=o11o6o2,o###    ##    #==o11o6o2,o####   ##    #==o11o66666666666",
"6666666oooo6o2,o#  >>>>  >>>>  =o1,o6o2,o#  >>>>  >>>>  =o1,o6o2,o#=  >>>  >>>>  =o1,o6oooo666666",
"666666o222o6o2,o#  >>>>  >>>>  =o1,o6o2,o#  >>>>  >>>>  =o1,o6o2,o#=  >>>  >>>>  =o1,o6o122o66666",
"66666o2111ooo2,  >>55>>>>>>>>>>  11ooo2,  >>55>>>>>>>>>>  11ooo2,o  >>53>>>>>>>>>  11ooo2212o6666",
"66666o2111o1o2,  >>55>>>>>>>>>>  1,o1o2,  >>55>>>>>>>>>>  1,o1o2,o  >>53>>>>>>>>>  1,o1o1121o6666",
"6666o2111,o,o2,  >>>>>>>>>>>>>>  1,o,o2,  >>>>>>>>>>>>>>  1,o,o2,o  >>>>>>>>>>>>>  1,o,o11112o666",
"6666o21,11o,o2,  >>>>>>>>>>>>>>  1,o,o2,  >>>>>>>>>>>>>>  1,o,o2,o  >>>>>>>>>>>>>  1,o,o1,111o666",
"6666o1,,o1o,o2,  ;;>>>>>>>>>>;;  2,o,o2,  ;;>>>>>>>>>>;;  2,o,o2,o  ;;>>>>>>>>>;;  2,o,o,,o11o666",
"6666o21o,2o,o21  ;;>>>>>>>>>>;;  1,o,o21  ;;>>>>>>>>>>;;  1,o,o21o  ;;>>>>>>>>>;;  1,o,o1o,2,o666",
"6666o11121o,o2,o#  ;;>>>>>>;;  =o2,o,o2,o#  ;;>>>>>>;;  =o2,o,o2,o#=  ;:>>>>>;;  =o2,o,o1121,o666",
"6666o1111,o,o2,o#  ;;>>>>>>;;  -o2,o,o2,o#  ;;>>>>>>;;  -o2,o,o2,o#=  ;:>>>>>;;  -o2,o,o,11,,o666",
"66666o1,1,o,o11o#==  ;;>>;;  ===o1,o,o11o#==  ;;>>;;  ===o1,o,o11o#=== O;>>;;  ===o1,o,o111,o6666",
"66666o,1,1ooo2,o#==  ;;>>;;  ==-o2,ooo2,o#==  ;;>>;;  ==-o2,ooo2,o#=== O;>>;;  ==-o2,ooo,11,o6666",
"666666o,,,o6o21o#====  ;;  ====-o2,o6o21o#====  ;;  ====-o2,o6o21o#====+ ;;  ====-o2,o6o,,,o66666",
"6666666oooo6o11o=====  ;;  ====-o2,o6o11o=====  ;;  ====-o2,o6o11o=====*%..%%====-o2,o6oooo666666",
"666666666666o21o=======  =-=----o2,o6o21o=======  =-=----o2,o6o21o=======  =-=----o2,o66666666666",
"666666666666o11#ooooooo  ooooooo#1,o6o11#ooooooo  ooooooo#1,o6o11#oooooooooooooooo#1,o66666666666",
"666666666666o111111111121221222211,o6o111111111121221222211,o6o111111111121221222211,o66666666666",
"6666666666666o1,1,,1,,,,,,,,,,,,,,o666o1,1,,1,,,,,,,,,,,,,,o666o1,1,,1,,,,,,,,,,,,,,o666666666666",
"66666666666666oooooooooooooooooooo66666oooooooooooooooooooo66666oooooooooooooooooooo6666666666666",
"6666666666666666666666666666666666666666666666666666666666666666666666666666666666666666666666666",
"6666666666666666666666666666666666666666666666666666666666666666666666666666666666666666666666666",
"6666666666666666666666666666666666666666666666666666666666666666666666666666666666666666666666666"
};
