/* XPM */
static char *result[] = {
/* columns rows colors chars-per-pixel */
"97 31 9 1 ",
"  c #140C1C",
". c #442434",
"X c #4E4A4E",
"o c #757161",
"O c #854C30",
"+ c #D27D2C",
"@ c #DAD45E",
"# c #DEEED6",
"$ c None",
/* pixels */
"$$$$$$$$$$$$$$$$$$$$$$$$$$$$$$$$$$$$$$$$$$$$$$$$$$$$$$$$$$$$$$$$$$$$$$$$$$$$$$$$$$$$$$$$$$$$$$$$$",
"$$$$$$$$$$$$$$$$$$$$$$$$$$$$$$$$$$$$$$$$$$$$$$$$$$$$$$$$$$$$$$$$$$$$$$$$$$$$$$$$$$$$$$$$$$$$$$$$$",
"$$$$$$$$$$$$$$$$$$$$$$$$$$$$$$$$$$$$$$$$$$$$$$$$$$$$$$$$$$$$$$$$$$$$$$$$$$$$$$$$$$$$$$$$$$$$$$$$$",
"$$$$$$$$$$$$$$$$$$$$$$$$$$$$$$$$$$$$$$$$$$$$$$$$$$$$$$$$$$$$$$$$$$$$$$$$$$$$$$$$$$$$$$$$$$$$$$$$$",
"$$$$$$$$$$$$$$                    $$$$$                    $$$$$                    $$$$$$$$$$$$$",
"$$$$$$$$$$$$$ @@@@@@@@@@@@@+@@+@++ $$$ @@@@@@@@@@@@@+@@+@++ $$$ @@@@@@@@@@@@@+@@+@++ $$$$$$$$$$$$",
"$$$$$$$$$$$$ @#OOOOOOOOO+OO+O++++++ $ @#OOOOOOOOO+OO+O++++++ $ @#OOOOOOOOO+OO+O++++++ $$$$$$$$$$$",
"$$$$$$$$$$$$ @OO                .+O $ @OO                .+O $ @OO                .+O $$$$$$$$$$$",
"$$$$$$$$$$$$ @O ..............XX ++ $ @O ..............XX ++ $ @O ..............XX ++ $$$$$$$$$$$",
"$$$$$$$    $ @O .XXXXXXXXXXXXXXX +O $ @O .XXXXXXXXXXXXXXX +O $ @O .XXXXXXXXXXXXXXX +O $    $$$$$$",
"$$$$$$ @@@ $ @O .XXXXXXXXXXXXXXX +O $ @O .XXXXXXXXXXXXXXX +O $ @O .XXXXXXXXXXXXXXX +O $ +@@ $$$$$",
"$$$$$ @+++   @O .XXXXXXXXXXXXXXX ++   @O .XXXXXXXXXXXXXXX ++   @O .XXXXXXXXXXXXXXX ++   @@+@ $$$$",
"$$$$$ @+++ + @O .XXXXXXXXXXXXXXX +O + @O .XXXXXXXXXXXXXXX +O + @O .XXXXXXXXXXXXXXX +O + ++@+ $$$$",
"$$$$ @+++O O @O .XXXXXXXXXXXXXXX +O O @O .XXXXXXXXXXXXXXX +O O @O .XXXXXXXXXXXXXXX +O O ++++@ $$$",
"$$$$ @+O++ O @O .XXXXXXXXXXXXXXX +O O @O .XXXXXXXXXXXXXXX +O O @O .XXXXXXXXXXXXXXX +O O +O+++ $$$",
"$$$$ +OO + O @O .XXXXXXXXXXXXXXo @O O @O .XXXXXXXXXXXXXXo @O O @O .XXXXXXXXXXXXXXo @O O OO ++ $$$",
"$$$$ @+ O@ O @+ .XXXXXXXXXXXXXXX +O O @+ .XXXXXXXXXXXXXXX +O O @+ .XXXXXXXXXXXXXXX +O O + O@O $$$",
"$$$$ +++@+ O @O .XXXXXXXXXXXXXXX @O O @O .XXXXXXXXXXXXXXX @O O @O .XXXXXXXXXXXXXXX @O O ++@+O $$$",
"$$$$ ++++O O @O .XXXXXXXXXXXXXXo @O O @O .XXXXXXXXXXXXXXo @O O @O .XXXXXXXXXXXXXXo @O O O++OO $$$",
"$$$$$ +O+O O ++ .XXXXXXXXXXXXXXX +O O ++ .XXXXXXXXXXXXXXX +O O ++ .XXXXXXXXXXXXXXX +O O +++O $$$$",
"$$$$$ O+O+   @O .XXXXXXXXXXXXXXo @O   @O .XXXXXXXXXXXXXXo @O   @O .XXXXXXXXXXXXXXo @O   O++O $$$$",
"$$$$$$ OOO $ @+ .XXXXXXXXXXXXXXo @O $ @+ .XXXXXXXXXXXXXXo @O $ @+ .XXXXXXXXXXXXXXo @O $ OOO $$$$$",
"$$$$$$$    $ ++ XXXXXXXXXXXXXXXo @O $ ++ XXXXXXXXXXXXXXXo @O $ ++ XXXXXXXXXXXXXXXo @O $    $$$$$$",
"$$$$$$$$$$$$ @+ XXXXXXXoXXoXoooo @O $ @+ XXXXXXXoXXoXoooo @O $ @+ XXXXXXXoXXoXoooo @O $$$$$$$$$$$",
"$$$$$$$$$$$$ ++.                .+O $ ++.                .+O $ ++.                .+O $$$$$$$$$$$",
"$$$$$$$$$$$$ ++++++++++@+@@+@@@@++O $ ++++++++++@+@@+@@@@++O $ ++++++++++@+@@+@@@@++O $$$$$$$$$$$",
"$$$$$$$$$$$$$ +O+OO+OOOOOOOOOOOOOO $$$ +O+OO+OOOOOOOOOOOOOO $$$ +O+OO+OOOOOOOOOOOOOO $$$$$$$$$$$$",
"$$$$$$$$$$$$$$                    $$$$$                    $$$$$                    $$$$$$$$$$$$$",
"$$$$$$$$$$$$$$$$$$$$$$$$$$$$$$$$$$$$$$$$$$$$$$$$$$$$$$$$$$$$$$$$$$$$$$$$$$$$$$$$$$$$$$$$$$$$$$$$$",
"$$$$$$$$$$$$$$$$$$$$$$$$$$$$$$$$$$$$$$$$$$$$$$$$$$$$$$$$$$$$$$$$$$$$$$$$$$$$$$$$$$$$$$$$$$$$$$$$$",
"$$$$$$$$$$$$$$$$$$$$$$$$$$$$$$$$$$$$$$$$$$$$$$$$$$$$$$$$$$$$$$$$$$$$$$$$$$$$$$$$$$$$$$$$$$$$$$$$$"
};
