/* XPM */
static char *result[] = {
/* columns rows colors chars-per-pixel */
"97 31 18 1 ",
"  c black",
". c #160101",
"X c #140C1C",
"o c #3E212F",
"O c #442434",
"+ c #6B3D27",
"@ c #474347",
"# c #4E4A4E",
"$ c #757161",
"% c #8C0707",
"& c #E80C0C",
"* c #854C30",
"= c #A96523",
"- c #D27D2C",
"; c #DAD45E",
": c #DEEED6",
"> c #F7F7EB",
", c None",
/* pixels */
",,,,,,,,,,,,,,,,,,,,,,,,,,,,,,,,,,,,,,,,,,,,,,,,,,,,,,,,,,,,,,,,,,,,,,,,,,,,,,,,,,,,,,,,,,,,,,,,,",
",,,,,,,,,,,,,,,,,,,,,,,,,,,,,,,,,,,,,,,,,,,,,,,,,,,,,,,,,,,,,,,,,,,,,,,,,,,,,,,,,,,,,,,,,,,,,,,,,",
",,,,,,,,,,,,,,,,,,,,,,,,,,,,,,,,,,,,,,,,,,,,,,,,,,,,,,,,,,,,,,,,,,,,,,,,,,,,,,,,,,,,,,,,,,,,,,,,,",
",,,,,,,,,,,,,,,,,,,,,,,,,,,,,,,,,,,,,,,,,,,,,,,,,,,,,,,,,,,,,,,,,,,,,,,,,,,,,,,,,,,,,,,,,,,,,,,,,",
",,,,,,,,,,,,,,XXXXXXXXXXXXXXXXXXXX,,,,,XXXXXXXXXXXXXXXXXXXX,,,,,XXXXXXXXXXXXXXXXXXXX,,,,,,,,,,,,,",
",,,,,,,,,,,,,X;;;;;;;;;;;;;-;;-;--X,,,X;;;;;;;;;;;;;-;;-;--X,,,X;;;;;;;;;;;;;-;;-;--X,,,,,,,,,,,,",
",,,,,,,,,,,,X;:****++++*-++=+------X,X;:*********-**-*------X,X;:*********-**-*------X,,,,,,,,,,,",
",,,,,,,,,,,,X;**XXX    XX    XXXO-*X,X;**XXX    XX    XXXO-*X,X;**XXXXXXXXXXXXXXXXO-*X,,,,,,,,,,,",
",,,,,,,,,,,,X;*XOoo....oo....o@#X--X,X;*XOOO    OO    O##X--X,X;*XOOOOOOOOOOOOOO##X--X,,,,,,,,,,,",
",,,,,,,XXXX,X;*XO  &&&&  &&&&  #X-*X,X;*XO  &&&&  &&&&  #X-*X,X;*XO###############X-*X,XXXX,,,,,,",
",,,,,,X;;;X,X;*XO  &&&&  &&&&  #X-*X,X;*XO  &&&&  &&&&  #X-*X,X;*XO###############X-*X,X-;;X,,,,,",
",,,,,X;---XXX;*  &&>>&&&&&&&&&&  --XXX;*  &&>>&&&&&&&&&&  --XXX;*XO###############X--XXX;;-;X,,,,",
",,,,,X;---X-X;*  &&>>&&&&&&&&&&  -*X-X;*  &&>>&&&&&&&&&&  -*X-X;*XO###############X-*X-X--;-X,,,,",
",,,,X;---*X*X;*  &&&&&&&&&&&&&&  -*X*X;*  &&&&&&&&&&&&&&  -*X*X;*XO###############X-*X*X----;X,,,",
",,,,X;-*--X*X;*  &&&&&&&&&&&&&&  -*X*X;*  &&&&&&&&&&&&&&  -*X*X;*XO###############X-*X*X-*---X,,,",
",,,,X-**X-X*X;*  %%&&&&&&&&&&%%  ;*X*X;*  %%&&&&&&&&&&%%  ;*X*X;*XO##############$X;*X*X**X--X,,,",
",,,,X;-X*;X*X;-  %%&&&&&&&&&&%%  -*X*X;-  %%&&&&&&&&&&%%  -*X*X;-XO###############X-*X*X-X*;*X,,,",
",,,,X---;-X*X;*XO  %%&&&&&&%%  #X;*X*X;*XO  %%&&&&&&%%  #X;*X*X;*XO###############X;*X*X--;-*X,,,",
",,,,X----*X*X;*XO  %%&&&&&&%%  $X;*X*X;*XO  %%&&&&&&%%  $X;*X*X;*XO##############$X;*X*X*--**X,,,",
",,,,,X-*-*X*X--XO##  %%&&%%  ###X-*X*X--XO##  %%&&%%  ###X-*X*X--XO###############X-*X*X---*X,,,,",
",,,,,X*-*-XXX;*XO##  %%&&%%  ##$X;*XXX;*XO##  %%&&%%  ##$X;*XXX;*XO##############$X;*XXX*--*X,,,,",
",,,,,,X***X,X;-XO####  %%  ####$X;*X,X;-XO####  %%  ####$X;*X,X;-XO##############$X;*X,X***X,,,,,",
",,,,,,,XXXX,X--X#####  %%  ####$X;*X,X--X#####  %%  ####$X;*X,X--X###############$X;*X,XXXX,,,,,,",
",,,,,,,,,,,,X;-X#######  #$#$$$$X;*X,X;-X#######  #$#$$$$X;*X,X;-X#######$##$#$$$$X;*X,,,,,,,,,,,",
",,,,,,,,,,,,X--OXXXXXXX  XXXXXXXO-*X,X--OXXXXXXX  XXXXXXXO-*X,X--OXXXXXXXXXXXXXXXXO-*X,,,,,,,,,,,",
",,,,,,,,,,,,X----------;-;;-;;;;--*X,X----------;-;;-;;;;--*X,X----------;-;;-;;;;--*X,,,,,,,,,,,",
",,,,,,,,,,,,,X-*-**-**************X,,,X-*-**-**************X,,,X-*-**-**************X,,,,,,,,,,,,",
",,,,,,,,,,,,,,XXXXXXXXXXXXXXXXXXXX,,,,,XXXXXXXXXXXXXXXXXXXX,,,,,XXXXXXXXXXXXXXXXXXXX,,,,,,,,,,,,,",
",,,,,,,,,,,,,,,,,,,,,,,,,,,,,,,,,,,,,,,,,,,,,,,,,,,,,,,,,,,,,,,,,,,,,,,,,,,,,,,,,,,,,,,,,,,,,,,,,",
",,,,,,,,,,,,,,,,,,,,,,,,,,,,,,,,,,,,,,,,,,,,,,,,,,,,,,,,,,,,,,,,,,,,,,,,,,,,,,,,,,,,,,,,,,,,,,,,,",
",,,,,,,,,,,,,,,,,,,,,,,,,,,,,,,,,,,,,,,,,,,,,,,,,,,,,,,,,,,,,,,,,,,,,,,,,,,,,,,,,,,,,,,,,,,,,,,,,"
};
