/* XPM */
static char *result[] = {
/* columns rows colors chars-per-pixel */
"50 43 226 2 ",
"   c #0C0905",
".  c #0D0A05",
"X  c #0D0A06",
"o  c #0E0B07",
"O  c #0F0C08",
"+  c #100C08",
"@  c #100D08",
"#  c #100D09",
"$  c #110E0A",
"%  c #110E0B",
"&  c #120F0B",
"*  c #13100C",
"=  c #14110D",
"-  c #15120E",
";  c #1B160F",
":  c #191612",
">  c #1A1714",
",  c #1C1A16",
"<  c #1E1B17",
"1  c #1E1B18",
"2  c #1F1C18",
"3  c #1F1C19",
"4  c #201D1A",
"5  c #211E1A",
"6  c #24221E",
"7  c #25221F",
"8  c #292723",
"9  c #2B2925",
"0  c #2C2A26",
"q  c #342D22",
"w  c #312C25",
"e  c #312E2B",
"r  c #33302D",
"t  c #34312E",
"y  c #363330",
"u  c #363430",
"i  c #393733",
"p  c #3B3936",
"a  c #3C3A37",
"s  c #3D3B38",
"d  c #43403D",
"f  c #43413E",
"g  c #474441",
"h  c #494744",
"j  c #4F4B45",
"k  c #4D4B48",
"l  c #4F4D4A",
"z  c #514F4C",
"x  c #5D5344",
"c  c #53514E",
"v  c #54524F",
"b  c #585653",
"n  c #595654",
"m  c #595754",
"M  c #5A5855",
"N  c #5B5956",
"B  c #5B5957",
"V  c #5C5A57",
"C  c #5D5A58",
"Z  c #62605D",
"A  c #696764",
"S  c #696765",
"D  c #6B6967",
"F  c #776E60",
"G  c #72706E",
"H  c #73716E",
"J  c #73716F",
"K  c #767472",
"L  c #797775",
"P  c #7A7775",
"I  c #797876",
"U  c #7D7B77",
"Y  c #807F7D",
"T  c #887D7A",
"R  c #8A7F7C",
"E  c #82807E",
"W  c #82817F",
"Q  c #FF8674",
"!  c #FF8774",
"~  c #FF8775",
"^  c #FF8876",
"/  c #FF8977",
"(  c #FF8A78",
")  c #FF8B79",
"_  c #FF8C7A",
"`  c #FF8D7B",
"'  c #FF8D7C",
"]  c #FF8E7C",
"[  c #FF8E7D",
"{  c #FF8F7E",
"}  c #FF907F",
"|  c #868583",
" . c #898785",
".. c #888886",
"X. c #898886",
"o. c #8D8C8A",
"O. c #959391",
"+. c #959492",
"@. c #979594",
"#. c #979694",
"$. c #969695",
"%. c #979695",
"&. c #979795",
"*. c #979796",
"=. c #989795",
"-. c #989897",
";. c #999897",
":. c #9D9C9B",
">. c #A5A4A2",
",. c #A7A6A5",
"<. c #A7A7A6",
"1. c #AAA9A8",
"2. c #ADACAB",
"3. c #B0AFAE",
"4. c #B1B0AF",
"5. c #B0B1B0",
"6. c #B8B7B6",
"7. c #BBBAB8",
"8. c #BEBDBC",
"9. c #FF9281",
"0. c #FF9282",
"q. c #FF9483",
"w. c #FF9A8A",
"e. c #FF9B8C",
"r. c #FF9C8D",
"t. c #FFA091",
"y. c #FFA192",
"u. c #FFA597",
"i. c #FFA598",
"p. c #FFA698",
"a. c #FFA89A",
"s. c #FDA99C",
"d. c #FFA99C",
"f. c #FFAA9D",
"g. c #FFAC9F",
"h. c #C0BFBE",
"j. c #DCB6B0",
"k. c #FFAFA3",
"l. c #F2B5AB",
"z. c #FFBCB1",
"x. c #FFBFB5",
"c. c #C8C2BC",
"v. c #FFC0B7",
"b. c #FFC1B7",
"n. c #FFC3BA",
"m. c #FFC4BB",
"M. c #FFC8BF",
"N. c #C8C8C7",
"B. c #CCCAC6",
"V. c #CBCBCA",
"C. c #CDCCCC",
"Z. c #CFCECD",
"A. c #CECFCE",
"S. c #CECFCF",
"D. c #DFCBC5",
"F. c #CFD0CF",
"G. c #D0D0CF",
"H. c #D1D0CF",
"J. c #D4D2CE",
"K. c #D0D1D1",
"L. c #D1D2D0",
"P. c #D4D3D2",
"I. c #D5D4D4",
"U. c #D6D6D5",
"Y. c #DEDDDD",
"T. c #F7CCC5",
"R. c #FFCBC3",
"E. c #F9CEC7",
"W. c #FFCCC4",
"Q. c #FFCEC6",
"!. c #FFCFC7",
"~. c #FFD0C9",
"^. c #FFD7D1",
"/. c #FFD9D3",
"(. c #FFDBD6",
"). c #FFDDD8",
"_. c #E4E4E3",
"`. c #E5E5E4",
"'. c #E8EAEA",
"]. c #EDECEC",
"[. c gray93",
"{. c #EFEFEF",
"}. c #FFE4E0",
"|. c #FFE5E1",
" X c #FFE6E2",
".X c #FFE7E3",
"XX c #FFE8E4",
"oX c #FFE9E6",
"OX c #FFEAE7",
"+X c #FFEBE7",
"@X c #FFECE9",
"#X c #FFEDE9",
"$X c #FFEDEA",
"%X c #FFEFEC",
"&X c #FFF0ED",
"*X c #FFF1EE",
"=X c #FFF1EF",
"-X c #F2F3F3",
";X c #F3F3F3",
":X c #F5F1F0",
">X c gray96",
",X c #F7F7F6",
"<X c #FCF5F4",
"1X c #FCF6F5",
"2X c #FCF7F6",
"3X c #FFF9F7",
"4X c #F5F7F8",
"5X c #F8F8F8",
"6X c #F8F9F9",
"7X c #F9F9F9",
"8X c #FCFBFB",
"9X c #FFFBFA",
"0X c #FEFBFB",
"qX c #FFFCFB",
"wX c gray99",
"eX c #FDFDFD",
"rX c #FFFCFC",
"tX c #FFFDFC",
"yX c #FEFDFD",
"uX c #FFFDFD",
"iX c #FDFFFF",
"pX c #FEFEFE",
"aX c #FFFEFE",
"sX c #FFFFFE",
"dX c white",
"fX c None",
/* pixels */
"fXfXfXfXfXfXfXfXfXfXfXfXfXfXfXfXfXfXfXfXfXfXfXfXfXfXfXfXfXfXfXfXfXfXfXfXfXfXfXfXfXfXfXfXfXfXfXfXfXfX",
"fXfXfXfXfXfXfXfXfXfXfXfXfXfXfXfXfXfXfXfXfXfXfXfXfXfXfXfXfXfXfXfXfXfXfXfXfXfXfXfXfXfXfXfXfXfXfXfXfXfX",
"fXfXfXfXfXfXfXfXfXfXfXfXfXfXfXfXfXfXfXfXfXfXfXfXfXfXfXfXfXfXfXfXfXfXfXfXfXfXfXfXfXfXfXfXfXfXfXfXfXfX",
"fXfXfXfXfXfXfXfXfXfXfXfXfXfXfXfXfXfXfXfXfXfXfXfXfXfXfXfXfXfXfXfXfXfXfXfXfXfXfXfXfXfXfXfXfXfXfXfXfXfX",
"fXfXfXfXfXfXfXfXfXfXfXfXfXfXfXfXfXfXfXfXfXfXfXfXfXfXfXfXfXfXfXfXfXfXfXfXfXfXfXfXfXfXfXfXfXfXfXfXfXfX",
"fXfXfXfXfXfXfXfXfXfXfXfXfXfXfXfXfXfXfXfXfXfXfXfXfXfXfXfXfXfXfXfXfXfXfXfXfXfXfXfXfXfXfXfXfXfXfXfXfXfX",
"fXfXfXfXfXfXfXfXfXfXfXfXfXfXfXfXfXfXfXfXfXfXfXfXfXfXfXfXfXfXfXfXfXfXfXfXfXfXfXfXfXfXfXfXfXfXfXfXfXfX",
"fXfXfXfXfXfXfXfXfXfXfXfXfXfXfXfXfXfXfX. . . . fXfXfXfX. . . . fXfXfXfXfXfXfXfXfXfXfXfXfXfXfXfXfXfXfX",
"fXfXfXfXfXfXfXfXfXfXfXfXfXfXfXfXfXfXl H G J A fXfXfXfXA J G H l fXfXfXfXfXfXfXfXfXfXfXfXfXfXfXfXfXfX",
"fXfXfXfXfXfXfXfXfXfXfXfXfXfXfXfXfX7 | dXdXdXZ.3 fXfX3 Z.dXdXdX| 7 fXfXfXfXfXfXfXfXfXfXfXfXfXfXfXfXfX",
"fXfXfXfXfXfXfXfXfXfXfXfXfXfXfXfX2 6.{.dXdXdXC., fXfX, C.dXdXdX{.6.2 fXfXfXfXfXfXfXfXfXfXfXfXfXfXfXfX",
"fXfXfXfXfXfXfXfXfXfXfXfXfXfXfXfX3 F.XXv.v. X'.+.h h +.'. Xv.v.XXF.3 fXfXfXfXfXfXfXfXfXfXfXfXfXfXfXfX",
"fXfXfXfXfXfXfXfXfXfXfXfXfXfXfXfX3 S.Q.~ ~ x.=XaXm m aX=Xx.~ ~ Q.S.3 fXfXfXfXfXfXfXfXfXfXfXfXfXfXfXfX",
"fXfXfXfXfXfXfXfXfXfXfXfXfX* * & 2 S.!./ ( ' d.1Xm m 1Xd.' ( / !.S.2 & * * fXfXfXfXfXfXfXfXfXfXfXfXfX",
"fXfXfXfXfXfXfXfXfXfXfXfXi >.2.L < K.~.~ ^ Q y.<Xm m <Xy.Q ^ ~ Q.A.4 I 2.>.a fXfXfXfXfXfXfXfXfXfXfXfX",
"fXfXfXfXfXfXfXfXfXfXfXf K 7XdXV.N <.j.f.f.d.z.2Xm m 2Xz.d.f.d.).L.w 7.dX,Xj ; fXfXfXfXfXfXfXfXfXfXfX",
"fXfXfXfXfXfXfXfXfXfX@ O.yX9X9X0X].d P aXrXqXtXwXn n wXtXqXrXrX8XJ.x c.sX:XF q % fXfXfXfXfXfXfXfXfXfX",
"fXfXfXfXfXfXfXfXfXfX@ %.*Xg.u.m.-Xp K dXdXdXdXdXM M dXdXdXdXdX=.Z B.l.p.s.D.U # fXfXfXfXfXfXfXfXfXfX",
"fXfXfXfXfXfXfXfXfXfX@ &.OX[ Q t.T.R W 3.>XdX[.,.s s ,.[.dX>X3.Y T E.y.Q [ #X-.+ fXfXfXfXfXfXfXfXfXfX",
"fXfXfXfXfXfXfXfXfXfX@ &.$Xw.` / } +X$.8 H.{.8.< $ $ < 8.{.H.8 $.+X} / ` w.$X&.@ fXfXfXfXfXfXfXfXfXfX",
"fXfXfXfXfXfXfXfXfXfX@ @.dX@Xa.Q { +X*.= r u 0 $ o o $ 0 u r = *.+X{ Q a.@XdX@.@ fXfXfXfXfXfXfXfXfXfX",
"fXfXfXfXfXfXfXfXfXfX@ #.dXdX^.n.M.3X;.O . z  ...X.X... .z . O ;.3XM.n.^.dXdX#.@ fXfXfXfXfXfXfXfXfXfX",
"fXfXfXfXfXfXfXfXfXfX@ X._.eXdXdXiX`.E - e 1.dX*X&X&X*XdX1.e - E `.iXdXdXeX_.X.@ fXfXfXfXfXfXfXfXfXfX",
"fXfXfXfXfXfXfXfXfXfXfX5 c ;XdXdX;Xv : 9 G.6XoXw.q.q.w.oX6XG.9 : v ;XdXdX;Xc 5 fXfXfXfXfXfXfXfXfXfXfX",
"fXfXfXfXfXfXfXfXfXfXfXfXt D I.U.S 1 k 4.4X/.g._ / / _ g./.4X4.k 1 S U.I.D t fXfXfXfXfXfXfXfXfXfXfXfX",
"fXfXfXfXfXfXfXfXfXfXfXfXfX# =.o.* a :.dX.Xk.! ( ( ( ( ! k..XdX:.a * o.=.# fXfXfXfXfXfXfXfXfXfXfXfXfX",
"fXfXfXfXfXfXfXfXfXfXfXfXfXfX> : 6 N.eX%Xe.) ( ( ( ( ( ( ) e.%XeXN.6 : > fXfXfXfXfXfXfXfXfXfXfXfXfXfX",
"fXfXfXfXfXfXfXfXfXfXfXfXfXfXX g h.-X(.i.] ( ( ( ( ( ( ( ( ] i.(.-Xh.g X fXfXfXfXfXfXfXfXfXfXfXfXfXfX",
"fXfXfXfXfXfXfXfXfXfXfXfXfXfX  C dXdXR.~ ( ( ( / / / / ( ( ( ~ R.dXdXC   fXfXfXfXfXfXfXfXfXfXfXfXfXfX",
"fXfXfXfXfXfXfXfXfXfXfXfXfXfX  B wXdXW./ ( ( _ 9.0.0.9._ ( ( / W.dXwXB   fXfXfXfXfXfXfXfXfXfXfXfXfXfX",
"fXfXfXfXfXfXfXfXfXfXfXfXfXfX  B wXdXR.~ ^ ! r.|.$X$X|.r.! ^ ~ R.dXwXB   fXfXfXfXfXfXfXfXfXfXfXfXfXfX",
"fXfXfXfXfXfXfXfXfXfXfXfXfXfX  V pXdX}.v.b.v.!.uX5.5.uX!.v.b.v.}.dXpXV   fXfXfXfXfXfXfXfXfXfXfXfXfXfX",
"fXfXfXfXfXfXfXfXfXfXfXfXfXfX  b Y.5XdXdXdXdX6XY.c c Y.6XdXdXdXdX5XY.b   fXfXfXfXfXfXfXfXfXfXfXfXfXfX",
"fXfXfXfXfXfXfXfXfXfXfXfXfXfXfXfXy P.dXdXdXdXP.y fXfXy P.dXdXdXdXP.y fXfXfXfXfXfXfXfXfXfXfXfXfXfXfXfX",
"fXfXfXfXfXfXfXfXfXfXfXfXfXfXfXfXfXA J G G J A fXfXfXfXA J G G J A fXfXfXfXfXfXfXfXfXfXfXfXfXfXfXfXfX",
"fXfXfXfXfXfXfXfXfXfXfXfXfXfXfXfXfX. . . . . . fXfXfXfX. . . . . . fXfXfXfXfXfXfXfXfXfXfXfXfXfXfXfXfX",
"fXfXfXfXfXfXfXfXfXfXfXfXfXfXfXfXfXfXfXfXfXfXfXfXfXfXfXfXfXfXfXfXfXfXfXfXfXfXfXfXfXfXfXfXfXfXfXfXfXfX",
"fXfXfXfXfXfXfXfXfXfXfXfXfXfXfXfXfXfXfXfXfXfXfXfXfXfXfXfXfXfXfXfXfXfXfXfXfXfXfXfXfXfXfXfXfXfXfXfXfXfX",
"fXfXfXfXfXfXfXfXfXfXfXfXfXfXfXfXfXfXfXfXfXfXfXfXfXfXfXfXfXfXfXfXfXfXfXfXfXfXfXfXfXfXfXfXfXfXfXfXfXfX",
"fXfXfXfXfXfXfXfXfXfXfXfXfXfXfXfXfXfXfXfXfXfXfXfXfXfXfXfXfXfXfXfXfXfXfXfXfXfXfXfXfXfXfXfXfXfXfXfXfXfX",
"fXfXfXfXfXfXfXfXfXfXfXfXfXfXfXfXfXfXfXfXfXfXfXfXfXfXfXfXfXfXfXfXfXfXfXfXfXfXfXfXfXfXfXfXfXfXfXfXfXfX",
"fXfXfXfXfXfXfXfXfXfXfXfXfXfXfXfXfXfXfXfXfXfXfXfXfXfXfXfXfXfXfXfXfXfXfXfXfXfXfXfXfXfXfXfXfXfXfXfXfXfX",
"fXfXfXfXfXfXfXfXfXfXfXfXfXfXfXfXfXfXfXfXfXfXfXfXfXfXfXfXfXfXfXfXfXfXfXfXfXfXfXfXfXfXfXfXfXfXfXfXfXfX"
};
