/* XPM */
static char *other_01675571579[] = {
/* columns rows colors chars-per-pixel */
"100 100 10 1 ",
"  c None",
". c gray4",
"X c #130F0F",
"o c #100E10",
"O c #161011",
"+ c #221B1A",
"@ c #312B28",
"# c #413736",
"$ c #423D39",
"% c #55524C",
/* pixels */
"      ................      .............      ......................   ......................      ",
"      ................      .............      ......................   ......................      ",
"      ................      .............      ......................   ......................      ",
"   ...@@@$$$%%%%%%%%%%......@@@%%%%%%%%%%......@@@$$$%%%%%%%%%%%%%%%%...@@@%%%%%%$$$$$$%%%%%%%...   ",
"   ...@@@$$$%%%%%%%%%%......@@@%%%%%%%%%%......@@@$$$%%%%%%%%%%%%%%%%...@@@%%%%%%$$$$$$%%%%%%%...   ",
"   ...@@@$$$%%%%%%%%%%......@@@%%%%%%%%%%......@@@$$$%%%%%%%%%%%%%%%%...@@@%%%%%%$$$$$$%%%%%%%...   ",
"...@@@$$$%%%%%%%%%%$$$@@@$$$%%%%%%%%%$$$$$$$@@@$$$%%%%%%$$$$$$%%%%$$$$$$$$$$$$$$$$$$%%%%%%%$$$$$$...",
"...@@@$$$%%%%%%%%%%$$$@@@$$$%%%%%%%%%$$$$$$$@@@$$$%%%%%%$$$$$$%%%%$$$$$$$$$$$$$$$$$$%%%%%%%$$$$$$...",
"...@@@$$$%%%%%%%%%%$$$@@@$$$%%%%%%%%%$$$$$$$@@@$$$%%%%%%$$$$$$%%%%$$$$$$$$$$$$$$$$$$%%%%%%%$$$$$$...",
"...+++@@@$$$%%%%%%%++++++@@@$$$%%%%%%@@@@@@@@@@$$$$$$%%%+++@@@$$$$@@@@@@@@@@@@+++@@@$$$%%%%@@@@@@...",
"...+++@@@$$$%%%%%%%++++++@@@$$$%%%%%%@@@@@@@@@@$$$$$$%%%+++@@@$$$$@@@@@@@@@@@@+++@@@$$$%%%%@@@@@@...",
"...+++@@@$$$%%%%%%%++++++@@@$$$%%%%%%@@@@@@@@@@$$$$$$%%%+++@@@$$$$@@@@@@@@@@@@+++@@@$$$%%%%@@@@@@...",
"...+++@@@$$$%%%%$$$+++++++++@@@$$$$$$++++ooo+++@@@$$$$$$++++++@@@@++++++ooooooooo+++@@@$$$$+++...   ",
"...+++@@@$$$%%%%$$$+++++++++@@@$$$$$$++++ooo+++@@@$$$$$$++++++@@@@++++++ooooooooo+++@@@$$$$+++...   ",
"...+++@@@$$$%%%%$$$+++++++++@@@$$$$$$++++ooo+++@@@$$$$$$++++++@@@@++++++ooooooooo+++@@@$$$$+++...   ",
"...+++@@@$$$%%%%$$$+++++++++@@@$$$$$$++++ooo+++@@@$$$$$$++++++@@@@++++++ooooooooo+++@@@$$$$+++...   ",
"   ...ooo@@@$$$$@@@oooooo+++@@@$$$@@@oooooooooo+++@@@@@@+++oooooooXXXXXXXXXXXXoooooo+++++++OOO...   ",
"   ...ooo@@@$$$$@@@oooooo+++@@@$$$@@@oooooooooo+++@@@@@@+++oooooooXXXXXXXXXXXXoooooo+++++++OOO...   ",
"   ...ooo@@@$$$$@@@oooooo+++@@@$$$@@@oooooooooo+++@@@@@@+++oooooooXXXXXXXXXXXXoooooo+++++++OOO...   ",
"   ...ooo+++@@@@oooXXXoooooo+++@@@oooOOOOOOOoooooo++++++oooOOOXXXX@@@@@@@@@XXXXXXoooooo@@@@@@@...   ",
"   ...ooo+++@@@@oooXXXoooooo+++@@@oooOOOOOOOoooooo++++++oooOOOXXXX@@@@@@@@@XXXXXXoooooo@@@@@@@...   ",
"   ...ooo+++@@@@oooXXXoooooo+++@@@oooOOOOOOOoooooo++++++oooOOOXXXX@@@@@@@@@XXXXXXoooooo@@@@@@@...   ",
"   ...ooooooooooOOOOOOXXXoooooooooOOOOOOOOOOXXX@@@@@@OOOOOOXXX+++++++@@@@@@@@@OOOXXX+++@@@@@@@@@@...",
"   ...ooooooooooOOOOOOXXXoooooooooOOOOOOOOOOXXX@@@@@@OOOOOOXXX+++++++@@@@@@@@@OOOXXX+++@@@@@@@@@@...",
"   ...ooooooooooOOOOOOXXXoooooooooOOOOOOOOOOXXX@@@@@@OOOOOOXXX+++++++@@@@@@@@@OOOXXX+++@@@@@@@@@@...",
"   ...XXXXXXXXXXOOOooo+++XXXXXXOOO+++OOOOXXX+++@@@@@@@@@XXX++++++++++@@@######XXX++++++@@@@######...",
"   ...XXXXXXXXXXOOOooo+++XXXXXXOOO+++OOOOXXX+++@@@@@@@@@XXX++++++++++@@@######XXX++++++@@@@######...",
"   ...XXXXXXXXXXOOOooo+++XXXXXXOOO+++OOOOXXX+++@@@@@@@@@XXX++++++++++@@@######XXX++++++@@@@######...",
"...XXXXXX+++@@@@@@@OOOooo@@@XXXXXXOOOXXXX++++++@@@######XXX+++++++@@@######OOOoooXXX@@@#######OOO...",
"...XXXXXX+++@@@@@@@OOOooo@@@XXXXXXOOOXXXX++++++@@@######XXX+++++++@@@######OOOoooXXX@@@#######OOO...",
"...XXXXXX+++@@@@@@@OOOooo@@@XXXXXXOOOXXXX++++++@@@######XXX+++++++@@@######OOOoooXXX@@@#######OOO...",
"...XXXooo+++++++@@@@@@OOOXXX@@@@@@@@@ooooXXX@@@######OOOoooXXX@@@@######OOOXXXXXXoooXXXOOOOOOOOOO...",
"...XXXooo+++++++@@@@@@OOOXXX@@@@@@@@@ooooXXX@@@######OOOoooXXX@@@@######OOOXXXXXXoooXXXOOOOOOOOOO...",
"...XXXooo+++++++@@@@@@OOOXXX@@@@@@@@@ooooXXX@@@######OOOoooXXX@@@@######OOOXXXXXXoooXXXOOOOOOOOOO...",
"   ...XXXooo@@@@######XXX++++++@@@@@@OOOOooo######OOOOOOOOOoooXXXXOOOOOOXXX@@@@@@@@@@@@OOOOOOO...   ",
"   ...XXXooo@@@@######XXX++++++@@@@@@OOOOooo######OOOOOOOOOoooXXXXOOOOOOXXX@@@@@@@@@@@@OOOOOOO...   ",
"   ...XXXooo@@@@######XXX++++++@@@@@@OOOOooo######OOOOOOOOOoooXXXXOOOOOOXXX@@@@@@@@@@@@OOOOOOO...   ",
"      ...XXXoooo###OOOXXX+++@@@######XXXXOOOOOOXXXXXX@@@@@@@@@++++OOOXXX+++@@@@@@@@@@@@@@@@OOO...   ",
"      ...XXXoooo###OOOXXX+++@@@######XXXXOOOOOOXXXXXX@@@@@@@@@++++OOOXXX+++@@@@@@@@@@@@@@@@OOO...   ",
"      ...XXXoooo###OOOXXX+++@@@######XXXXOOOOOOXXXXXX@@@@@@@@@++++OOOXXX+++@@@@@@@@@@@@@@@@OOO...   ",
"      ...XXXoooo###OOOXXX+++@@@######XXXXOOOOOOXXXXXX@@@@@@@@@++++OOOXXX+++@@@@@@@@@@@@@@@@OOO...   ",
"      ...XXXXXXXOOOOOOooo@@@#########OOOOOOOXXX+++@@@@@@@@@@@@XXXX+++XXX++++++@@@@@@@@@@@@@@@@OOO...",
"      ...XXXXXXXOOOOOOooo@@@#########OOOOOOOXXX+++@@@@@@@@@@@@XXXX+++XXX++++++@@@@@@@@@@@@@@@@OOO...",
"      ...XXXXXXXOOOOOOooo@@@#########OOOOOOOXXX+++@@@@@@@@@@@@XXXX+++XXX++++++@@@@@@@@@@@@@@@@OOO...",
"   ...XXX@@@@@@@@@@OOOXXXooo######OOOOOOOXXX+++++++++@@@###OOOOOOOXXXooo+++++++++@@@@@@@@@@@@@OOO...",
"   ...XXX@@@@@@@@@@OOOXXXooo######OOOOOOOXXX+++++++++@@@###OOOOOOOXXXooo+++++++++@@@@@@@@@@@@@OOO...",
"   ...XXX@@@@@@@@@@OOOXXXooo######OOOOOOOXXX+++++++++@@@###OOOOOOOXXXooo+++++++++@@@@@@@@@@@@@OOO...",
"   ...+++@@@@@@@@@@@@@OOOOOOXXXXXXOOOXXXX++++++@@@@@@######XXX@@@@@@@OOOooo+++@@@#############OOO...",
"   ...+++@@@@@@@@@@@@@OOOOOOXXXXXXOOOXXXX++++++@@@@@@######XXX@@@@@@@OOOooo+++@@@#############OOO...",
"   ...+++@@@@@@@@@@@@@OOOOOOXXXXXXOOOXXXX++++++@@@@@@######XXX@@@@@@@OOOooo+++@@@#############OOO...",
"...+++++++++@@@@@@@@@@OOOXXX@@@@@@OOOOOOOooo@@@######OOOXXX+++@@@@###OOOOOO@@@#############OOO...   ",
"...+++++++++@@@@@@@@@@OOOXXX@@@@@@OOOOOOOooo@@@######OOOXXX+++@@@@###OOOOOO@@@#############OOO...   ",
"...+++++++++@@@@@@@@@@OOOXXX@@@@@@OOOOOOOooo@@@######OOOXXX+++@@@@###OOOOOO@@@#############OOO...   ",
"...++++++@@@##########XXX++++++@@@@@@OOOOOOOOOOooooooOOOooo@@@####OOOOOOOOOOOOooo######OOOO...      ",
"...++++++@@@##########XXX++++++@@@@@@OOOOOOOOOOooooooOOOooo@@@####OOOOOOOOOOOOooo######OOOO...      ",
"...++++++@@@##########XXX++++++@@@@@@OOOOOOOOOOooooooOOOooo@@@####OOOOOOOOOOOOooo######OOOO...      ",
"...ooo@@@##########OOOoooXXX@@@######OOOOXXXOOO@@@@@@OOO+++oooOOOOXXXXXX@@@@@@OOOOOOOOOXXXXXXX...   ",
"...ooo@@@##########OOOoooXXX@@@######OOOOXXXOOO@@@@@@OOO+++oooOOOOXXXXXX@@@@@@OOOOOOOOOXXXXXXX...   ",
"...ooo@@@##########OOOoooXXX@@@######OOOOXXXOOO@@@@@@OOO+++oooOOOOXXXXXX@@@@@@OOOOOOOOOXXXXXXX...   ",
"   ...ooo#######OOO+++OOOooo######OOOXXXX@@@@@@@@@@@@@@@XXXOOOXXXX+++@@@@@@@@@@@@OOOXXX@@@@@@@@@@...",
"   ...ooo#######OOO+++OOOooo######OOOXXXX@@@@@@@@@@@@@@@XXXOOOXXXX+++@@@@@@@@@@@@OOOXXX@@@@@@@@@@...",
"   ...ooo#######OOO+++OOOooo######OOOXXXX@@@@@@@@@@@@@@@XXXOOOXXXX+++@@@@@@@@@@@@OOOXXX@@@@@@@@@@...",
"   ...XXXXXXOOOOXXXOOOOOOOOOOOOOOOXXX+++++++@@@@@@@@@@@@OOOOOOXXXX++++++@@@@@@@@@ooo+++++++@@@###...",
"   ...XXXXXXOOOOXXXOOOOOOOOOOOOOOOXXX+++++++@@@@@@@@@@@@OOOOOOXXXX++++++@@@@@@@@@ooo+++++++@@@###...",
"   ...XXXXXXOOOOXXXOOOOOOOOOOOOOOOXXX+++++++@@@@@@@@@@@@OOOOOOXXXX++++++@@@@@@@@@ooo+++++++@@@###...",
"   ...XXXXXXOOOOXXXOOOOOOOOOOOOOOOXXX+++++++@@@@@@@@@@@@OOOOOOXXXX++++++@@@@@@@@@ooo+++++++@@@###...",
"      ...OOOXXXX@@@@@@@@@XXX+++OOOXXX++++++++++@@@######OOOOOO+++++++@@@######OOO+++ooo@@@@###OOO...",
"      ...OOOXXXX@@@@@@@@@XXX+++OOOXXX++++++++++@@@######OOOOOO+++++++@@@######OOO+++ooo@@@@###OOO...",
"      ...OOOXXXX@@@@@@@@@XXX+++OOOXXX++++++++++@@@######OOOOOO+++++++@@@######OOO+++ooo@@@@###OOO...",
"   ...XXXXXX@@@@@@@@@@@@@@@@OOOOOOooo+++++++@@@#########OOOooo++++@@@######OOOOOOXXXXXXOOOOOOO...   ",
"   ...XXXXXX@@@@@@@@@@@@@@@@OOOOOOooo+++++++@@@#########OOOooo++++@@@######OOOOOOXXXXXXOOOOOOO...   ",
"   ...XXXXXX@@@@@@@@@@@@@@@@OOOOOOooo+++++++@@@#########OOOooo++++@@@######OOOOOOXXXXXXOOOOOOO...   ",
"   ...XXX+++++++@@@@@@@@@@@@@@@OOOOOOoooo@@@#########oooOOOOOOoooo######OOOOOOXXX@@@@@@@@@@OOO...   ",
"   ...XXX+++++++@@@@@@@@@@@@@@@OOOOOOoooo@@@#########oooOOOOOOoooo######OOOOOOXXX@@@@@@@@@@OOO...   ",
"   ...XXX+++++++@@@@@@@@@@@@@@@OOOOOOoooo@@@#########oooOOOOOOoooo######OOOOOOXXX@@@@@@@@@@OOO...   ",
"...XXX++++++++++@@@@@@@@@@@@@@@XXX+++OOOOooo#########OOOXXX+++OOOOOOOOOOOOOXXX+++@@@@@@@@@@@@@...   ",
"...XXX++++++++++@@@@@@@@@@@@@@@XXX+++OOOOooo#########OOOXXX+++OOOOOOOOOOOOOXXX+++@@@@@@@@@@@@@...   ",
"...XXX++++++++++@@@@@@@@@@@@@@@XXX+++OOOOooo#########OOOXXX+++OOOOOOOOOOOOOXXX+++@@@@@@@@@@@@@...   ",
"...++++++++++++++++@@@@@@@@@@@@OOOXXXXXXXOOOooooooOOOXXXXXX@@@@@@@@@@@@@OOOXXX+++++++++@@@@@@@@@@...",
"...++++++++++++++++@@@@@@@@@@@@OOOXXXXXXXOOOooooooOOOXXXXXX@@@@@@@@@@@@@OOOXXX+++++++++@@@@@@@@@@...",
"...++++++++++++++++@@@@@@@@@@@@OOOXXXXXXXOOOooooooOOOXXXXXX@@@@@@@@@@@@@OOOXXX+++++++++@@@@@@@@@@...",
"...+++++++++++++@@@############XXX+++@@@@@@@OOOOOOXXX++++++@@@@@@@@@@@@@@@@OOOooo++++++@@@@######...",
"...+++++++++++++@@@############XXX+++@@@@@@@OOOOOOXXX++++++@@@@@@@@@@@@@@@@OOOooo++++++@@@@######...",
"...+++++++++++++@@@############XXX+++@@@@@@@OOOOOOXXX++++++@@@@@@@@@@@@@@@@OOOooo++++++@@@@######...",
"...ooo++++++@@@@############OOOXXX+++++++@@@@@@OOOXXX+++++++++@@@@@@@@@@@@@OOOooo+++@@@##########...",
"...ooo++++++@@@@############OOOXXX+++++++@@@@@@OOOXXX+++++++++@@@@@@@@@@@@@OOOooo+++@@@##########...",
"...ooo++++++@@@@############OOOXXX+++++++@@@@@@OOOXXX+++++++++@@@@@@@@@@@@@OOOooo+++@@@##########...",
"   ...++++++@@@@#########OOOXXXXXXooo@@@@######XXX+++++++++@@@##########OOOXXXXXXooo#############...",
"   ...++++++@@@@#########OOOXXXXXXooo@@@@######XXX+++++++++@@@##########OOOXXXXXXooo#############...",
"   ...++++++@@@@#########OOOXXXXXXooo@@@@######XXX+++++++++@@@##########OOOXXXXXXooo#############...",
"   ...++++++@@@@#########OOOXXXXXXooo@@@@######XXX+++++++++@@@##########OOOXXXXXXooo#############...",
"   ...ooo@@@##########XXXXXXXXX......oooo######ooo++++++@@@#############XXX...XXXXXXOOO#######OOO...",
"   ...ooo@@@##########XXXXXXXXX......oooo######ooo++++++@@@#############XXX...XXXXXXOOO#######OOO...",
"   ...ooo@@@##########XXXXXXXXX......oooo######ooo++++++@@@#############XXX...XXXXXXOOO#######OOO...",
"      ...ooo#######XXX.........      ....XXXXXX...ooo@@@#############......   ......XXXOOOOOOO...   ",
"      ...ooo#######XXX.........      ....XXXXXX...ooo@@@#############......   ......XXXOOOOOOO...   ",
"      ...ooo#######XXX.........      ....XXXXXX...ooo@@@#############......   ......XXXOOOOOOO...   ",
"         .............                   ......   ...................               ..........      ",
"         .............                   ......   ...................               ..........      ",
"         .............                   ......   ...................               ..........      "
};
