/* XPM */
static char *other_11675571578[] = {
/* columns rows colors chars-per-pixel */
"100 100 9 1 ",
"  c None",
". c #161318",
"X c #171732",
"o c #2A3351",
"O c #495960",
"+ c #4B6974",
"@ c #6DAA97",
"# c #BDDFC8",
"$ c #E7F2E7",
/* pixels */
"   ......................................      ..................................................   ",
"   ......................................      ..................................................   ",
"   ......................................      ..................................................   ",
"...@@@######$$$$######$$$$$$###$$$$$$$$$$......$$$$$$$$$$$$$$$####$$$$$$$$$$$$$$$$$$$$$$$$$$$$$$$...",
"...@@@######$$$$######$$$$$$###$$$$$$$$$$......$$$$$$$$$$$$$$$####$$$$$$$$$$$$$$$$$$$$$$$$$$$$$$$...",
"...@@@######$$$$######$$$$$$###$$$$$$$$$$......$$$$$$$$$$$$$$$####$$$$$$$$$$$$$$$$$$$$$$$$$$$$$$$...",
"...+++@@@@@@#############################$$$##################################################$$$...",
"...+++@@@@@@#############################$$$##################################################$$$...",
"...+++@@@@@@#############################$$$##################################################$$$...",
"...ooo+++@@@@@@@@@@@@@@@@@@@@@@@@@@@@#######@@@@@@@@@@@@@@@@@@@@@@@@@######@@@@@@@@@@@@@@@@###$$$...",
"...ooo+++@@@@@@@@@@@@@@@@@@@@@@@@@@@@#######@@@@@@@@@@@@@@@@@@@@@@@@@######@@@@@@@@@@@@@@@@###$$$...",
"...ooo+++@@@@@@@@@@@@@@@@@@@@@@@@@@@@#######@@@@@@@@@@@@@@@@@@@@@@@@@######@@@@@@@@@@@@@@@@###$$$...",
"...ooo+++@@@@@@@@@@++++++@@@@@@@@@@@@@@@@###@@@@@@@@@+++@@@@@@@@@@@@@###@@@@@@@@@@@@@@@@@@@######...",
"...ooo+++@@@@@@@@@@++++++@@@@@@@@@@@@@@@@###@@@@@@@@@+++@@@@@@@@@@@@@###@@@@@@@@@@@@@@@@@@@######...",
"...ooo+++@@@@@@@@@@++++++@@@@@@@@@@@@@@@@###@@@@@@@@@+++@@@@@@@@@@@@@###@@@@@@@@@@@@@@@@@@@######...",
"...ooo+++@@@@@@@@@@++++++@@@@@@@@@@@@@@@@###@@@@@@@@@+++@@@@@@@@@@@@@###@@@@@@@@@@@@@@@@@@@######...",
"...ooo++++++++++...ooo+++++++++++++++@@@@++++++++++++++++++++++++++++@@@+++++++++++++++++++###+++...",
"...ooo++++++++++...ooo+++++++++++++++@@@@++++++++++++++++++++++++++++@@@+++++++++++++++++++###+++...",
"...ooo++++++++++...ooo+++++++++++++++@@@@++++++++++++++++++++++++++++@@@+++++++++++++++++++###+++...",
"...ooooooooo.......oooooooooooo...oooooooooooooooo++++++oooooo+++++++++++++...+++oooooo+++++++ooo...",
"...ooooooooo.......oooooooooooo...oooooooooooooooo++++++oooooo+++++++++++++...+++oooooo+++++++ooo...",
"...ooooooooo.......oooooooooooo...oooooooooooooooo++++++oooooo+++++++++++++...+++oooooo+++++++ooo...",
"   ..............................................................................................   ",
"   ..............................................................................................   ",
"   ..............................................................................................   ",
"...ooo+++@@@####XXXXXX++++++@@@###@@@@@@@######XXXXXX+++@@@@@@####@@@@@@#########XXX+++@@@@###XXX...",
"...ooo+++@@@####XXXXXX++++++@@@###@@@@@@@######XXXXXX+++@@@@@@####@@@@@@#########XXX+++@@@@###XXX...",
"...ooo+++@@@####XXXXXX++++++@@@###@@@@@@@######XXXXXX+++@@@@@@####@@@@@@#########XXX+++@@@@###XXX...",
"...oooooo@@@####XXXooo+++++++++++++++@@@@@@@@@@###XXX++++++++++++++++@@@@@@@@@###XXXooo++++@@@###...",
"...oooooo@@@####XXXooo+++++++++++++++@@@@@@@@@@###XXX++++++++++++++++@@@@@@@@@###XXXooo++++@@@###...",
"...oooooo@@@####XXXooo+++++++++++++++@@@@@@@@@@###XXX++++++++++++++++@@@@@@@@@###XXXooo++++@@@###...",
"...oooooo+++@@@@XXXooo+++++++++++++++++++++++++@@@XXX++++++++++++++++++++++@@@@@@XXXooo++++@@@###...",
"...oooooo+++@@@@XXXooo+++++++++++++++++++++++++@@@XXX++++++++++++++++++++++@@@@@@XXXooo++++@@@###...",
"...oooooo+++@@@@XXXooo+++++++++++++++++++++++++@@@XXX++++++++++++++++++++++@@@@@@XXXooo++++@@@###...",
"...oooooo+++++++XXXooo+++oooooooooooo++++XXXXXXXXXXXXXXXXXXooo++++ooo+++ooo+++@@@XXXooo++++@@@+++...",
"...oooooo+++++++XXXooo+++oooooooooooo++++XXXXXXXXXXXXXXXXXXooo++++ooo+++ooo+++@@@XXXooo++++@@@+++...",
"...oooooo+++++++XXXooo+++oooooooooooo++++XXXXXXXXXXXXXXXXXXooo++++ooo+++ooo+++@@@XXXooo++++@@@+++...",
"...ooooooooo++++XXXoooooooooooooooXXXXXXXXXX@@@#########XXXXXXXXXXooooooooo++++++XXXoooooooooo+++...",
"...ooooooooo++++XXXoooooooooooooooXXXXXXXXXX@@@#########XXXXXXXXXXooooooooo++++++XXXoooooooooo+++...",
"...ooooooooo++++XXXoooooooooooooooXXXXXXXXXX@@@#########XXXXXXXXXXooooooooo++++++XXXoooooooooo+++...",
"...ooooooooo++++XXXoooooooooooooooXXXXXXXXXX@@@#########XXXXXXXXXXooooooooo++++++XXXoooooooooo+++...",
"   XXXXXXXXXXXXXXXXXXXXXXXXXXXXXXX#######XXXoooooo@@@@@@XXX@@@####XXXXXXXXXXXXXXXXXXXXXXXXXXXXXXXOOO",
"   XXXXXXXXXXXXXXXXXXXXXXXXXXXXXXX#######XXXoooooo@@@@@@XXX@@@####XXXXXXXXXXXXXXXXXXXXXXXXXXXXXXXOOO",
"   XXXXXXXXXXXXXXXXXXXXXXXXXXXXXXX#######XXXoooooo@@@@@@XXX@@@####XXXXXXXXXXXXXXXXXXXXXXXXXXXXXXXOOO",
"...XXX+++@@@@@@@###@@@@@@###XXXooo@@@@@@@oooXXXXXXXXXXXXooo@@@#######XXX@@@@@@###@@@#############...",
"...XXX+++@@@@@@@###@@@@@@###XXXooo@@@@@@@oooXXXXXXXXXXXXooo@@@#######XXX@@@@@@###@@@#############...",
"...XXX+++@@@@@@@###@@@@@@###XXXooo@@@@@@@oooXXXXXXXXXXXXooo@@@#######XXX@@@@@@###@@@#############...",
"...ooo++++++++++++++++@@@XXXXXX++++++ooooXXX............XXXooo@@@@###XXX++++++@@@@@@@@@@@@@######...",
"...ooo++++++++++++++++@@@XXXXXX++++++ooooXXX............XXXooo@@@@###XXX++++++@@@@@@@@@@@@@######...",
"...ooo++++++++++++++++@@@XXXXXX++++++ooooXXX............XXXooo@@@@###XXX++++++@@@@@@@@@@@@@######...",
"...ooo++++++++++++++++XXXXXXXXXXXXoooXXXX..................XXXooooXXXXXXXXX++++++++++++++++@@@###...",
"...ooo++++++++++++++++XXXXXXXXXXXXoooXXXX..................XXXooooXXXXXXXXX++++++++++++++++@@@###...",
"...ooo++++++++++++++++XXXXXXXXXXXXoooXXXX..................XXXooooXXXXXXXXX++++++++++++++++@@@###...",
"...ooooooooooooo+++oooXXXXXX+++###XXX.........................XXXX@@@###XXXoooooo+++ooo++++@@@@@@...",
"...ooooooooooooo+++oooXXXXXX+++###XXX.........................XXXX@@@###XXXoooooo+++ooo++++@@@@@@...",
"...ooooooooooooo+++oooXXXXXX+++###XXX.........................XXXX@@@###XXXoooooo+++ooo++++@@@@@@...",
"...XXXoooooooooooooXXXXXXXXX+++@@@XXX.........................XXXX@@@###XXXooooooooooooooooooo+++...",
"...XXXoooooooooooooXXXXXXXXX+++@@@XXX.........................XXXX@@@###XXXooooooooooooooooooo+++...",
"...XXXoooooooooooooXXXXXXXXX+++@@@XXX.........................XXXX@@@###XXXooooooooooooooooooo+++...",
"   XXXXXXXXXXXXXXXXXXXXXXXXXooo@@@XXX.........................XXXXooo###XXXXXXXXXXXXXXXXXXXXXXXXX   ",
"   XXXXXXXXXXXXXXXXXXXXXXXXXooo@@@XXX.........................XXXXooo###XXXXXXXXXXXXXXXXXXXXXXXXX   ",
"   XXXXXXXXXXXXXXXXXXXXXXXXXooo@@@XXX.........................XXXXooo###XXXXXXXXXXXXXXXXXXXXXXXXX   ",
"...ooo+++@@@XXXXXXXXXXXXXXXXooo+++XXX.........................XXXXooo@@@XXX###XXXXXX+++@@@@######...",
"...ooo+++@@@XXXXXXXXXXXXXXXXooo+++XXX.........................XXXXooo@@@XXX###XXXXXX+++@@@@######...",
"...ooo+++@@@XXXXXXXXXXXXXXXXooo+++XXX.........................XXXXooo@@@XXX###XXXXXX+++@@@@######...",
"...ooo+++@@@XXXXXXXXXXXXXXXXooo+++XXX.........................XXXXooo@@@XXX###XXXXXX+++@@@@######...",
"...oooooo+++####XXXXXXXXXXXXXXXXXX###XXXX..................XXX@@@@XXXXXXXXX@@@###XXXooo++++@@@###...",
"...oooooo+++####XXXXXXXXXXXXXXXXXX###XXXX..................XXX@@@@XXXXXXXXX@@@###XXXooo++++@@@###...",
"...oooooo+++####XXXXXXXXXXXXXXXXXX###XXXX..................XXX@@@@XXXXXXXXX@@@###XXXooo++++@@@###...",
"...oooooo+++@@@@XXXXXXXXXXXXXXX+++@@@####XXX............XXX+++@@@@###XXX++++++@@@XXXooo++++@@@@@@...",
"...oooooo+++@@@@XXXXXXXXXXXXXXX+++@@@####XXX............XXX+++@@@@###XXX++++++@@@XXXooo++++@@@@@@...",
"...oooooo+++@@@@XXXXXXXXXXXXXXX+++@@@####XXX............XXX+++@@@@###XXX++++++@@@XXXooo++++@@@@@@...",
"...oooooo+++++++XXXXXXXXXXXXXXXooo+++@@@@@@@XXXXXXXXXXXXooo+++++++@@@XXXooo++++++XXXooo++++@@@+++...",
"...oooooo+++++++XXXXXXXXXXXXXXXooo+++@@@@@@@XXXXXXXXXXXXooo+++++++@@@XXXooo++++++XXXooo++++@@@+++...",
"...oooooo+++++++XXXXXXXXXXXXXXXooo+++@@@@@@@XXXXXXXXXXXXooo+++++++@@@XXXooo++++++XXXooo++++@@@+++...",
"...ooooooooo++++XXXXXXXXXXXXXXXXXXooo++++XXX+++@@@######XXXoooooooXXXooooooooo+++XXXooooooo++++++...",
"...ooooooooo++++XXXXXXXXXXXXXXXXXXooo++++XXX+++@@@######XXXoooooooXXXooooooooo+++XXXooooooo++++++...",
"...ooooooooo++++XXXXXXXXXXXXXXXXXXooo++++XXX+++@@@######XXXoooooooXXXooooooooo+++XXXooooooo++++++...",
"   XXXXXXXXXXXXXXXXXXXXXXXXXXXXXXXXXXXXXXXXXooooooooo@@@XXXXXXXXXXXXXXXXXXXXXXXXXXXXXXXXXXXXXXXXX   ",
"   XXXXXXXXXXXXXXXXXXXXXXXXXXXXXXXXXXXXXXXXXooooooooo@@@XXXXXXXXXXXXXXXXXXXXXXXXXXXXXXXXXXXXXXXXX   ",
"   XXXXXXXXXXXXXXXXXXXXXXXXXXXXXXXXXXXXXXXXXooooooooo@@@XXXXXXXXXXXXXXXXXXXXXXXXXXXXXXXXXXXXXXXXX   ",
"...oooooo+++@@@@###@@@###XXXXXXXXXXXXXXXXXXXXXXXXXXXXXXXXXXXXXXXXXXXX+++@@@@@@###@@@@@@##########...",
"...oooooo+++@@@@###@@@###XXXXXXXXXXXXXXXXXXXXXXXXXXXXXXXXXXXXXXXXXXXX+++@@@@@@###@@@@@@##########...",
"...oooooo+++@@@@###@@@###XXXXXXXXXXXXXXXXXXXXXXXXXXXXXXXXXXXXXXXXXXXX+++@@@@@@###@@@@@@##########...",
"...oooooo+++++++++++++++++++XXXXXXXXXXXXXXXXXXXXXXXXXXXXXXX###XXXXooo+++++++++++++++@@@@@@@@@@###...",
"...oooooo+++++++++++++++++++XXXXXXXXXXXXXXXXXXXXXXXXXXXXXXX###XXXXooo+++++++++++++++@@@@@@@@@@###...",
"...oooooo+++++++++++++++++++XXXXXXXXXXXXXXXXXXXXXXXXXXXXXXX###XXXXooo+++++++++++++++@@@@@@@@@@###...",
"...oooooo++++++++++++++++++++++XXXXXXXXXXXXXXXXXXXXXX++++++@@@XXXXooo++++++++++++++++++++++@@@@@@...",
"...oooooo++++++++++++++++++++++XXXXXXXXXXXXXXXXXXXXXX++++++@@@XXXXooo++++++++++++++++++++++@@@@@@...",
"...oooooo++++++++++++++++++++++XXXXXXXXXXXXXXXXXXXXXX++++++@@@XXXXooo++++++++++++++++++++++@@@@@@...",
"...oooooo++++++++++++++++++++++XXXXXXXXXXXXXXXXXXXXXX++++++@@@XXXXooo++++++++++++++++++++++@@@@@@...",
"...ooooooooo++++oooooo+++ooo+++XXXoooooooooooooooo+++ooo++++++XXXXoooooooooooo+++ooo+++oooo+++@@@...",
"...ooooooooo++++oooooo+++ooo+++XXXoooooooooooooooo+++ooo++++++XXXXoooooooooooo+++ooo+++oooo+++@@@...",
"...ooooooooo++++oooooo+++ooo+++XXXoooooooooooooooo+++ooo++++++XXXXoooooooooooo+++ooo+++oooo+++@@@...",
"...XXXoooooooooooooooooooooo+++XXXooooooooooooooooooooooooo+++XXXXXXXoooooooooooooooooooooo++++++...",
"...XXXoooooooooooooooooooooo+++XXXooooooooooooooooooooooooo+++XXXXXXXoooooooooooooooooooooo++++++...",
"...XXXoooooooooooooooooooooo+++XXXooooooooooooooooooooooooo+++XXXXXXXoooooooooooooooooooooo++++++...",
"   ............................   ............................    ...............................   ",
"   ............................   ............................    ...............................   ",
"   ............................   ............................    ...............................   "
};
